{"glyphs":{"0":{"ha":633,"x_min":41,"x_max":591,"o":"m 317 970 q 432 947 380 970 q 518 868 483 924 q 572 717 553 812 q 591 476 591 621 q 572 236 591 331 q 518 84 553 140 q 432 6 483 28 q 317 -17 380 -17 q 201 6 252 -17 q 114 84 150 28 q 60 236 79 140 q 41 476 41 331 q 60 717 41 621 q 114 868 79 812 q 201 947 150 924 q 317 970 252 970 m 317 829 q 265 811 285 829 q 234 755 245 793 q 219 660 223 718 q 215 525 215 603 l 215 428 q 219 293 215 350 q 234 198 223 235 q 265 142 245 160 q 317 123 285 123 q 368 142 349 123 q 399 198 388 160 q 414 293 410 235 q 418 428 418 350 l 418 525 q 414 660 418 603 q 399 755 410 718 q 368 811 388 793 q 317 829 349 829 z "},"1":{"ha":633,"x_min":54,"x_max":632,"o":"m 436 140 l 632 140 l 632 0 l 56 0 l 56 140 l 269 140 l 269 734 l 54 734 l 54 846 q 121 858 83 849 q 200 882 159 867 q 281 914 241 896 q 354 953 321 932 l 436 953 l 436 140 z "},"2":{"ha":633,"x_min":46,"x_max":591,"o":"m 332 970 q 431 956 385 970 q 513 911 478 941 q 567 835 547 882 q 587 722 587 788 q 567 601 587 659 q 514 489 546 543 q 443 388 481 435 q 367 298 404 340 q 299 220 330 256 q 254 155 269 184 l 591 155 l 591 0 l 46 0 l 46 33 q 62 138 46 89 q 103 230 77 186 q 162 314 129 274 q 229 392 195 354 q 297 469 264 431 q 355 548 330 507 q 397 631 381 588 q 412 724 412 675 q 408 759 412 741 q 394 792 404 777 q 368 817 385 807 q 325 827 351 827 q 281 815 299 827 q 251 783 262 803 q 234 738 239 764 q 229 682 229 711 l 229 625 l 58 625 q 56 640 57 632 q 54 681 54 654 q 77 812 54 758 q 137 902 99 867 q 226 954 176 937 q 332 970 276 970 z "},"3":{"ha":633,"x_min":35,"x_max":591,"o":"m 313 970 q 420 953 372 970 q 503 903 468 936 q 556 821 537 869 q 575 708 575 772 q 566 633 575 666 q 540 574 556 600 q 501 529 524 549 q 452 494 478 509 l 452 489 q 507 457 481 477 q 552 408 533 437 q 581 341 570 379 q 591 256 591 303 q 571 141 591 192 q 514 56 551 91 q 428 2 478 20 q 317 -17 377 -17 q 196 3 248 -17 q 107 61 143 24 q 53 151 72 98 q 35 269 35 204 l 35 294 l 208 294 l 208 265 q 235 160 208 197 q 314 123 261 123 q 389 158 361 123 q 418 264 418 192 q 409 338 418 309 q 384 384 399 367 q 347 407 368 400 q 304 414 327 414 l 258 414 l 258 554 l 307 554 q 344 563 327 554 q 374 591 361 572 q 394 637 387 609 q 401 701 401 665 q 378 799 401 768 q 314 829 355 829 q 248 796 271 829 q 225 696 225 763 l 225 669 l 52 669 l 52 708 q 71 816 52 768 q 125 898 90 864 q 208 951 159 932 q 313 970 256 970 z "},"4":{"ha":633,"x_min":11,"x_max":618,"o":"m 418 970 q 384 844 405 908 q 338 717 363 779 q 287 598 313 655 q 235 493 260 541 q 189 410 210 446 q 155 355 168 374 l 354 355 l 354 570 q 381 630 368 597 q 407 698 395 663 q 430 767 420 733 q 447 828 440 800 l 521 828 l 521 355 l 618 355 l 618 215 l 521 215 l 521 0 l 354 0 l 354 215 l 11 215 l 11 349 q 83 490 48 414 q 148 646 117 566 q 204 808 178 726 q 252 970 231 890 l 418 970 z "},"5":{"ha":633,"x_min":41,"x_max":602,"o":"m 561 798 l 248 798 l 233 572 q 287 604 254 589 q 370 619 319 619 q 460 601 418 619 q 534 544 503 582 q 584 448 566 506 q 602 311 602 390 q 582 172 602 233 q 527 68 563 111 q 438 5 490 26 q 322 -17 387 -17 q 207 5 258 -17 q 118 67 155 26 q 61 165 81 107 q 41 296 41 223 l 215 296 q 222 224 215 256 q 243 169 229 192 q 277 134 257 146 q 322 122 296 122 q 366 134 346 122 q 399 170 385 146 q 421 229 414 193 q 429 311 429 264 q 422 385 429 353 q 401 439 414 417 q 370 472 388 461 q 332 484 353 484 q 269 460 294 484 q 229 403 245 437 l 68 425 l 100 953 l 561 953 l 561 798 z "},"6":{"ha":633,"x_min":41,"x_max":591,"o":"m 317 970 q 430 946 382 970 q 508 881 477 922 q 553 783 538 840 q 567 660 567 726 l 396 660 q 377 785 396 740 q 311 829 359 829 q 260 808 279 829 q 231 746 241 786 q 218 650 221 707 q 214 524 214 593 q 276 579 237 559 q 361 599 315 599 q 462 576 418 599 q 534 511 505 553 q 577 414 563 470 q 591 292 591 357 q 572 163 591 220 q 517 66 552 106 q 434 4 482 26 q 329 -17 386 -17 q 209 6 262 -17 q 118 83 155 29 q 61 227 81 138 q 41 449 41 317 q 60 697 41 597 q 114 858 79 798 q 201 944 150 919 q 317 970 252 970 m 322 463 q 279 450 297 463 q 248 415 260 437 q 230 361 236 393 q 224 292 224 330 q 230 225 224 256 q 248 172 236 194 q 279 136 260 149 q 322 123 297 123 q 366 136 347 123 q 396 172 384 149 q 413 225 408 194 q 419 292 419 256 q 413 361 419 330 q 396 415 408 393 q 366 450 384 437 q 322 463 347 463 z "},"7":{"ha":633,"x_min":32,"x_max":602,"o":"m 602 840 q 537 738 570 793 q 473 622 504 683 q 414 494 441 561 q 366 358 387 428 q 333 216 345 288 q 321 71 321 144 l 321 38 q 321 21 321 31 q 322 0 321 12 l 138 0 q 161 227 138 115 q 225 441 185 338 q 315 634 264 544 q 421 798 366 725 l 32 798 l 32 953 l 602 953 l 602 840 z "},"8":{"ha":633,"x_min":41,"x_max":591,"o":"m 317 970 q 428 949 380 970 q 508 891 476 928 q 556 807 540 855 q 572 704 572 759 q 547 580 572 636 q 468 489 521 524 q 563 398 534 456 q 591 261 591 339 q 576 153 591 204 q 527 65 560 102 q 442 5 494 27 q 317 -17 390 -17 q 192 5 243 -17 q 106 65 140 27 q 57 153 73 102 q 41 261 41 204 q 71 397 41 338 q 164 489 100 456 q 86 580 111 524 q 61 704 61 636 q 77 807 61 759 q 125 891 93 855 q 205 949 157 928 q 317 970 253 970 m 317 418 q 240 380 267 418 q 214 269 214 342 q 240 160 214 197 q 317 122 267 122 q 393 160 367 122 q 419 269 419 197 q 393 380 419 342 q 317 418 367 418 m 317 831 q 253 796 275 831 q 231 693 231 761 q 253 590 231 625 q 317 555 275 555 q 381 590 359 555 q 404 693 404 625 q 381 796 404 761 q 317 831 359 831 z "},"9":{"ha":633,"x_min":41,"x_max":591,"o":"m 304 970 q 425 947 372 970 q 515 869 478 924 q 572 726 552 815 q 591 504 591 636 q 573 255 591 355 q 519 95 554 155 q 432 8 484 34 q 317 -17 381 -17 q 203 7 250 -17 q 125 72 156 31 q 81 170 95 113 q 66 293 66 227 l 237 293 q 242 221 237 253 q 256 168 246 190 q 282 135 266 146 q 322 123 298 123 q 373 145 355 123 q 402 207 392 167 q 415 303 412 246 q 419 429 418 359 q 357 374 395 393 q 272 354 319 354 q 171 377 214 354 q 99 441 127 400 q 56 539 70 483 q 41 661 41 595 q 61 789 41 732 q 116 887 81 846 q 199 948 151 927 q 304 970 248 970 m 311 829 q 268 817 286 829 q 237 781 250 804 q 219 728 225 759 q 214 661 214 697 q 219 592 214 623 q 237 538 225 560 q 268 503 250 515 q 311 490 286 490 q 355 503 336 490 q 385 538 373 515 q 404 592 397 560 q 410 661 410 623 q 404 728 410 697 q 385 781 397 759 q 355 817 373 804 q 311 829 336 829 z "},"\r":{"ha":0,"x_min":0,"x_max":0,"o":""}," ":{"ha":317,"x_min":0,"x_max":0,"o":""},"!":{"ha":379,"x_min":83,"x_max":296,"o":"m 245 273 l 132 273 l 83 953 l 296 953 l 245 273 m 286 0 l 94 0 l 94 191 l 286 191 l 286 0 z "},"\"":{"ha":541,"x_min":62,"x_max":484,"o":"m 484 749 l 454 566 l 345 566 l 314 749 l 314 953 l 484 953 l 484 749 m 232 749 l 203 566 l 93 566 l 62 749 l 62 953 l 232 953 l 232 749 z "},"#":{"ha":633,"x_min":7,"x_max":625,"o":"m 539 700 l 625 700 l 625 583 l 513 583 l 469 387 l 571 387 l 571 271 l 443 271 l 382 0 l 260 0 l 321 271 l 216 271 l 155 0 l 33 0 l 94 271 l 7 271 l 7 387 l 121 387 l 164 583 l 61 583 l 61 700 l 191 700 l 252 970 l 374 970 l 313 700 l 416 700 l 478 970 l 600 970 l 539 700 m 286 583 l 243 387 l 347 387 l 390 583 l 286 583 z "},"$":{"ha":633,"x_min":46,"x_max":583,"o":"m 351 857 q 436 838 397 853 q 504 797 475 822 q 549 737 533 772 q 566 660 566 703 q 565 639 566 648 q 564 628 564 629 l 411 628 q 395 695 411 670 q 351 730 378 720 l 351 551 q 432 528 391 541 q 507 490 473 514 q 562 428 541 467 q 583 330 583 390 q 566 227 583 269 q 518 156 549 184 q 445 114 487 128 q 351 96 402 100 l 351 -68 l 275 -68 l 275 96 q 178 119 220 100 q 106 168 135 138 q 61 238 77 197 q 46 326 46 278 l 46 332 q 47 338 46 335 q 47 343 47 340 l 200 343 l 200 334 q 222 259 200 286 q 275 224 245 233 l 275 422 q 198 447 237 433 q 127 484 159 460 q 77 544 96 507 q 57 636 57 580 q 74 725 57 686 q 119 791 90 764 q 189 835 149 819 q 275 856 229 851 l 275 1004 l 351 1004 l 351 857 m 351 221 q 381 232 366 224 q 406 249 395 239 q 424 275 417 260 q 431 310 431 290 q 408 364 431 344 q 351 397 386 384 l 351 221 m 275 730 q 228 700 245 721 q 210 650 210 680 q 228 604 210 621 q 275 575 245 587 l 275 730 z "},"%":{"ha":1013,"x_min":49,"x_max":965,"o":"m 277 0 l 158 0 l 739 953 l 859 953 l 277 0 m 240 970 q 320 958 285 970 q 381 916 356 945 q 419 839 406 887 q 432 718 432 790 q 419 597 432 646 q 381 520 406 549 q 320 480 356 492 q 240 468 285 468 q 160 480 195 468 q 100 521 124 492 q 62 598 75 550 q 49 718 49 646 q 62 839 49 790 q 100 916 75 887 q 160 958 124 945 q 240 970 195 970 m 240 868 q 206 858 219 868 q 185 829 193 848 q 175 785 178 811 q 172 729 172 760 l 172 708 q 175 652 172 677 q 185 608 178 627 q 206 580 193 590 q 240 570 219 570 q 274 580 261 570 q 295 608 288 590 q 306 652 302 627 q 309 708 309 677 l 309 729 q 306 785 309 760 q 295 829 302 811 q 274 858 288 848 q 240 868 261 868 m 774 485 q 854 473 819 485 q 914 432 890 460 q 952 354 939 403 q 965 233 965 306 q 952 113 965 161 q 914 36 939 64 q 854 -5 890 7 q 774 -17 819 -17 q 693 -5 729 -17 q 633 36 658 7 q 595 113 608 65 q 582 233 582 161 q 595 354 582 306 q 633 432 608 403 q 693 473 658 460 q 774 485 729 485 m 774 383 q 740 373 753 383 q 719 345 726 363 q 708 300 711 326 q 705 244 705 275 l 705 224 q 708 168 705 193 q 719 123 711 142 q 740 95 726 105 q 774 85 753 85 q 808 95 795 85 q 829 123 821 105 q 839 168 836 142 q 842 224 842 193 l 842 244 q 839 300 842 275 q 829 345 836 326 q 808 373 821 363 q 774 383 795 383 z "},"&":{"ha":822,"x_min":50,"x_max":802,"o":"m 387 970 q 511 951 454 970 q 607 898 567 932 q 669 816 647 864 q 692 708 692 768 l 692 669 l 525 669 l 525 696 q 489 796 525 763 q 385 829 454 829 q 280 795 317 829 q 243 701 243 761 q 253 640 243 667 q 281 593 263 612 q 324 564 299 574 q 379 554 349 554 l 436 554 l 436 414 l 383 414 q 322 407 351 414 q 272 384 294 400 q 237 338 250 367 q 224 264 224 309 q 265 158 224 192 q 376 123 307 123 q 488 160 452 123 q 525 265 525 197 l 525 554 l 802 554 l 802 414 l 692 414 l 692 269 q 671 151 692 204 q 610 61 650 98 q 511 3 570 24 q 374 -17 451 -17 q 243 2 302 -17 q 141 56 184 20 q 74 141 98 91 q 50 256 50 192 q 62 341 50 303 q 96 408 75 379 q 148 457 118 437 q 212 489 178 477 l 212 494 q 156 529 182 509 q 110 574 130 549 q 80 633 91 600 q 69 708 69 666 q 92 821 69 772 q 157 903 115 869 q 257 953 199 936 q 387 970 316 970 z "},"'":{"ha":271,"x_min":52,"x_max":221,"o":"m 221 749 l 192 566 l 82 566 l 52 749 l 52 953 l 221 953 l 221 749 z "},"(":{"ha":379,"x_min":41,"x_max":358,"o":"m 358 1021 q 294 883 323 957 q 242 729 264 809 q 207 567 220 650 q 195 403 195 484 q 207 238 195 321 q 242 74 220 155 q 294 -80 264 -6 q 358 -218 323 -155 l 249 -218 q 160 -82 199 -155 q 95 70 121 -9 q 55 231 68 148 q 41 400 41 315 q 55 569 41 486 q 95 732 68 653 q 160 883 121 810 q 249 1021 199 956 l 358 1021 z "},")":{"ha":379,"x_min":21,"x_max":338,"o":"m 131 1021 q 219 883 180 956 q 284 732 258 810 q 324 569 311 653 q 338 400 338 486 q 324 231 338 315 q 284 70 311 148 q 219 -82 258 -9 q 131 -218 180 -155 l 21 -218 q 85 -80 56 -155 q 137 74 115 -6 q 172 238 159 155 q 184 403 184 321 q 172 567 184 484 q 137 729 159 650 q 85 883 115 809 q 21 1021 56 957 l 131 1021 z "},"*":{"ha":443,"x_min":11,"x_max":433,"o":"m 262 812 l 379 893 l 433 802 l 304 741 l 433 682 l 379 587 l 262 671 l 277 529 l 168 529 l 182 671 l 65 587 l 11 682 l 140 741 l 11 802 l 65 893 l 182 811 l 168 953 l 277 953 l 262 812 z "},"+":{"ha":665,"x_min":46,"x_max":618,"o":"m 403 427 l 618 427 l 618 282 l 403 282 l 403 0 l 260 0 l 260 282 l 46 282 l 46 427 l 260 427 l 260 710 l 403 710 l 403 427 z "},",":{"ha":317,"x_min":62,"x_max":254,"o":"m 254 17 l 163 -216 l 62 -216 l 139 0 l 62 0 l 62 191 l 254 191 l 254 17 z "},"-":{"ha":379,"x_min":22,"x_max":357,"o":"m 357 293 l 22 293 l 22 457 l 357 457 l 357 293 z "},".":{"ha":317,"x_min":62,"x_max":254,"o":"m 254 0 l 62 0 l 62 191 l 254 191 l 254 0 z "},"/":{"ha":317,"x_min":1,"x_max":317,"o":"m 121 -68 l 1 -68 l 199 1021 l 317 1021 l 121 -68 z "},":":{"ha":379,"x_min":77,"x_max":268,"o":"m 268 0 l 77 0 l 77 191 l 268 191 l 268 0 m 268 541 l 77 541 l 77 730 l 268 730 l 268 541 z "},";":{"ha":379,"x_min":75,"x_max":268,"o":"m 267 17 l 175 -216 l 75 -216 l 151 0 l 75 0 l 75 191 l 267 191 l 267 17 m 268 541 l 77 541 l 77 730 l 268 730 l 268 541 z "},"<":{"ha":665,"x_min":47,"x_max":619,"o":"m 619 574 l 187 363 l 619 151 l 619 -12 l 47 273 l 47 450 l 619 737 l 619 574 z "},"=":{"ha":665,"x_min":46,"x_max":618,"o":"m 618 428 l 46 428 l 46 572 l 618 572 l 618 428 m 618 134 l 46 134 l 46 277 l 618 277 l 618 134 z "},">":{"ha":665,"x_min":47,"x_max":619,"o":"m 619 450 l 619 273 l 47 -12 l 47 151 l 479 363 l 47 574 l 47 737 l 619 450 z "},"?":{"ha":696,"x_min":65,"x_max":629,"o":"m 361 970 q 472 951 422 970 q 557 901 522 933 q 611 823 592 868 q 629 722 629 777 q 616 617 629 661 q 584 543 604 574 q 543 486 565 511 q 501 436 520 461 q 469 382 481 411 q 456 313 456 353 l 456 273 l 281 273 l 281 334 q 293 407 281 375 q 324 465 305 438 q 364 515 342 491 q 404 567 385 540 q 435 628 422 595 q 447 707 447 662 q 444 736 447 717 q 431 774 441 755 q 401 807 420 793 q 350 821 382 821 q 294 805 315 821 q 261 767 273 789 q 247 719 250 745 q 243 675 243 694 l 243 660 q 243 648 243 653 q 244 637 243 642 l 69 637 q 67 656 68 647 q 65 671 66 663 q 65 686 65 680 q 83 796 65 745 q 139 886 102 848 q 231 947 176 925 q 361 970 286 970 m 465 0 l 273 0 l 273 191 l 465 191 l 465 0 z "},"@":{"ha":1111,"x_min":35,"x_max":1078,"o":"m 572 970 q 773 940 681 970 q 934 847 866 911 q 1040 685 1002 784 q 1078 446 1078 585 q 1065 306 1078 367 q 1031 198 1053 244 q 983 120 1010 152 q 924 68 955 88 q 862 39 894 48 q 802 31 830 31 q 743 37 767 31 q 703 55 720 43 q 675 82 686 66 q 657 118 665 98 l 650 118 q 620 81 635 98 q 586 54 605 65 q 541 37 566 43 q 484 31 516 31 q 431 38 460 31 q 377 66 402 45 q 334 123 351 87 q 317 216 317 159 q 341 328 317 283 q 409 400 366 373 q 513 438 452 427 q 646 449 573 449 l 646 518 q 643 550 646 535 q 633 576 640 565 q 612 594 625 587 q 576 600 598 600 q 537 594 553 600 q 513 577 522 587 q 501 555 505 567 q 497 530 497 543 l 497 513 l 350 513 q 349 524 349 518 l 349 541 q 365 615 349 581 q 410 673 380 649 q 480 710 439 697 q 572 724 522 724 q 743 672 688 724 q 799 528 799 621 l 799 211 q 810 170 799 182 q 840 158 821 158 q 888 173 864 158 q 932 221 913 187 q 964 310 952 254 q 977 447 977 366 q 947 641 977 560 q 863 773 917 722 q 735 849 810 825 q 571 873 661 873 q 390 842 470 873 q 253 747 309 810 q 166 588 197 684 q 136 363 136 492 q 232 4 136 124 q 528 -117 327 -117 q 582 -113 551 -117 q 644 -104 612 -110 q 704 -90 675 -98 q 750 -72 732 -81 l 750 -175 q 699 -190 728 -183 q 639 -202 670 -197 q 579 -210 608 -207 q 528 -212 549 -212 q 322 -179 414 -212 q 167 -75 231 -145 q 69 105 103 -4 q 35 364 35 214 q 54 563 35 475 q 110 718 74 651 q 195 833 145 785 q 304 911 244 881 q 432 956 363 941 q 572 970 500 970 m 646 339 q 581 334 612 339 q 526 317 550 330 q 487 284 501 305 q 472 231 472 263 q 490 177 472 197 q 546 157 507 157 q 592 168 573 157 q 623 200 611 180 q 640 246 635 220 q 646 301 646 272 l 646 339 z "},"A":{"ha":822,"x_min":0,"x_max":821,"o":"m 821 0 l 639 0 l 581 187 l 229 187 l 172 0 l 0 0 l 307 953 l 514 953 l 821 0 m 403 793 q 394 745 399 768 q 385 703 390 725 q 375 664 380 680 l 278 346 l 532 346 l 436 664 q 425 705 431 683 q 416 747 420 728 q 408 793 412 770 l 403 793 z "},"B":{"ha":822,"x_min":83,"x_max":775,"o":"m 83 953 l 493 953 q 597 936 549 953 q 679 887 644 918 q 733 813 713 857 q 753 717 753 770 q 742 641 753 675 q 711 578 730 606 q 664 531 691 551 q 607 500 637 511 l 607 494 q 673 462 642 484 q 727 410 704 440 q 762 340 749 379 q 775 256 775 301 q 752 148 775 195 q 691 68 730 101 q 601 17 652 35 q 493 0 550 0 l 83 0 l 83 953 m 261 410 l 261 158 l 464 158 q 515 166 492 158 q 556 189 538 174 q 583 227 573 204 q 593 278 593 249 q 584 329 593 305 q 559 371 576 353 q 516 399 542 389 q 456 410 490 410 l 261 410 m 261 794 l 261 567 l 444 567 q 500 576 476 567 q 539 602 524 586 q 563 639 555 618 q 571 685 571 661 q 538 767 571 739 q 453 794 506 794 l 261 794 z "},"C":{"ha":822,"x_min":47,"x_max":777,"o":"m 427 970 q 565 948 501 970 q 676 881 629 926 q 750 766 723 836 q 777 599 777 696 l 595 599 q 583 695 595 654 q 548 763 570 736 q 495 803 526 790 q 427 817 464 817 q 340 795 377 817 q 279 735 303 774 q 242 639 254 696 q 231 511 231 583 l 231 441 q 243 314 231 370 q 280 218 255 257 q 343 157 305 178 q 432 136 381 136 q 502 150 471 136 q 556 190 534 163 q 591 257 578 216 q 603 353 603 298 l 777 353 q 750 190 777 259 q 677 74 724 120 q 566 6 630 28 q 427 -17 502 -17 q 267 13 337 -17 q 147 104 196 43 q 73 257 98 165 q 47 476 47 350 q 73 695 47 602 q 147 849 98 788 q 267 940 196 910 q 427 970 337 970 z "},"D":{"ha":822,"x_min":83,"x_max":775,"o":"m 83 0 l 83 953 l 393 953 q 553 924 482 953 q 673 837 624 895 q 749 692 722 779 q 775 490 775 606 q 749 276 775 368 q 673 123 722 184 q 553 31 624 62 q 393 0 482 0 l 83 0 m 261 794 l 261 158 l 376 158 q 466 177 426 158 q 533 232 505 195 q 576 325 562 269 q 591 456 591 381 l 591 525 q 576 643 591 592 q 533 727 562 693 q 466 777 505 760 q 376 794 426 794 l 261 794 z "},"E":{"ha":760,"x_min":83,"x_max":699,"o":"m 83 0 l 83 953 l 690 953 l 690 794 l 261 794 l 261 567 l 629 567 l 629 408 l 261 408 l 261 158 l 699 158 l 699 0 l 83 0 z "},"F":{"ha":696,"x_min":83,"x_max":643,"o":"m 83 0 l 83 953 l 643 953 l 643 794 l 261 794 l 261 554 l 587 554 l 587 396 l 261 396 l 261 0 l 83 0 z "},"G":{"ha":886,"x_min":47,"x_max":815,"o":"m 452 970 q 589 947 524 970 q 705 880 655 924 q 785 770 755 836 q 815 619 815 705 l 633 619 q 618 705 633 668 q 578 766 604 741 q 518 804 553 791 q 446 817 484 817 q 349 795 390 817 q 282 735 309 774 q 243 639 256 696 q 231 511 231 583 l 231 441 q 243 312 231 369 q 283 216 256 255 q 351 157 310 177 q 447 136 391 136 q 522 153 488 136 q 581 199 556 169 q 620 271 606 229 q 633 366 633 313 l 419 366 l 419 518 l 815 518 l 815 0 l 700 0 l 669 106 q 557 14 623 45 q 415 -17 491 -17 q 259 13 328 -17 q 144 103 191 42 q 72 256 97 163 q 47 476 47 349 q 75 695 47 602 q 153 849 102 788 q 280 940 205 910 q 452 970 355 970 z "},"H":{"ha":822,"x_min":83,"x_max":739,"o":"m 561 408 l 261 408 l 261 0 l 83 0 l 83 953 l 261 953 l 261 567 l 561 567 l 561 953 l 739 953 l 739 0 l 561 0 l 561 408 z "},"I":{"ha":317,"x_min":69,"x_max":248,"o":"m 248 0 l 69 0 l 69 953 l 248 953 l 248 0 z "},"J":{"ha":633,"x_min":12,"x_max":550,"o":"m 189 300 l 189 240 q 213 163 189 190 q 282 136 236 136 q 350 163 327 136 q 372 240 372 190 l 372 953 l 550 953 l 550 227 q 481 45 550 106 q 282 -17 412 -17 q 82 45 153 -17 q 12 227 12 107 l 12 300 l 189 300 z "},"K":{"ha":822,"x_min":83,"x_max":818,"o":"m 262 465 l 611 953 l 810 953 l 528 566 l 818 0 l 618 0 l 411 425 l 262 243 l 262 0 l 83 0 l 83 953 l 262 953 l 262 465 z "},"L":{"ha":696,"x_min":83,"x_max":664,"o":"m 83 953 l 261 953 l 261 167 l 664 167 l 664 0 l 83 0 l 83 953 z "},"M":{"ha":949,"x_min":74,"x_max":875,"o":"m 711 0 l 711 607 q 712 649 711 623 q 715 699 713 675 q 718 760 716 728 l 713 760 l 546 0 l 392 0 l 224 760 l 218 760 q 222 697 220 726 q 223 672 222 685 q 224 646 223 659 q 225 624 224 634 q 225 607 225 614 l 225 0 l 74 0 l 74 953 l 323 953 l 441 428 q 447 401 444 416 q 453 368 450 385 q 460 332 456 351 q 466 296 463 313 q 479 212 473 256 l 485 212 q 496 299 490 258 q 500 335 498 317 q 506 371 503 353 q 511 403 509 388 q 517 428 514 418 l 633 953 l 875 953 l 875 0 l 711 0 z "},"N":{"ha":822,"x_min":83,"x_max":739,"o":"m 581 0 l 286 525 q 275 547 282 532 q 260 576 268 562 q 243 614 252 594 l 237 610 q 239 579 238 594 q 240 553 239 566 q 240 530 240 540 l 240 0 l 83 0 l 83 953 l 240 953 l 534 428 q 548 404 540 418 q 562 374 555 389 q 578 339 570 357 l 582 343 q 581 377 581 361 q 581 404 581 391 q 581 422 581 416 l 581 953 l 739 953 l 739 0 l 581 0 z "},"O":{"ha":886,"x_min":47,"x_max":839,"o":"m 443 970 q 609 940 535 970 q 733 849 682 910 q 812 695 785 788 q 839 476 839 602 q 812 257 839 350 q 733 104 785 165 q 609 13 682 43 q 443 -17 535 -17 q 277 13 351 -17 q 153 104 204 43 q 75 257 102 165 q 47 476 47 350 q 75 695 47 602 q 153 849 102 788 q 277 940 204 910 q 443 970 351 970 m 443 817 q 350 795 390 817 q 283 735 310 774 q 244 639 257 696 q 231 511 231 583 l 231 441 q 244 314 231 370 q 283 218 257 257 q 350 157 310 178 q 443 136 390 136 q 536 157 496 136 q 603 218 576 178 q 643 314 629 257 q 656 441 656 370 l 656 511 q 643 639 656 583 q 603 735 629 696 q 536 795 576 774 q 443 817 496 817 z "},"P":{"ha":760,"x_min":83,"x_max":722,"o":"m 261 370 l 261 0 l 83 0 l 83 953 l 424 953 q 553 931 498 953 q 647 872 609 910 q 703 781 684 833 q 722 667 722 728 q 701 545 722 600 q 640 451 680 490 q 546 391 601 412 q 424 370 491 370 l 261 370 m 261 794 l 261 526 l 406 526 q 505 564 471 526 q 539 667 539 601 q 504 760 539 726 q 406 794 469 794 l 261 794 z "},"Q":{"ha":886,"x_min":47,"x_max":839,"o":"m 47 476 q 75 695 47 602 q 153 849 102 788 q 277 940 204 910 q 443 970 351 970 q 609 940 535 970 q 733 849 682 910 q 812 695 785 788 q 839 476 839 602 q 784 185 839 297 q 632 24 730 73 l 815 -172 l 597 -172 l 460 -17 l 443 -17 q 277 13 351 -17 q 153 104 204 43 q 75 257 102 165 q 47 476 47 350 m 231 441 q 244 314 231 370 q 283 218 257 257 q 350 157 310 178 q 443 136 390 136 q 536 157 496 136 q 603 218 576 178 q 643 314 629 257 q 656 441 656 370 l 656 511 q 643 639 656 583 q 603 735 629 696 q 536 795 576 774 q 443 817 496 817 q 350 795 390 817 q 283 735 310 774 q 244 639 257 696 q 231 511 231 583 l 231 441 z "},"R":{"ha":822,"x_min":83,"x_max":798,"o":"m 261 397 l 261 0 l 83 0 l 83 953 l 482 953 q 609 932 554 953 q 700 876 663 912 q 755 790 736 840 q 774 681 774 740 q 763 600 774 637 q 731 530 751 562 q 681 475 710 499 q 614 436 651 451 l 798 0 l 604 0 l 446 397 l 261 397 m 261 794 l 261 554 l 457 554 q 552 588 522 554 q 582 681 582 621 q 554 764 582 733 q 464 794 526 794 l 261 794 z "},"S":{"ha":760,"x_min":41,"x_max":707,"o":"m 379 970 q 499 954 443 970 q 597 903 555 937 q 664 815 640 869 q 689 689 689 762 l 689 672 l 507 672 l 507 685 q 473 781 507 745 q 378 817 439 817 q 278 788 313 817 q 244 715 244 760 q 264 656 244 680 q 317 616 284 633 q 391 587 349 600 q 475 559 432 574 q 560 525 519 545 q 634 474 602 505 q 687 397 667 443 q 707 286 707 352 q 682 146 707 204 q 613 53 657 89 q 507 0 568 16 q 371 -17 445 -17 q 245 2 305 -17 q 140 58 186 20 q 68 151 95 95 q 41 279 41 206 q 42 296 41 288 q 43 310 43 304 l 228 310 q 227 300 228 308 q 227 288 227 293 q 237 226 227 254 q 267 178 247 198 q 314 147 286 158 q 379 136 342 136 q 447 146 419 136 q 492 172 475 156 q 516 208 509 188 q 524 249 524 228 q 511 307 524 283 q 475 348 498 331 q 424 378 453 366 q 361 402 394 391 q 292 425 328 413 q 224 451 257 436 q 161 488 191 467 q 109 538 132 509 q 74 608 87 568 q 61 703 61 648 q 87 821 61 770 q 157 904 113 871 q 258 954 201 937 q 379 970 316 970 z "},"T":{"ha":696,"x_min":24,"x_max":673,"o":"m 673 794 l 437 794 l 437 0 l 260 0 l 260 794 l 24 794 l 24 953 l 673 953 l 673 794 z "},"U":{"ha":822,"x_min":85,"x_max":739,"o":"m 85 953 l 262 953 l 262 304 q 301 179 262 222 q 411 136 340 136 q 522 179 482 136 q 561 304 561 222 l 561 953 l 739 953 l 739 298 q 716 162 739 221 q 651 63 694 103 q 548 3 609 24 q 411 -17 488 -17 q 274 3 334 -17 q 172 63 214 24 q 107 162 130 103 q 85 298 85 221 l 85 953 z "},"V":{"ha":760,"x_min":0,"x_max":760,"o":"m 469 0 l 290 0 l 0 953 l 183 953 l 383 271 l 389 271 l 586 953 l 760 953 l 469 0 z "},"W":{"ha":1075,"x_min":0,"x_max":1074,"o":"m 867 0 l 688 0 l 558 607 q 551 648 554 625 q 545 692 547 671 q 539 742 542 717 l 533 742 q 526 690 529 715 q 520 645 523 668 q 514 607 517 622 l 386 0 l 207 0 l 0 953 l 176 953 l 290 367 q 297 328 294 351 q 302 284 300 305 q 309 233 305 259 l 314 233 q 319 285 317 260 q 325 329 322 307 q 332 367 328 351 l 447 953 l 648 953 l 762 367 q 768 330 765 353 q 774 286 772 307 q 781 233 777 260 l 786 233 l 791 282 q 797 326 794 302 q 804 367 800 349 l 921 953 l 1074 953 l 867 0 z "},"X":{"ha":760,"x_min":0,"x_max":758,"o":"m 488 503 l 758 0 l 561 0 l 375 359 l 370 359 l 184 0 l 0 0 l 269 500 l 25 953 l 224 953 l 383 642 l 389 642 l 549 953 l 733 953 l 488 503 z "},"Y":{"ha":760,"x_min":0,"x_max":760,"o":"m 469 359 l 469 0 l 292 0 l 292 359 l 0 953 l 187 953 l 382 534 l 387 534 l 581 953 l 760 953 l 469 359 z "},"Z":{"ha":696,"x_min":22,"x_max":667,"o":"m 657 884 l 265 158 l 667 158 l 667 0 l 22 0 l 22 68 l 414 794 l 52 794 l 52 953 l 657 953 l 657 884 z "},"[":{"ha":379,"x_min":68,"x_max":345,"o":"m 345 889 l 229 889 l 229 -92 l 345 -92 l 345 -224 l 68 -224 l 68 1021 l 345 1021 l 345 889 z "},"\\":{"ha":317,"x_min":1,"x_max":317,"o":"m 317 -68 l 197 -68 l 1 1021 l 119 1021 l 317 -68 z "},"]":{"ha":379,"x_min":35,"x_max":311,"o":"m 311 -224 l 35 -224 l 35 -92 l 150 -92 l 150 889 l 35 889 l 35 1021 l 311 1021 l 311 -224 z "},"^":{"ha":665,"x_min":45,"x_max":628,"o":"m 628 408 l 475 408 l 335 783 l 197 408 l 45 408 l 261 953 l 410 953 l 628 408 z "},"_":{"ha":633,"x_min":0,"x_max":632,"o":"m 632 -183 l 0 -183 l 0 -87 l 632 -87 l 632 -183 z "},"`":{"ha":379,"x_min":29,"x_max":317,"o":"m 317 821 l 179 821 l 29 1000 l 31 1004 l 197 1004 l 317 821 z "},"a":{"ha":633,"x_min":20,"x_max":623,"o":"m 301 747 q 489 691 428 747 q 550 532 550 634 l 550 172 q 562 135 550 146 q 589 123 574 123 l 623 123 l 623 5 q 585 -9 609 -2 q 524 -17 562 -17 q 440 10 473 -17 q 395 79 407 37 l 387 79 q 355 40 372 58 q 316 9 338 22 q 267 -10 294 -3 q 203 -17 239 -17 q 145 -8 177 -17 q 86 23 114 0 q 39 85 58 45 q 20 189 20 125 q 46 312 20 263 q 121 390 73 361 q 236 432 169 420 q 382 444 302 444 l 382 521 q 379 556 382 540 q 368 585 376 572 q 345 604 359 597 q 306 611 330 611 q 263 604 280 611 q 236 586 246 597 q 222 561 227 575 q 218 534 218 547 l 218 514 l 56 514 q 54 528 54 520 l 54 545 q 72 628 54 590 q 122 692 90 665 q 199 733 154 718 q 301 747 245 747 m 382 323 q 311 318 345 323 q 250 299 277 313 q 207 262 223 286 q 191 204 191 239 q 210 144 191 166 q 272 122 229 122 q 322 135 302 122 q 356 170 343 148 q 376 221 370 192 q 382 282 382 250 l 382 323 z "},"b":{"ha":696,"x_min":77,"x_max":639,"o":"m 232 90 l 215 0 l 77 0 l 77 1004 l 243 1004 l 243 656 l 250 656 q 314 724 270 700 q 412 747 357 747 q 503 725 461 747 q 574 657 544 703 q 622 538 604 610 q 639 367 639 467 q 623 195 639 267 q 576 76 606 123 q 502 6 545 28 q 404 -17 458 -17 q 309 10 352 -17 q 239 90 267 37 l 232 90 m 243 339 q 268 188 243 240 q 354 135 294 135 q 440 188 414 135 q 465 339 465 240 l 465 392 q 440 543 465 490 q 354 596 414 596 q 302 582 323 596 q 268 542 281 568 q 249 477 255 515 q 243 389 243 438 l 243 339 z "},"c":{"ha":633,"x_min":57,"x_max":583,"o":"m 328 747 q 433 730 386 747 q 514 678 481 713 q 565 587 547 642 q 583 456 583 532 l 412 456 q 391 570 412 533 q 328 607 370 607 q 253 552 275 607 q 231 392 231 497 l 231 339 q 254 179 231 234 q 334 123 277 123 q 398 161 378 123 q 418 275 418 199 l 583 275 q 566 143 583 199 q 515 53 548 88 q 437 0 483 17 q 334 -17 391 -17 q 210 6 262 -17 q 124 76 158 28 q 73 195 90 123 q 57 366 57 267 q 124 655 57 562 q 328 747 192 747 z "},"d":{"ha":696,"x_min":57,"x_max":619,"o":"m 619 0 l 481 0 l 464 90 l 457 90 q 387 10 430 37 q 292 -17 344 -17 q 194 6 237 -17 q 120 76 151 28 q 73 195 90 123 q 57 367 57 267 q 74 538 57 467 q 122 657 92 610 q 193 725 152 703 q 283 747 235 747 q 382 724 338 747 q 446 656 426 700 l 453 656 l 453 1004 l 619 1004 l 619 0 m 342 596 q 256 543 281 596 q 231 392 231 490 l 231 339 q 256 188 231 240 q 342 135 281 135 q 428 188 402 135 q 453 339 453 240 l 453 389 q 447 477 453 438 q 428 542 441 515 q 393 582 414 568 q 342 596 372 596 z "},"e":{"ha":633,"x_min":43,"x_max":587,"o":"m 323 747 q 522 655 456 747 q 587 366 587 562 l 587 323 l 216 323 q 223 237 217 275 q 243 173 230 199 q 277 133 256 146 q 329 119 298 119 q 397 156 372 119 q 422 258 422 193 l 587 258 q 568 136 587 188 q 514 50 549 84 q 432 0 479 16 q 329 -17 385 -17 q 116 76 189 -17 q 43 366 43 169 q 115 655 43 562 q 323 747 188 747 m 323 611 q 247 568 271 611 q 218 444 222 524 l 412 444 q 391 568 412 524 q 323 611 370 611 z "},"f":{"ha":379,"x_min":12,"x_max":379,"o":"m 258 1015 q 290 1014 273 1015 q 323 1010 307 1013 q 354 1005 339 1008 q 379 999 369 1002 l 379 875 l 311 875 q 253 815 253 875 l 253 730 l 379 730 l 379 590 l 253 590 l 253 0 l 86 0 l 86 590 l 12 590 l 12 730 l 86 730 l 86 819 q 94 891 86 856 q 122 954 102 926 q 175 998 142 981 q 258 1015 208 1015 z "},"g":{"ha":696,"x_min":22,"x_max":688,"o":"m 675 852 q 644 729 675 774 q 557 667 612 684 q 600 593 585 635 q 615 498 615 550 q 597 396 615 442 q 546 318 580 351 q 461 268 512 286 q 345 250 410 250 l 275 250 q 239 237 253 250 q 225 205 225 224 q 237 175 225 186 q 268 163 249 163 l 521 163 q 586 150 555 163 q 638 111 616 136 q 674 51 661 86 q 688 -28 688 16 q 669 -120 688 -79 q 618 -192 650 -162 q 544 -237 587 -221 q 452 -253 500 -253 l 183 -253 q 121 -241 150 -253 q 70 -206 92 -229 q 35 -153 47 -184 q 22 -85 22 -122 q 49 6 22 -31 q 115 64 75 42 q 73 108 88 81 q 57 174 57 136 q 65 217 57 197 q 89 254 74 237 q 123 282 103 270 q 164 301 142 294 q 98 384 120 334 q 75 498 75 433 q 93 601 75 555 q 144 679 110 646 q 229 729 178 711 q 345 747 279 747 q 410 742 379 747 q 467 726 441 737 q 501 759 488 741 q 523 795 515 777 q 534 828 531 812 q 538 852 538 843 l 675 852 m 257 8 q 231 3 243 8 q 210 -12 219 -3 q 196 -33 201 -21 q 191 -58 191 -45 q 210 -108 191 -90 q 257 -126 229 -126 l 444 -126 q 498 -108 476 -126 q 519 -58 519 -90 q 500 -9 519 -27 q 452 8 480 8 l 257 8 m 345 624 q 268 591 294 624 q 241 498 241 557 q 268 407 241 440 q 345 374 294 374 q 423 407 397 374 q 449 498 449 440 q 423 591 449 557 q 345 624 397 624 z "},"h":{"ha":696,"x_min":77,"x_max":619,"o":"m 243 653 l 249 653 q 278 687 261 670 q 317 717 295 704 q 366 739 338 730 q 425 747 393 747 q 503 735 467 747 q 564 694 538 722 q 605 622 590 667 q 619 513 619 577 l 619 0 l 453 0 l 453 467 q 427 567 453 537 q 357 596 401 596 q 311 585 332 596 q 275 554 290 574 q 251 507 260 534 q 243 450 243 481 l 243 0 l 77 0 l 77 1004 l 243 1004 l 243 653 z "},"i":{"ha":317,"x_min":75,"x_max":241,"o":"m 241 0 l 75 0 l 75 730 l 241 730 l 241 0 m 241 852 l 75 852 l 75 1004 l 241 1004 l 241 852 z "},"j":{"ha":317,"x_min":-52,"x_max":241,"o":"m 241 -57 q 234 -129 241 -94 q 207 -191 226 -163 q 155 -236 187 -219 q 72 -253 122 -253 q 39 -252 56 -253 q 6 -248 22 -250 q -26 -242 -11 -245 q -52 -236 -41 -239 l -52 -113 l 9 -113 q 59 -96 42 -113 q 75 -46 75 -79 l 75 730 l 241 730 l 241 -57 m 241 852 l 75 852 l 75 1004 l 241 1004 l 241 852 z "},"k":{"ha":633,"x_min":75,"x_max":635,"o":"m 241 440 l 446 730 l 624 730 l 407 433 l 635 0 l 450 0 l 302 302 l 241 228 l 241 0 l 75 0 l 75 1004 l 241 1004 l 241 440 z "},"l":{"ha":317,"x_min":75,"x_max":241,"o":"m 241 0 l 75 0 l 75 1004 l 241 1004 l 241 0 z "},"m":{"ha":1013,"x_min":77,"x_max":940,"o":"m 760 747 q 832 735 799 747 q 889 696 865 724 q 926 624 913 669 q 940 513 940 578 l 940 0 l 774 0 l 774 467 q 753 567 774 537 q 692 596 733 596 q 653 586 671 596 q 621 559 635 576 q 598 516 606 541 q 590 461 590 492 l 590 0 l 427 0 l 427 467 q 406 567 427 537 q 343 596 385 596 q 303 586 321 596 q 272 556 285 575 q 251 510 258 536 q 243 450 243 483 l 243 0 l 77 0 l 77 730 l 215 730 l 232 640 l 240 640 q 271 681 253 661 q 310 715 288 701 q 358 739 332 730 q 414 747 384 747 q 509 723 469 747 q 571 640 549 698 q 604 681 585 661 q 646 715 623 701 q 699 739 670 730 q 760 747 727 747 z "},"n":{"ha":696,"x_min":77,"x_max":619,"o":"m 425 747 q 503 735 467 747 q 564 694 538 722 q 605 622 590 667 q 619 513 619 577 l 619 0 l 453 0 l 453 467 q 427 567 453 537 q 357 596 401 596 q 311 585 332 596 q 275 554 290 574 q 251 507 260 534 q 243 450 243 481 l 243 0 l 77 0 l 77 730 l 215 730 l 232 640 l 240 640 q 273 681 254 661 q 314 715 291 701 q 365 739 337 730 q 425 747 393 747 z "},"o":{"ha":696,"x_min":57,"x_max":640,"o":"m 349 747 q 567 655 494 747 q 640 366 640 562 q 567 76 640 169 q 349 -17 494 -17 q 130 76 203 -17 q 57 366 57 169 q 130 655 57 562 q 349 747 203 747 m 349 607 q 257 552 284 607 q 231 392 231 496 l 231 339 q 257 179 231 234 q 349 123 284 123 q 440 179 413 123 q 467 339 467 234 l 467 392 q 440 552 467 496 q 349 607 413 607 z "},"p":{"ha":696,"x_min":77,"x_max":639,"o":"m 404 747 q 502 725 458 747 q 576 655 545 702 q 623 536 606 608 q 639 364 639 464 q 622 193 639 264 q 574 74 604 121 q 503 5 544 27 q 412 -17 461 -17 q 314 7 357 -17 q 250 75 270 31 l 243 75 l 243 -240 l 77 -240 l 77 730 l 215 730 l 232 640 l 239 640 q 309 721 267 694 q 404 747 352 747 m 354 596 q 268 543 294 596 q 243 392 243 490 l 243 342 q 268 189 243 243 q 354 135 294 135 q 440 188 414 135 q 465 339 465 240 l 465 392 q 440 543 465 490 q 354 596 414 596 z "},"q":{"ha":696,"x_min":57,"x_max":619,"o":"m 464 640 l 481 730 l 619 730 l 619 -240 l 453 -240 l 453 75 l 446 75 q 382 7 426 31 q 283 -17 338 -17 q 193 5 235 -17 q 122 74 152 27 q 74 193 92 121 q 57 364 57 264 q 73 536 57 464 q 120 655 90 608 q 194 725 151 702 q 292 747 237 747 q 387 721 344 747 q 457 640 430 694 l 464 640 m 453 392 q 428 543 453 490 q 342 596 402 596 q 256 543 281 596 q 231 392 231 490 l 231 339 q 256 188 231 240 q 342 135 281 135 q 428 189 402 135 q 453 342 453 243 l 453 392 z "},"r":{"ha":443,"x_min":77,"x_max":439,"o":"m 370 747 q 398 745 385 747 q 420 741 411 743 q 439 736 431 739 l 439 575 l 379 575 q 327 567 352 575 q 284 539 302 559 q 254 488 265 520 q 243 407 243 456 l 243 0 l 77 0 l 77 730 l 215 730 l 235 624 l 243 624 q 260 669 250 647 q 286 708 271 691 q 321 736 301 726 q 370 747 342 747 z "},"s":{"ha":633,"x_min":46,"x_max":583,"o":"m 318 747 q 415 734 370 747 q 494 695 460 720 q 547 632 528 669 q 566 549 566 595 q 565 528 566 537 q 564 517 564 518 l 395 517 q 373 588 395 566 q 313 611 351 611 q 250 592 274 611 q 227 539 227 572 q 242 497 227 513 q 282 470 257 481 q 339 452 307 460 q 405 434 372 444 q 470 410 438 425 q 528 372 503 396 q 568 311 553 347 q 583 220 583 274 q 563 107 583 153 q 506 35 542 62 q 419 -5 469 7 q 311 -17 370 -17 q 199 0 248 -17 q 116 47 150 16 q 64 120 81 77 q 46 215 46 163 l 46 220 q 47 227 46 224 q 47 232 47 229 l 216 232 l 216 222 q 226 174 217 193 q 250 142 235 154 q 281 124 264 130 q 317 119 299 119 q 350 123 333 119 q 382 137 368 127 q 405 161 396 146 q 414 199 414 176 q 398 245 414 228 q 358 275 383 263 q 301 295 333 287 q 235 314 269 304 q 170 338 202 324 q 113 376 138 353 q 72 436 87 400 q 57 525 57 472 q 77 622 57 581 q 133 692 98 664 q 216 733 168 720 q 318 747 263 747 z "},"t":{"ha":379,"x_min":12,"x_max":358,"o":"m 253 730 l 358 730 l 358 590 l 253 590 l 253 183 q 311 123 253 123 l 358 123 l 358 0 q 337 -6 349 -3 q 311 -12 325 -9 q 284 -16 298 -14 q 258 -17 271 -17 q 175 0 208 -17 q 122 45 142 17 q 94 107 102 73 q 86 179 86 142 l 86 590 l 12 590 l 12 730 l 86 730 l 111 936 l 253 936 l 253 730 z "},"u":{"ha":696,"x_min":77,"x_max":619,"o":"m 619 0 l 481 0 l 464 90 l 456 90 q 423 49 441 68 q 382 15 405 30 q 331 -8 359 1 q 271 -17 303 -17 q 193 -4 229 -17 q 132 36 157 8 q 91 109 106 64 q 77 218 77 154 l 77 730 l 243 730 l 243 264 q 268 164 243 193 q 339 135 292 135 q 384 146 363 135 q 420 176 405 157 q 444 221 435 195 q 453 278 453 248 l 453 730 l 619 730 l 619 0 z "},"v":{"ha":633,"x_min":5,"x_max":628,"o":"m 401 0 l 232 0 l 5 730 l 180 730 l 275 416 q 282 391 278 406 q 289 358 286 376 q 297 322 293 341 q 304 286 300 304 q 321 197 312 244 l 326 197 q 340 283 332 241 q 346 319 342 300 q 353 355 350 338 q 360 389 357 373 q 368 416 364 404 l 461 730 l 628 730 l 401 0 z "},"w":{"ha":886,"x_min":1,"x_max":885,"o":"m 708 0 l 541 0 l 468 349 q 458 408 463 376 q 452 467 454 439 q 447 529 449 498 l 439 529 q 434 468 437 499 q 427 410 431 441 q 418 350 423 378 l 347 0 l 179 0 l 1 730 l 168 730 l 237 431 q 251 353 245 393 q 260 279 257 313 q 267 201 264 239 l 272 201 q 279 276 275 237 q 289 350 283 309 q 302 429 295 390 l 366 730 l 532 730 l 595 428 q 606 362 600 401 q 616 288 611 324 q 625 201 621 246 l 631 201 q 642 284 636 243 q 654 358 648 319 q 667 428 660 397 l 730 730 l 885 730 l 708 0 z "},"x":{"ha":633,"x_min":7,"x_max":627,"o":"m 418 382 l 627 0 l 439 0 l 315 241 l 309 241 q 247 121 278 182 q 184 0 216 60 l 7 0 l 218 378 l 24 730 l 212 730 q 266 624 239 678 q 321 518 292 569 l 328 518 q 383 624 355 569 q 436 730 410 678 l 615 730 l 418 382 z "},"y":{"ha":633,"x_min":5,"x_max":628,"o":"m 428 37 q 388 -75 410 -22 q 334 -167 365 -127 q 263 -230 303 -207 q 170 -253 222 -253 q 90 -247 119 -253 q 61 -240 61 -241 l 61 -113 l 136 -113 q 203 -86 172 -113 q 249 0 234 -60 l 5 730 l 182 730 l 292 387 q 306 334 298 366 q 318 271 313 302 q 330 197 325 235 l 336 197 q 347 268 341 233 q 358 330 353 298 q 371 386 364 362 l 461 730 l 628 730 l 428 37 z "},"z":{"ha":570,"x_min":25,"x_max":545,"o":"m 534 661 l 250 140 l 545 140 l 545 0 l 25 0 l 25 71 l 309 590 l 41 590 l 41 730 l 534 730 l 534 661 z "},"{":{"ha":443,"x_min":33,"x_max":414,"o":"m 414 914 q 376 911 395 914 q 341 898 357 907 q 315 872 325 889 q 304 829 304 856 q 300 693 304 760 q 294 557 296 627 q 285 494 293 522 q 259 447 277 466 q 213 417 241 427 q 144 407 185 407 l 144 393 q 213 383 185 393 q 258 354 241 373 q 284 306 276 334 q 294 243 293 278 q 300 106 296 173 q 304 -29 304 40 q 315 -72 304 -56 q 340 -98 325 -89 q 376 -111 356 -107 q 414 -114 395 -114 l 414 -221 q 311 -214 360 -221 q 223 -184 261 -206 q 163 -122 186 -162 q 140 -16 140 -81 l 140 253 q 131 292 140 276 q 105 318 121 309 q 71 332 90 328 q 33 336 52 336 l 33 464 q 71 468 52 464 q 105 482 90 473 q 131 508 121 492 q 140 547 140 524 l 140 815 q 163 921 140 881 q 223 984 186 962 q 311 1013 261 1006 q 414 1021 360 1021 l 414 914 z "},"|":{"ha":319,"x_min":97,"x_max":222,"o":"m 222 -240 l 97 -240 l 97 1004 l 222 1004 l 222 -240 z "},"}":{"ha":443,"x_min":29,"x_max":410,"o":"m 29 1021 q 132 1013 83 1021 q 219 984 182 1006 q 280 921 257 962 q 302 815 302 881 l 302 547 q 312 508 302 524 q 337 482 322 492 q 372 468 353 473 q 410 464 391 464 l 410 336 q 372 332 391 336 q 337 318 353 328 q 312 292 322 309 q 302 253 302 276 l 302 -16 q 280 -122 302 -81 q 219 -184 257 -162 q 132 -214 182 -206 q 29 -221 83 -221 l 29 -114 q 67 -111 48 -114 q 103 -98 87 -107 q 129 -72 119 -89 q 139 -29 139 -56 q 143 106 139 40 q 149 243 146 173 q 158 306 150 278 q 184 354 167 334 q 230 383 202 373 q 298 393 258 393 l 298 407 q 230 417 258 407 q 184 447 202 427 q 158 494 166 466 q 149 557 149 522 q 143 693 146 627 q 139 829 139 760 q 129 872 139 856 q 102 898 119 889 q 67 911 86 907 q 29 914 47 914 l 29 1021 z "},"~":{"ha":665,"x_min":37,"x_max":628,"o":"m 628 392 q 585 341 610 363 q 532 306 564 321 q 457 290 500 290 q 394 303 424 290 q 334 333 363 317 q 273 362 304 349 q 208 375 243 375 q 139 359 170 375 q 85 324 109 343 q 37 273 58 302 l 37 440 q 80 491 55 469 q 134 526 102 510 q 208 542 165 542 q 272 529 241 542 q 332 499 302 515 q 392 470 361 484 q 457 457 422 457 q 526 473 494 457 q 580 507 557 488 q 628 558 607 530 l 628 392 z "},"€":{"ha":633,"x_min":14,"x_max":603,"o":"m 500 970 q 552 966 526 970 q 603 956 579 963 l 603 817 q 514 829 562 829 q 430 816 469 829 q 361 778 392 802 q 307 717 330 753 q 269 637 284 682 l 519 637 l 519 525 l 249 525 q 248 500 248 513 l 248 452 q 249 428 248 439 l 519 428 l 519 315 l 269 315 q 307 235 284 271 q 361 175 330 199 q 430 137 392 150 q 514 123 469 123 q 603 136 562 123 l 603 -1 q 553 -13 578 -9 q 500 -17 528 -17 q 356 6 422 -17 q 239 72 290 29 q 151 177 187 115 q 97 315 115 238 l 14 315 l 14 428 l 82 428 q 81 452 81 439 l 81 500 q 82 525 81 513 l 14 525 l 14 637 l 97 637 q 151 776 115 715 q 239 881 187 838 q 356 947 290 924 q 500 970 422 970 z "},"‚":{"ha":317,"x_min":62,"x_max":254,"o":"m 254 17 l 163 -216 l 62 -216 l 139 0 l 62 0 l 62 191 l 254 191 l 254 17 z "},"ƒ":{"ha":633,"x_min":26,"x_max":621,"o":"m 503 1015 q 534 1014 517 1015 q 567 1010 551 1013 q 597 1005 583 1008 q 621 999 611 1002 l 603 875 l 534 875 q 489 860 506 875 q 468 815 472 845 l 449 676 l 575 676 l 555 536 l 429 536 l 346 -57 q 327 -129 340 -94 q 290 -191 314 -163 q 230 -236 266 -219 q 144 -253 195 -253 q 114 -252 130 -253 q 81 -248 97 -250 q 51 -242 65 -245 q 26 -236 37 -239 l 45 -113 l 113 -113 q 158 -97 141 -113 q 179 -53 175 -82 l 262 536 l 161 536 l 180 676 l 282 676 l 301 819 q 320 891 307 856 q 357 954 334 926 q 417 998 381 981 q 503 1015 452 1015 z "},"„":{"ha":570,"x_min":62,"x_max":509,"o":"m 509 17 l 416 -216 l 317 -216 l 393 0 l 317 0 l 317 191 l 509 191 l 509 17 m 254 17 l 163 -216 l 62 -216 l 139 0 l 62 0 l 62 191 l 254 191 l 254 17 z "},"…":{"ha":1139,"x_min":94,"x_max":1044,"o":"m 1044 0 l 852 0 l 852 191 l 1044 191 l 1044 0 m 286 0 l 94 0 l 94 191 l 286 191 l 286 0 m 665 0 l 473 0 l 473 191 l 665 191 l 665 0 z "},"†":{"ha":633,"x_min":35,"x_max":597,"o":"m 367 699 l 597 722 l 597 566 l 367 590 l 395 -240 l 236 -240 l 264 590 l 35 566 l 35 722 l 264 699 l 240 953 l 390 953 l 367 699 z "},"‡":{"ha":633,"x_min":35,"x_max":597,"o":"m 367 699 l 597 722 l 597 566 l 367 590 l 395 361 l 367 126 l 597 151 l 597 -5 l 367 18 l 390 -240 l 240 -240 l 264 18 l 35 -5 l 35 151 l 264 126 l 236 361 l 264 590 l 35 566 l 35 722 l 264 699 l 240 953 l 390 953 l 367 699 z "},"ˆ":{"ha":379,"x_min":0,"x_max":374,"o":"m 374 817 l 249 817 l 187 913 l 125 817 l 0 817 l 119 1004 l 256 1004 l 374 817 z "},"‰":{"ha":1139,"x_min":3,"x_max":1139,"o":"m 275 0 l 179 0 l 488 953 l 585 953 l 275 0 m 593 485 q 665 473 633 485 q 719 432 696 460 q 752 354 741 403 q 764 233 764 306 q 752 113 764 161 q 719 36 741 64 q 665 -5 696 7 q 593 -17 633 -17 q 521 -5 553 -17 q 468 36 490 7 q 434 113 446 65 q 422 233 422 161 q 434 354 422 306 q 468 432 446 403 q 521 473 490 460 q 593 485 553 485 m 593 383 q 569 376 578 383 q 555 351 560 368 q 548 308 550 334 q 546 244 546 281 l 546 224 q 548 160 546 186 q 555 117 550 134 q 569 92 560 100 q 593 85 578 85 q 617 92 608 85 q 631 117 626 100 q 638 160 636 134 q 640 224 640 186 l 640 244 q 638 308 640 281 q 631 351 636 334 q 617 376 626 368 q 593 383 608 383 m 174 970 q 245 958 214 970 q 299 916 277 945 q 333 839 321 887 q 345 718 345 790 q 333 597 345 646 q 299 520 321 549 q 245 480 277 492 q 174 468 214 468 q 102 480 134 468 q 48 521 70 492 q 14 598 26 550 q 3 718 3 646 q 14 839 3 790 q 48 916 26 887 q 102 958 70 945 q 174 970 134 970 m 174 868 q 150 861 159 868 q 135 836 140 853 q 128 793 130 819 q 126 729 126 766 l 126 708 q 128 644 126 671 q 135 601 130 618 q 150 577 140 585 q 174 570 159 570 q 197 577 188 570 q 212 601 207 585 q 219 644 217 618 q 221 708 221 671 l 221 729 q 219 793 221 766 q 212 836 217 819 q 197 861 207 853 q 174 868 188 868 m 968 485 q 1040 473 1008 485 q 1094 432 1072 460 q 1127 354 1116 403 q 1139 233 1139 306 q 1127 113 1139 161 q 1094 36 1116 64 q 1040 -5 1072 7 q 968 -17 1008 -17 q 896 -5 928 -17 q 843 36 865 7 q 809 113 821 65 q 798 233 798 161 q 809 354 798 306 q 843 432 821 403 q 896 473 865 460 q 968 485 928 485 m 968 383 q 944 376 954 383 q 930 351 935 368 q 923 308 925 334 q 921 244 921 281 l 921 224 q 923 160 921 186 q 930 117 925 134 q 944 92 935 100 q 968 85 954 85 q 992 92 983 85 q 1006 117 1001 100 q 1013 160 1011 134 q 1015 224 1015 186 l 1015 244 q 1013 308 1015 281 q 1006 351 1011 334 q 992 376 1001 368 q 968 383 983 383 z "},"Š":{"ha":760,"x_min":41,"x_max":707,"o":"m 379 970 q 499 954 443 970 q 597 903 555 937 q 664 815 640 869 q 689 689 689 762 l 689 672 l 507 672 l 507 685 q 473 781 507 745 q 378 817 439 817 q 278 788 313 817 q 244 715 244 760 q 264 656 244 680 q 317 616 284 633 q 391 587 349 600 q 475 559 432 574 q 560 525 519 545 q 634 474 602 505 q 687 397 667 443 q 707 286 707 352 q 682 146 707 204 q 613 53 657 89 q 507 0 568 16 q 371 -17 445 -17 q 245 2 305 -17 q 140 58 186 20 q 68 151 95 95 q 41 279 41 206 q 42 296 41 288 q 43 310 43 304 l 228 310 q 227 300 228 308 q 227 288 227 293 q 237 226 227 254 q 267 178 247 198 q 314 147 286 158 q 379 136 342 136 q 447 146 419 136 q 492 172 475 156 q 516 208 509 188 q 524 249 524 228 q 511 307 524 283 q 475 348 498 331 q 424 378 453 366 q 361 402 394 391 q 292 425 328 413 q 224 451 257 436 q 161 488 191 467 q 109 538 132 509 q 74 608 87 568 q 61 703 61 648 q 87 821 61 770 q 157 904 113 871 q 258 954 201 937 q 379 970 316 970 m 449 1039 l 313 1039 l 193 1227 l 318 1227 l 380 1131 l 442 1227 l 567 1227 l 449 1039 z "},"‹":{"ha":379,"x_min":26,"x_max":342,"o":"m 192 453 l 342 175 l 215 175 l 26 453 l 215 730 l 342 730 l 192 453 z "},"Œ":{"ha":1139,"x_min":41,"x_max":1100,"o":"m 41 476 q 63 695 41 602 q 126 849 85 788 q 226 940 168 910 q 358 970 285 970 q 474 944 422 970 q 567 867 527 919 l 567 953 l 1090 953 l 1090 794 l 745 794 l 745 567 l 1031 567 l 1031 408 l 745 408 l 745 158 l 1100 158 l 1100 0 l 567 0 l 567 85 q 474 8 527 33 q 358 -17 422 -17 q 226 13 285 -17 q 126 104 168 43 q 63 257 85 165 q 41 476 41 350 m 225 441 q 236 302 225 360 q 268 207 246 244 q 321 153 289 170 q 395 136 353 136 q 469 153 437 136 q 523 207 501 170 q 555 302 544 244 q 566 441 566 360 l 566 511 q 555 651 566 593 q 523 746 544 709 q 469 800 501 783 q 395 817 437 817 q 321 800 353 817 q 268 746 289 783 q 236 651 246 709 q 225 511 225 593 l 225 441 z "},"Ž":{"ha":696,"x_min":22,"x_max":667,"o":"m 657 884 l 265 158 l 667 158 l 667 0 l 22 0 l 22 68 l 414 794 l 52 794 l 52 953 l 657 953 l 657 884 m 417 1039 l 281 1039 l 161 1227 l 286 1227 l 349 1131 l 410 1227 l 535 1227 l 417 1039 z "},"‘":{"ha":317,"x_min":62,"x_max":254,"o":"m 178 736 l 254 736 l 254 546 l 62 546 l 62 720 l 154 953 l 254 953 l 178 736 z "},"’":{"ha":317,"x_min":62,"x_max":254,"o":"m 254 779 l 163 546 l 62 546 l 139 762 l 62 762 l 62 953 l 254 953 l 254 779 z "},"“":{"ha":570,"x_min":61,"x_max":507,"o":"m 431 736 l 507 736 l 507 546 l 315 546 l 315 720 l 407 953 l 507 953 l 431 736 m 176 736 l 253 736 l 253 546 l 61 546 l 61 720 l 153 953 l 253 953 l 176 736 z "},"”":{"ha":570,"x_min":62,"x_max":509,"o":"m 509 779 l 416 546 l 317 546 l 393 762 l 317 762 l 317 953 l 509 953 l 509 779 m 254 779 l 163 546 l 62 546 l 139 762 l 62 762 l 62 953 l 254 953 l 254 779 z "},"•":{"ha":399,"x_min":32,"x_max":367,"o":"m 199 648 q 264 635 233 648 q 318 598 295 621 q 354 544 340 575 q 367 478 367 513 q 354 412 367 443 q 318 357 340 380 q 264 320 295 334 q 199 306 233 306 q 134 320 164 306 q 80 357 103 334 q 45 412 58 380 q 32 478 32 443 q 45 544 32 513 q 80 598 58 575 q 134 635 103 621 q 199 648 164 648 z "},"–":{"ha":633,"x_min":0,"x_max":633,"o":"m 633 307 l 0 307 l 0 443 l 633 443 l 633 307 z "},"—":{"ha":1139,"x_min":0,"x_max":1139,"o":"m 1139 307 l 0 307 l 0 443 l 1139 443 l 1139 307 z "},"˜":{"ha":379,"x_min":-45,"x_max":422,"o":"m 422 1004 q 415 946 422 976 q 390 891 407 916 q 348 850 374 866 q 285 835 321 835 q 237 843 260 835 q 192 861 214 851 q 147 878 170 870 q 102 886 125 886 q 65 875 79 886 q 47 835 52 863 l -45 835 q -37 893 -45 863 q -13 948 -29 924 q 29 988 3 972 q 92 1004 55 1004 q 140 996 117 1004 q 186 979 163 988 q 231 961 208 969 q 277 953 253 953 q 312 964 298 953 q 330 1004 326 975 l 422 1004 z "},"™":{"ha":1139,"x_min":107,"x_max":1014,"o":"m 1014 392 l 914 392 l 914 799 l 908 799 l 817 392 l 724 392 l 633 799 l 627 799 l 627 392 l 534 392 l 534 953 l 689 953 l 777 559 l 782 559 l 869 953 l 1014 953 l 1014 392 m 490 860 l 350 860 l 350 392 l 245 392 l 245 860 l 107 860 l 107 953 l 490 953 l 490 860 z "},"š":{"ha":633,"x_min":46,"x_max":583,"o":"m 318 747 q 415 734 370 747 q 494 695 460 720 q 547 632 528 669 q 566 549 566 595 q 565 528 566 537 q 564 517 564 518 l 395 517 q 373 588 395 566 q 313 611 351 611 q 250 592 274 611 q 227 539 227 572 q 242 497 227 513 q 282 470 257 481 q 339 452 307 460 q 405 434 372 444 q 470 410 438 425 q 528 372 503 396 q 568 311 553 347 q 583 220 583 274 q 563 107 583 153 q 506 35 542 62 q 419 -5 469 7 q 311 -17 370 -17 q 199 0 248 -17 q 116 47 150 16 q 64 120 81 77 q 46 215 46 163 l 46 220 q 47 227 46 224 q 47 232 47 229 l 216 232 l 216 222 q 226 174 217 193 q 250 142 235 154 q 281 124 264 130 q 317 119 299 119 q 350 123 333 119 q 382 137 368 127 q 405 161 396 146 q 414 199 414 176 q 398 245 414 228 q 358 275 383 263 q 301 295 333 287 q 235 314 269 304 q 170 338 202 324 q 113 376 138 353 q 72 436 87 400 q 57 525 57 472 q 77 622 57 581 q 133 692 98 664 q 216 733 168 720 q 318 747 263 747 m 386 817 l 250 817 l 130 1004 l 255 1004 l 317 908 l 379 1004 l 504 1004 l 386 817 z "},"›":{"ha":379,"x_min":37,"x_max":353,"o":"m 353 453 l 164 175 l 37 175 l 187 453 l 37 730 l 164 730 l 353 453 z "},"œ":{"ha":1075,"x_min":57,"x_max":1013,"o":"m 749 747 q 947 655 881 747 q 1013 366 1013 562 l 1013 323 l 642 323 q 648 237 642 275 q 668 173 654 199 q 702 133 681 146 q 754 119 724 119 q 822 156 797 119 q 847 258 847 193 l 1013 258 q 993 136 1013 188 q 939 50 974 84 q 857 0 905 16 q 754 -17 810 -17 q 640 5 689 -17 q 554 74 590 27 q 467 5 517 27 q 349 -17 416 -17 q 130 76 203 -17 q 57 366 57 169 q 130 655 57 562 q 349 747 203 747 q 466 725 416 747 q 553 656 517 703 q 637 725 589 703 q 749 747 686 747 m 349 607 q 257 552 284 607 q 231 392 231 496 l 231 339 q 257 179 231 234 q 349 123 284 123 q 440 179 413 123 q 467 339 467 234 l 467 392 q 440 552 467 496 q 349 607 413 607 m 749 611 q 671 567 695 611 q 643 444 647 524 l 838 444 q 816 568 838 524 q 749 611 795 611 z "},"ž":{"ha":570,"x_min":25,"x_max":545,"o":"m 534 661 l 250 140 l 545 140 l 545 0 l 25 0 l 25 71 l 309 590 l 41 590 l 41 730 l 534 730 l 534 661 m 354 817 l 218 817 l 98 1004 l 223 1004 l 286 908 l 347 1004 l 472 1004 l 354 817 z "},"Ÿ":{"ha":760,"x_min":0,"x_max":760,"o":"m 469 359 l 469 0 l 292 0 l 292 359 l 0 953 l 187 953 l 382 534 l 387 534 l 581 953 l 760 953 l 469 359 m 328 1075 l 189 1075 l 189 1227 l 328 1227 l 328 1075 m 571 1075 l 432 1075 l 432 1227 l 571 1227 l 571 1075 z "}," ":{"ha":317,"x_min":0,"x_max":0,"o":""},"¡":{"ha":379,"x_min":83,"x_max":296,"o":"m 296 -222 l 83 -222 l 132 457 l 245 457 l 296 -222 m 286 541 l 94 541 l 94 730 l 286 730 l 286 541 z "},"¢":{"ha":633,"x_min":57,"x_max":583,"o":"m 364 857 q 455 832 414 852 q 524 777 496 812 q 568 689 553 741 q 583 567 583 637 l 429 567 q 364 717 429 693 l 364 233 q 435 386 435 254 l 583 386 q 568 262 583 315 q 524 174 553 210 q 455 119 496 138 q 364 96 414 100 l 364 -68 l 288 -68 l 288 97 q 113 203 168 111 q 57 476 57 296 q 115 750 57 658 q 288 856 172 843 l 288 1004 l 364 1004 l 364 857 m 288 715 q 231 645 248 699 q 214 503 214 591 l 214 450 q 231 310 214 363 q 288 239 249 256 l 288 715 z "},"£":{"ha":633,"x_min":12,"x_max":602,"o":"m 350 970 q 453 953 407 970 q 533 902 500 936 q 584 818 566 868 q 602 700 602 767 l 602 682 l 436 682 l 436 718 q 413 801 436 773 q 350 829 390 829 q 289 805 311 829 q 267 729 267 780 l 267 541 l 433 541 l 433 400 l 265 400 l 250 150 l 591 150 l 591 0 l 28 0 l 28 150 l 98 150 l 98 400 l 12 400 l 12 541 l 98 541 l 98 693 q 116 814 98 762 q 165 901 133 866 q 244 952 198 935 q 350 970 291 970 z "},"¤":{"ha":633,"x_min":0,"x_max":632,"o":"m 317 802 q 409 783 365 802 q 490 733 454 765 l 549 791 l 632 705 l 564 637 q 593 560 583 601 q 603 475 603 519 q 592 388 603 429 q 562 310 581 347 l 632 241 l 547 157 l 489 215 q 409 167 452 184 q 317 150 365 150 q 224 167 268 150 q 143 215 180 184 l 85 157 l 0 241 l 69 311 q 41 388 51 347 q 31 475 31 430 q 68 636 31 564 l 0 705 l 83 791 l 142 733 q 222 783 178 765 q 317 802 267 802 m 317 676 q 251 661 282 676 q 197 618 220 645 q 161 554 174 591 q 147 475 147 517 q 161 397 147 433 q 197 334 174 361 q 251 291 220 307 q 317 275 282 275 q 382 291 351 275 q 435 334 412 307 q 471 397 458 361 q 485 475 485 433 q 471 554 485 517 q 435 618 458 591 q 382 661 412 645 q 317 676 351 676 z "},"¥":{"ha":633,"x_min":5,"x_max":627,"o":"m 449 534 l 595 534 l 595 421 l 400 421 l 400 325 l 595 325 l 595 212 l 400 212 l 400 0 l 233 0 l 233 212 l 39 212 l 39 325 l 232 325 l 232 422 l 39 422 l 39 534 l 184 534 l 5 953 l 187 953 l 318 587 l 323 587 l 453 953 l 627 953 l 449 534 z "},"¦":{"ha":319,"x_min":97,"x_max":222,"o":"m 222 488 l 97 488 l 97 1004 l 222 1004 l 222 488 m 222 -240 l 97 -240 l 97 277 l 222 277 l 222 -240 z "},"§":{"ha":633,"x_min":52,"x_max":599,"o":"m 332 970 q 429 956 384 970 q 508 917 474 943 q 560 855 541 892 q 579 771 579 818 q 578 750 579 760 q 578 739 578 741 l 408 739 q 386 811 408 788 q 326 833 364 833 q 264 814 288 833 q 240 761 240 795 q 255 701 240 726 q 296 657 271 676 q 354 621 321 637 q 419 588 386 605 q 485 550 453 570 q 543 502 517 530 q 584 435 568 473 q 599 345 599 397 q 576 236 599 288 q 509 146 553 184 q 559 73 540 115 q 579 -31 579 31 q 559 -128 579 -86 q 504 -197 539 -170 q 421 -239 469 -225 q 318 -253 374 -253 q 221 -239 266 -253 q 142 -200 176 -226 q 90 -138 109 -175 q 71 -54 71 -101 q 71 -33 71 -43 q 72 -22 72 -24 l 241 -22 q 263 -94 241 -71 q 323 -117 286 -117 q 386 -97 362 -117 q 410 -45 410 -78 q 394 15 410 -9 q 354 60 379 40 q 296 96 328 79 q 230 129 264 112 q 165 167 197 146 q 107 215 133 187 q 67 282 82 243 q 52 372 52 320 q 75 480 52 427 q 142 571 98 532 q 90 644 110 602 q 71 747 71 686 q 91 845 71 803 q 145 914 111 886 q 228 956 180 942 q 332 970 276 970 m 244 498 q 223 462 232 481 q 215 421 215 442 q 232 350 215 379 q 275 297 248 320 q 336 255 302 274 q 404 216 370 236 q 426 254 418 233 q 435 296 435 274 q 418 367 435 337 q 374 419 401 396 q 313 460 347 441 q 244 498 279 479 z "},"¨":{"ha":379,"x_min":-1,"x_max":380,"o":"m 380 852 l 241 852 l 241 1004 l 380 1004 l 380 852 m 138 852 l -1 852 l -1 1004 l 138 1004 l 138 852 z "},"©":{"ha":839,"x_min":22,"x_max":817,"o":"m 419 970 q 586 935 512 970 q 711 836 659 900 q 789 680 762 771 q 817 476 817 589 q 789 273 817 363 q 711 117 762 182 q 586 18 659 53 q 419 -17 512 -17 q 253 18 326 -17 q 128 117 180 53 q 50 273 77 182 q 22 476 22 363 q 50 680 22 589 q 128 836 77 771 q 253 935 180 900 q 419 970 326 970 m 422 768 q 505 755 467 768 q 570 716 543 743 q 614 647 598 689 q 629 549 629 606 l 509 549 q 485 636 509 608 q 422 664 461 664 q 346 620 371 664 q 321 497 321 576 l 321 457 q 347 334 321 378 q 427 290 373 290 q 489 318 465 290 q 513 404 513 345 l 629 404 q 614 308 629 349 q 571 240 598 267 q 505 199 543 213 q 422 186 467 186 q 328 203 370 186 q 258 257 287 221 q 214 347 229 292 q 199 476 199 401 q 214 606 199 551 q 258 697 229 661 q 328 751 287 733 q 422 768 370 768 m 419 893 q 286 864 345 893 q 185 780 227 834 q 122 649 144 726 q 100 476 100 572 q 122 304 100 381 q 185 173 144 227 q 286 89 227 119 q 419 60 345 60 q 553 89 494 60 q 654 173 612 119 q 717 304 695 227 q 739 476 739 381 q 717 649 739 572 q 654 780 695 726 q 553 864 612 834 q 419 893 494 893 z "},"ª":{"ha":421,"x_min":20,"x_max":427,"o":"m 210 1019 q 337 981 296 1019 q 378 873 378 943 l 378 637 q 386 612 378 620 q 404 604 393 604 l 427 604 l 427 518 q 401 509 417 514 q 359 504 385 504 q 304 522 326 504 q 273 568 282 540 l 268 568 q 246 542 258 553 q 219 521 234 530 q 186 508 205 513 q 143 504 168 504 q 104 509 125 504 q 64 530 83 515 q 33 572 45 545 q 20 643 20 600 q 37 726 20 692 q 86 779 55 759 q 162 807 118 798 q 258 815 205 815 l 258 867 q 257 888 258 878 q 250 906 255 899 q 236 918 245 913 q 212 922 227 922 q 186 918 197 922 q 171 907 176 913 q 162 892 165 901 q 160 876 160 884 l 160 863 l 45 863 q 43 871 43 867 q 43 882 43 876 q 55 938 43 913 q 88 982 66 964 q 141 1009 110 1000 q 210 1019 172 1019 m 258 733 q 215 730 236 733 q 177 717 193 726 q 151 692 161 708 q 140 653 140 677 q 152 616 140 630 q 191 603 164 603 q 222 611 209 603 q 243 633 235 619 q 255 666 251 647 q 258 705 258 684 l 258 733 z "},"«":{"ha":633,"x_min":26,"x_max":596,"o":"m 446 453 l 596 175 l 469 175 l 281 453 l 469 730 l 596 730 l 446 453 m 192 453 l 342 175 l 215 175 l 26 453 l 215 730 l 342 730 l 192 453 z "},"¬":{"ha":665,"x_min":40,"x_max":618,"o":"m 618 260 l 473 260 l 473 486 l 40 486 l 40 643 l 618 643 l 618 260 z "},"­":{"ha":379,"x_min":22,"x_max":357,"o":"m 357 293 l 22 293 l 22 457 l 357 457 l 357 293 z "},"®":{"ha":839,"x_min":22,"x_max":817,"o":"m 419 970 q 586 935 512 970 q 711 836 659 900 q 789 680 762 771 q 817 476 817 589 q 789 273 817 363 q 711 117 762 182 q 586 18 659 53 q 419 -17 512 -17 q 253 18 326 -17 q 128 117 180 53 q 50 273 77 182 q 22 476 22 363 q 50 680 22 589 q 128 836 77 771 q 253 935 180 900 q 419 970 326 970 m 419 893 q 286 864 345 893 q 185 780 227 834 q 122 649 144 726 q 100 476 100 572 q 122 304 100 381 q 185 173 144 227 q 286 89 227 119 q 419 60 345 60 q 553 89 494 60 q 654 173 612 119 q 717 304 695 227 q 739 476 739 381 q 717 649 739 572 q 654 780 695 726 q 553 864 612 834 q 419 893 494 893 m 461 758 q 524 748 495 758 q 573 719 553 737 q 606 674 594 700 q 618 616 618 648 q 611 567 618 589 q 592 530 604 546 q 565 503 581 513 q 530 485 549 492 l 530 479 q 555 467 541 475 q 582 441 569 458 q 604 397 595 424 q 612 329 612 370 q 615 286 612 303 q 623 256 618 268 q 636 238 629 245 q 653 229 644 232 l 653 201 q 643 197 650 199 q 629 194 637 195 q 613 192 621 193 q 599 191 605 191 q 560 195 579 191 q 526 211 541 199 q 502 244 511 223 q 493 297 493 264 q 486 360 493 335 q 467 399 479 385 q 441 418 456 413 q 411 424 426 424 l 361 424 l 361 195 l 241 195 l 241 758 l 461 758 m 361 650 l 361 530 l 418 530 q 474 548 452 530 q 496 595 496 566 q 476 635 496 621 q 422 650 456 650 l 361 650 z "},"¯":{"ha":379,"x_min":12,"x_max":367,"o":"m 367 832 l 12 832 l 12 953 l 367 953 l 367 832 z "},"°":{"ha":555,"x_min":78,"x_max":472,"o":"m 275 970 q 352 954 316 970 q 415 912 388 939 q 457 849 441 885 q 472 772 472 813 q 457 695 472 731 q 415 632 441 659 q 352 590 388 606 q 275 575 316 575 q 198 590 234 575 q 135 632 162 606 q 93 695 109 659 q 78 772 78 731 q 93 849 78 813 q 135 912 109 885 q 198 954 162 939 q 275 970 234 970 m 275 873 q 235 866 254 873 q 202 844 216 858 q 180 812 189 831 q 172 772 172 793 q 180 732 172 751 q 202 700 189 713 q 235 677 216 686 q 275 669 254 669 q 315 677 296 669 q 347 700 333 686 q 369 732 361 713 q 376 772 376 751 q 369 812 376 793 q 347 844 361 831 q 315 866 333 858 q 275 873 296 873 z "},"±":{"ha":762,"x_min":94,"x_max":667,"o":"m 452 585 l 667 585 l 667 440 l 452 440 l 452 200 l 309 200 l 309 440 l 94 440 l 94 585 l 309 585 l 309 827 l 452 827 l 452 585 m 667 0 l 94 0 l 94 143 l 667 143 l 667 0 z "},"²":{"ha":379,"x_min":21,"x_max":351,"o":"m 193 1019 q 254 1011 226 1019 q 303 984 282 1002 q 336 938 324 966 q 349 869 349 909 q 329 777 349 819 q 280 697 309 735 q 219 623 252 660 q 160 547 186 587 l 351 547 l 351 444 l 21 444 l 21 469 q 30 531 21 503 q 54 585 39 559 q 88 633 69 610 q 126 679 107 656 q 168 727 148 703 q 202 773 187 750 q 225 820 216 796 q 233 871 233 844 q 231 889 233 880 q 224 905 229 898 q 211 918 219 913 q 189 922 202 922 q 167 916 176 922 q 152 900 158 910 q 143 875 146 889 q 140 846 140 861 l 140 807 l 31 807 q 28 819 29 812 q 26 844 26 829 q 40 924 26 891 q 77 979 54 958 q 130 1009 100 1000 q 193 1019 160 1019 z "},"³":{"ha":379,"x_min":20,"x_max":355,"o":"m 187 1019 q 252 1009 222 1019 q 303 979 281 999 q 336 929 324 959 q 347 861 347 900 q 328 786 347 814 q 277 736 308 757 q 333 685 310 720 q 355 599 355 651 q 343 529 355 560 q 309 477 331 498 q 257 445 288 456 q 191 433 227 433 q 117 446 149 433 q 64 480 85 458 q 31 535 42 503 q 20 607 20 567 l 20 628 l 134 628 l 134 604 q 147 548 134 568 q 189 529 161 529 q 227 547 212 529 q 241 604 241 564 q 236 644 241 628 q 223 668 231 659 q 204 681 215 677 q 183 685 194 685 l 149 685 l 149 778 l 184 778 q 218 798 203 778 q 232 857 232 817 q 220 908 232 892 q 189 924 209 924 q 155 907 168 924 q 143 854 143 890 l 143 832 l 29 832 l 29 861 q 41 926 29 897 q 73 976 52 956 q 123 1008 94 997 q 187 1019 153 1019 z "},"´":{"ha":379,"x_min":66,"x_max":354,"o":"m 354 1000 l 204 821 l 66 821 l 186 1004 l 353 1004 l 354 1000 z "},"µ":{"ha":696,"x_min":77,"x_max":619,"o":"m 619 0 l 481 0 l 464 90 l 456 90 q 428 49 444 68 q 393 15 412 30 q 350 -8 373 1 q 298 -17 326 -17 q 270 -14 284 -17 q 243 -5 256 -11 l 243 -240 l 77 -240 l 77 730 l 243 730 l 243 264 q 268 164 243 193 q 339 135 292 135 q 384 146 363 135 q 420 176 405 157 q 444 221 435 195 q 453 278 453 248 l 453 730 l 619 730 l 619 0 z "},"¶":{"ha":633,"x_min":25,"x_max":624,"o":"m 624 847 l 557 847 l 557 -240 l 444 -240 l 444 847 l 371 847 l 371 -240 l 260 -240 l 260 347 q 167 380 210 354 q 93 446 124 406 q 43 538 61 486 q 25 648 25 589 q 46 767 25 711 q 103 864 66 823 q 188 929 139 905 q 292 953 236 953 l 624 953 l 624 847 z "},"·":{"ha":317,"x_min":74,"x_max":241,"o":"m 241 386 l 74 386 l 74 568 l 241 568 l 241 386 z "},"¸":{"ha":379,"x_min":50,"x_max":318,"o":"m 208 -46 q 251 -54 231 -47 q 286 -71 271 -60 q 309 -99 300 -82 q 318 -140 318 -117 q 303 -197 318 -175 q 265 -232 288 -219 q 216 -249 242 -244 q 167 -253 189 -253 q 106 -250 137 -253 q 50 -241 75 -247 l 50 -174 l 149 -174 q 185 -167 172 -174 q 199 -140 199 -160 q 189 -115 199 -123 q 151 -107 178 -107 l 106 -107 l 121 16 l 215 16 l 208 -46 z "},"¹":{"ha":379,"x_min":45,"x_max":351,"o":"m 260 541 l 351 541 l 351 444 l 46 444 l 46 541 l 149 541 l 149 864 l 45 864 l 45 942 q 81 950 60 944 q 123 964 101 956 q 165 982 144 972 q 204 1004 186 993 l 260 1004 l 260 541 z "},"º":{"ha":415,"x_min":14,"x_max":408,"o":"m 211 1019 q 359 957 310 1019 q 408 761 408 894 q 359 565 408 627 q 211 503 310 503 q 63 565 112 503 q 14 761 14 627 q 63 957 14 894 q 211 1019 112 1019 m 211 918 q 154 883 170 918 q 138 779 138 847 l 138 743 q 154 640 138 675 q 211 604 170 604 q 268 640 252 604 q 285 743 285 675 l 285 779 q 268 883 285 847 q 211 918 252 918 z "},"»":{"ha":633,"x_min":37,"x_max":607,"o":"m 607 453 l 418 175 l 292 175 l 441 453 l 292 730 l 418 730 l 607 453 m 353 453 l 164 175 l 37 175 l 187 453 l 37 730 l 164 730 l 353 453 z "},"¼":{"ha":950,"x_min":45,"x_max":918,"o":"m 273 -17 l 180 -17 l 730 970 l 822 970 l 273 -17 m 260 489 l 351 489 l 351 393 l 46 393 l 46 489 l 149 489 l 149 812 l 45 812 l 45 890 q 81 898 60 892 q 123 912 101 904 q 165 931 144 920 q 204 953 186 941 l 260 953 l 260 489 m 803 575 q 772 467 791 522 q 731 364 753 412 q 690 278 710 316 q 656 220 669 240 l 750 220 l 750 271 q 769 310 758 286 q 790 360 780 334 q 809 411 800 386 q 822 453 817 435 l 860 453 l 860 220 l 918 220 l 918 123 l 860 123 l 860 0 l 750 0 l 750 123 l 551 123 l 551 208 q 592 291 572 246 q 630 382 612 335 q 664 479 648 430 q 693 575 680 528 l 803 575 z "},"½":{"ha":950,"x_min":45,"x_max":921,"o":"m 267 -17 l 174 -17 l 724 970 l 815 970 l 267 -17 m 260 489 l 351 489 l 351 393 l 46 393 l 46 489 l 149 489 l 149 812 l 45 812 l 45 890 q 81 898 60 892 q 123 912 101 904 q 165 931 144 920 q 204 953 186 941 l 260 953 l 260 489 m 762 575 q 823 567 795 575 q 872 540 851 558 q 906 494 894 522 q 918 425 918 465 q 899 333 918 374 q 850 253 879 291 q 788 179 821 215 q 729 103 755 142 l 921 103 l 921 0 l 590 0 l 590 25 q 599 87 590 58 q 624 141 608 115 q 657 189 639 166 q 696 235 676 212 q 737 282 718 259 q 771 328 757 305 q 794 376 786 351 q 803 427 803 400 q 801 445 803 435 q 794 461 799 454 q 780 473 789 469 q 758 478 771 478 q 737 472 746 478 q 722 455 728 466 q 713 431 715 445 q 710 401 710 417 l 710 363 l 600 363 q 598 374 599 368 q 596 400 596 385 q 610 480 596 447 q 646 534 623 513 q 699 565 669 555 q 762 575 729 575 z "},"¾":{"ha":950,"x_min":40,"x_max":914,"o":"m 268 -17 l 175 -17 l 725 970 l 817 970 l 268 -17 m 208 970 q 273 960 243 970 q 323 929 302 949 q 356 879 345 909 q 368 811 368 850 q 349 736 368 764 q 297 686 329 707 q 354 635 331 669 q 376 549 376 601 q 364 479 376 510 q 330 427 352 448 q 278 394 309 406 q 211 383 248 383 q 138 395 170 383 q 84 430 106 408 q 51 485 62 453 q 40 557 40 517 l 40 578 l 154 578 l 154 554 q 210 479 154 479 q 248 497 233 479 q 262 554 262 514 q 257 593 262 578 q 244 618 252 609 q 225 631 236 627 q 204 635 215 635 l 170 635 l 170 728 l 205 728 q 239 747 224 728 q 253 807 253 767 q 241 858 253 843 q 210 873 229 873 q 164 804 164 873 l 164 782 l 50 782 l 50 811 q 62 876 50 847 q 94 926 73 905 q 144 959 115 947 q 208 970 174 970 m 799 575 q 768 467 787 522 q 727 364 749 412 q 686 278 706 316 q 652 220 665 240 l 746 220 l 746 271 q 765 310 754 286 q 786 360 776 334 q 805 411 796 386 q 818 453 813 435 l 856 453 l 856 220 l 914 220 l 914 123 l 856 123 l 856 0 l 746 0 l 746 123 l 547 123 l 547 208 q 588 291 568 246 q 626 382 608 335 q 660 479 644 430 q 689 575 676 528 l 799 575 z "},"¿":{"ha":696,"x_min":66,"x_max":631,"o":"m 415 397 q 403 324 415 355 q 372 266 391 293 q 332 215 353 239 q 292 163 311 191 q 261 102 273 136 q 249 24 249 68 q 252 -6 249 14 q 265 -44 255 -25 q 294 -76 275 -62 q 346 -90 313 -90 q 402 -75 380 -90 q 434 -37 423 -59 q 449 11 446 -14 q 453 56 453 36 q 453 71 453 64 q 452 83 452 77 q 452 93 452 89 l 627 93 q 629 75 627 83 q 630 59 629 67 q 631 45 631 51 q 612 -65 631 -14 q 557 -155 594 -117 q 465 -216 520 -194 q 335 -239 409 -239 q 223 -221 273 -239 q 139 -170 174 -203 q 85 -92 104 -138 q 66 8 66 -47 q 79 113 66 70 q 112 188 92 156 q 153 244 131 220 q 195 294 176 269 q 227 348 214 319 q 240 418 240 377 l 240 457 l 415 457 l 415 397 m 422 541 l 231 541 l 231 730 l 422 730 l 422 541 z "},"À":{"ha":822,"x_min":0,"x_max":821,"o":"m 821 0 l 639 0 l 581 187 l 229 187 l 172 0 l 0 0 l 307 953 l 514 953 l 821 0 m 403 793 q 394 745 399 768 q 385 703 390 725 q 375 664 380 680 l 278 346 l 532 346 l 436 664 q 425 705 431 683 q 416 747 420 728 q 408 793 412 770 l 403 793 m 507 1043 l 369 1043 l 219 1223 l 220 1227 l 387 1227 l 507 1043 z "},"Á":{"ha":822,"x_min":0,"x_max":821,"o":"m 821 0 l 639 0 l 581 187 l 229 187 l 172 0 l 0 0 l 307 953 l 514 953 l 821 0 m 403 793 q 394 745 399 768 q 385 703 390 725 q 375 664 380 680 l 278 346 l 532 346 l 436 664 q 425 705 431 683 q 416 747 420 728 q 408 793 412 770 l 403 793 m 603 1223 l 453 1043 l 315 1043 l 435 1227 l 602 1227 l 603 1223 z "},"Â":{"ha":822,"x_min":0,"x_max":821,"o":"m 821 0 l 639 0 l 581 187 l 229 187 l 172 0 l 0 0 l 307 953 l 514 953 l 821 0 m 403 793 q 394 745 399 768 q 385 703 390 725 q 375 664 380 680 l 278 346 l 532 346 l 436 664 q 425 705 431 683 q 416 747 420 728 q 408 793 412 770 l 403 793 m 598 1039 l 473 1039 l 412 1135 l 349 1039 l 224 1039 l 344 1227 l 480 1227 l 598 1039 z "},"Ã":{"ha":822,"x_min":0,"x_max":821,"o":"m 821 0 l 639 0 l 581 187 l 229 187 l 172 0 l 0 0 l 307 953 l 514 953 l 821 0 m 403 793 q 394 745 399 768 q 385 703 390 725 q 375 664 380 680 l 278 346 l 532 346 l 436 664 q 425 705 431 683 q 416 747 420 728 q 408 793 412 770 l 403 793 m 645 1227 q 637 1168 645 1198 q 613 1113 629 1138 q 570 1073 596 1088 q 507 1057 544 1057 q 459 1065 482 1057 q 414 1083 437 1074 q 370 1101 392 1093 q 324 1109 347 1109 q 288 1097 302 1109 q 270 1057 274 1086 l 178 1057 q 185 1116 178 1086 q 210 1171 193 1146 q 252 1211 226 1195 q 314 1227 277 1227 q 363 1219 340 1227 q 408 1201 386 1211 q 453 1183 431 1192 q 499 1175 475 1175 q 535 1186 521 1175 q 553 1227 549 1197 l 645 1227 z "},"Ä":{"ha":822,"x_min":0,"x_max":821,"o":"m 821 0 l 639 0 l 581 187 l 229 187 l 172 0 l 0 0 l 307 953 l 514 953 l 821 0 m 403 793 q 394 745 399 768 q 385 703 390 725 q 375 664 380 680 l 278 346 l 532 346 l 436 664 q 425 705 431 683 q 416 747 420 728 q 408 793 412 770 l 403 793 m 359 1075 l 220 1075 l 220 1227 l 359 1227 l 359 1075 m 602 1075 l 463 1075 l 463 1227 l 602 1227 l 602 1075 z "},"Å":{"ha":822,"x_min":0,"x_max":821,"o":"m 821 0 l 639 0 l 581 187 l 229 187 l 172 0 l 0 0 l 307 953 l 514 953 l 821 0 m 403 793 q 394 745 399 768 q 385 703 390 725 q 375 664 380 680 l 278 346 l 532 346 l 436 664 q 425 705 431 683 q 416 747 420 728 q 408 793 412 770 l 403 793 m 412 1268 q 464 1258 439 1268 q 506 1229 488 1247 q 534 1186 524 1211 q 545 1135 545 1162 q 534 1083 545 1107 q 506 1041 524 1059 q 463 1012 488 1023 q 412 1002 439 1002 q 360 1012 385 1002 q 317 1040 336 1022 q 289 1082 299 1058 q 278 1135 278 1107 q 289 1187 278 1162 q 317 1229 299 1211 q 359 1258 335 1247 q 412 1268 384 1268 m 412 1199 q 366 1181 384 1199 q 347 1135 347 1162 q 366 1089 347 1107 q 412 1071 384 1071 q 436 1076 425 1071 q 456 1089 448 1080 q 470 1110 465 1098 q 475 1135 475 1122 q 470 1160 475 1149 q 456 1181 465 1172 q 436 1194 448 1190 q 412 1199 425 1199 z "},"Æ":{"ha":1139,"x_min":-11,"x_max":1079,"o":"m 621 0 l 575 187 l 224 187 l 154 0 l -11 0 l 354 953 l 1071 953 l 1071 794 l 608 794 l 664 567 l 1010 567 l 1010 408 l 703 408 l 764 158 l 1079 158 l 1079 0 l 621 0 m 282 346 l 538 346 l 440 758 l 435 758 l 282 346 z "},"Ç":{"ha":822,"x_min":47,"x_max":777,"o":"m 456 -46 q 498 -54 478 -47 q 533 -71 518 -60 q 557 -99 548 -82 q 566 -140 566 -117 q 550 -197 566 -175 q 512 -232 535 -219 q 463 -249 490 -244 q 414 -253 437 -253 q 354 -250 385 -253 q 298 -241 323 -247 l 298 -174 l 396 -174 q 433 -167 419 -174 q 446 -140 446 -160 q 436 -115 446 -123 q 399 -107 426 -107 l 353 -107 l 365 -13 q 267 13 311 -6 q 147 104 196 43 q 73 257 98 165 q 47 476 47 350 q 73 695 47 602 q 147 849 98 788 q 267 940 196 910 q 427 970 337 970 q 565 948 501 970 q 676 881 629 926 q 750 766 723 836 q 777 599 777 696 l 595 599 q 583 695 595 654 q 548 763 570 736 q 495 803 526 790 q 427 817 464 817 q 340 795 377 817 q 279 735 303 774 q 242 639 254 696 q 231 511 231 583 l 231 441 q 243 314 231 370 q 280 218 255 257 q 343 157 305 178 q 432 136 381 136 q 502 150 471 136 q 556 190 534 163 q 591 257 578 216 q 603 353 603 298 l 777 353 q 750 190 777 259 q 677 74 724 120 q 566 5 630 28 q 459 -16 516 -12 l 456 -46 z "},"È":{"ha":760,"x_min":83,"x_max":699,"o":"m 475 1043 l 338 1043 l 187 1222 l 189 1226 l 355 1226 l 475 1043 m 83 0 l 83 953 l 690 953 l 690 794 l 261 794 l 261 567 l 629 567 l 629 408 l 261 408 l 261 158 l 699 158 l 699 0 l 83 0 z "},"É":{"ha":760,"x_min":83,"x_max":699,"o":"m 572 1222 l 422 1043 l 285 1043 l 404 1226 l 571 1226 l 572 1222 m 83 0 l 83 953 l 690 953 l 690 794 l 261 794 l 261 567 l 629 567 l 629 408 l 261 408 l 261 158 l 699 158 l 699 0 l 83 0 z "},"Ê":{"ha":760,"x_min":83,"x_max":699,"o":"m 567 1039 l 441 1039 l 380 1135 l 318 1039 l 193 1039 l 313 1226 l 449 1226 l 567 1039 m 83 0 l 83 953 l 690 953 l 690 794 l 261 794 l 261 567 l 629 567 l 629 408 l 261 408 l 261 158 l 699 158 l 699 0 l 83 0 z "},"Ë":{"ha":760,"x_min":83,"x_max":699,"o":"m 328 1075 l 189 1075 l 189 1226 l 328 1226 l 328 1075 m 571 1075 l 432 1075 l 432 1226 l 571 1226 l 571 1075 m 83 0 l 83 953 l 690 953 l 690 794 l 261 794 l 261 567 l 629 567 l 629 408 l 261 408 l 261 158 l 699 158 l 699 0 l 83 0 z "},"Ì":{"ha":317,"x_min":-33,"x_max":254,"o":"m 248 0 l 69 0 l 69 953 l 248 953 l 248 0 m 254 1043 l 117 1043 l -33 1223 l -32 1227 l 135 1227 l 254 1043 z "},"Í":{"ha":317,"x_min":63,"x_max":351,"o":"m 248 0 l 69 0 l 69 953 l 248 953 l 248 0 m 351 1223 l 201 1043 l 63 1043 l 182 1227 l 349 1227 l 351 1223 z "},"Î":{"ha":317,"x_min":-28,"x_max":346,"o":"m 248 0 l 69 0 l 69 953 l 248 953 l 248 0 m 346 1039 l 221 1039 l 159 1135 l 97 1039 l -28 1039 l 92 1227 l 228 1227 l 346 1039 z "},"Ï":{"ha":317,"x_min":-33,"x_max":350,"o":"m 248 0 l 69 0 l 69 953 l 248 953 l 248 0 m 107 1075 l -33 1075 l -33 1227 l 107 1227 l 107 1075 m 350 1075 l 211 1075 l 211 1227 l 350 1227 l 350 1075 z "},"Ð":{"ha":822,"x_min":14,"x_max":775,"o":"m 14 551 l 83 551 l 83 953 l 393 953 q 553 924 482 953 q 673 837 624 895 q 749 692 722 779 q 775 490 775 606 q 749 276 775 368 q 673 123 722 184 q 553 31 624 62 q 393 0 482 0 l 83 0 l 83 433 l 14 433 l 14 551 m 261 794 l 261 551 l 435 551 l 435 433 l 261 433 l 261 158 l 376 158 q 466 177 426 158 q 533 232 505 195 q 576 325 562 269 q 591 456 591 381 l 591 525 q 576 643 591 592 q 533 727 562 693 q 466 777 505 760 q 376 794 426 794 l 261 794 z "},"Ñ":{"ha":822,"x_min":83,"x_max":739,"o":"m 644 1226 q 637 1168 644 1198 q 613 1113 629 1138 q 570 1073 596 1088 q 507 1057 544 1057 q 459 1065 482 1057 q 414 1083 436 1073 q 369 1100 391 1093 q 323 1108 347 1108 q 288 1097 302 1108 q 269 1057 274 1086 l 178 1057 q 185 1116 178 1086 q 209 1170 193 1145 q 252 1211 226 1195 q 314 1226 277 1226 q 362 1218 339 1226 q 408 1201 386 1211 q 453 1183 431 1191 q 498 1175 475 1175 q 534 1186 520 1175 q 553 1226 549 1197 l 644 1226 m 581 0 l 286 525 q 275 547 282 532 q 260 576 268 562 q 243 614 252 594 l 237 610 q 239 579 238 594 q 240 553 239 566 q 240 530 240 540 l 240 0 l 83 0 l 83 953 l 240 953 l 534 428 q 548 404 540 418 q 562 374 555 389 q 578 339 570 357 l 582 343 q 581 377 581 361 q 581 404 581 391 q 581 422 581 416 l 581 953 l 739 953 l 739 0 l 581 0 z "},"Ò":{"ha":886,"x_min":47,"x_max":839,"o":"m 443 970 q 609 940 535 970 q 733 849 682 910 q 812 695 785 788 q 839 476 839 602 q 812 257 839 350 q 733 104 785 165 q 609 13 682 43 q 443 -17 535 -17 q 277 13 351 -17 q 153 104 204 43 q 75 257 102 165 q 47 476 47 350 q 75 695 47 602 q 153 849 102 788 q 277 940 204 910 q 443 970 351 970 m 443 817 q 350 795 390 817 q 283 735 310 774 q 244 639 257 696 q 231 511 231 583 l 231 441 q 244 314 231 370 q 283 218 257 257 q 350 157 310 178 q 443 136 390 136 q 536 157 496 136 q 603 218 576 178 q 643 314 629 257 q 656 441 656 370 l 656 511 q 643 639 656 583 q 603 735 629 696 q 536 795 576 774 q 443 817 496 817 m 539 1043 l 401 1043 l 252 1223 l 253 1227 l 420 1227 l 539 1043 z "},"Ó":{"ha":886,"x_min":47,"x_max":839,"o":"m 443 970 q 609 940 535 970 q 733 849 682 910 q 812 695 785 788 q 839 476 839 602 q 812 257 839 350 q 733 104 785 165 q 609 13 682 43 q 443 -17 535 -17 q 277 13 351 -17 q 153 104 204 43 q 75 257 102 165 q 47 476 47 350 q 75 695 47 602 q 153 849 102 788 q 277 940 204 910 q 443 970 351 970 m 443 817 q 350 795 390 817 q 283 735 310 774 q 244 639 257 696 q 231 511 231 583 l 231 441 q 244 314 231 370 q 283 218 257 257 q 350 157 310 178 q 443 136 390 136 q 536 157 496 136 q 603 218 576 178 q 643 314 629 257 q 656 441 656 370 l 656 511 q 643 639 656 583 q 603 735 629 696 q 536 795 576 774 q 443 817 496 817 m 635 1223 l 486 1043 l 348 1043 l 467 1227 l 634 1227 l 635 1223 z "},"Ô":{"ha":886,"x_min":47,"x_max":839,"o":"m 443 970 q 609 940 535 970 q 733 849 682 910 q 812 695 785 788 q 839 476 839 602 q 812 257 839 350 q 733 104 785 165 q 609 13 682 43 q 443 -17 535 -17 q 277 13 351 -17 q 153 104 204 43 q 75 257 102 165 q 47 476 47 350 q 75 695 47 602 q 153 849 102 788 q 277 940 204 910 q 443 970 351 970 m 443 817 q 350 795 390 817 q 283 735 310 774 q 244 639 257 696 q 231 511 231 583 l 231 441 q 244 314 231 370 q 283 218 257 257 q 350 157 310 178 q 443 136 390 136 q 536 157 496 136 q 603 218 576 178 q 643 314 629 257 q 656 441 656 370 l 656 511 q 643 639 656 583 q 603 735 629 696 q 536 795 576 774 q 443 817 496 817 m 631 1039 l 506 1039 l 444 1135 l 382 1039 l 257 1039 l 376 1227 l 513 1227 l 631 1039 z "},"Õ":{"ha":886,"x_min":47,"x_max":839,"o":"m 443 970 q 609 940 535 970 q 733 849 682 910 q 812 695 785 788 q 839 476 839 602 q 812 257 839 350 q 733 104 785 165 q 609 13 682 43 q 443 -17 535 -17 q 277 13 351 -17 q 153 104 204 43 q 75 257 102 165 q 47 476 47 350 q 75 695 47 602 q 153 849 102 788 q 277 940 204 910 q 443 970 351 970 m 443 817 q 350 795 390 817 q 283 735 310 774 q 244 639 257 696 q 231 511 231 583 l 231 441 q 244 314 231 370 q 283 218 257 257 q 350 157 310 178 q 443 136 390 136 q 536 157 496 136 q 603 218 576 178 q 643 314 629 257 q 656 441 656 370 l 656 511 q 643 639 656 583 q 603 735 629 696 q 536 795 576 774 q 443 817 496 817 m 677 1227 q 670 1168 677 1198 q 645 1113 662 1138 q 603 1073 629 1088 q 540 1057 576 1057 q 492 1065 515 1057 q 447 1083 469 1074 q 402 1101 425 1093 q 357 1109 380 1109 q 320 1097 334 1109 q 302 1057 307 1086 l 210 1057 q 218 1116 210 1086 q 242 1171 226 1146 q 284 1211 258 1195 q 347 1227 310 1227 q 395 1219 372 1227 q 441 1201 418 1211 q 486 1183 463 1192 q 532 1175 508 1175 q 567 1186 553 1175 q 585 1227 581 1197 l 677 1227 z "},"Ö":{"ha":886,"x_min":47,"x_max":839,"o":"m 443 970 q 609 940 535 970 q 733 849 682 910 q 812 695 785 788 q 839 476 839 602 q 812 257 839 350 q 733 104 785 165 q 609 13 682 43 q 443 -17 535 -17 q 277 13 351 -17 q 153 104 204 43 q 75 257 102 165 q 47 476 47 350 q 75 695 47 602 q 153 849 102 788 q 277 940 204 910 q 443 970 351 970 m 443 817 q 350 795 390 817 q 283 735 310 774 q 244 639 257 696 q 231 511 231 583 l 231 441 q 244 314 231 370 q 283 218 257 257 q 350 157 310 178 q 443 136 390 136 q 536 157 496 136 q 603 218 576 178 q 643 314 629 257 q 656 441 656 370 l 656 511 q 643 639 656 583 q 603 735 629 696 q 536 795 576 774 q 443 817 496 817 m 392 1075 l 253 1075 l 253 1227 l 392 1227 l 392 1075 m 635 1075 l 496 1075 l 496 1227 l 635 1227 l 635 1075 z "},"×":{"ha":665,"x_min":40,"x_max":644,"o":"m 644 558 l 441 355 l 644 154 l 545 54 l 342 257 l 140 54 l 40 154 l 243 355 l 40 558 l 140 659 l 342 456 l 545 659 l 644 558 z "},"Ø":{"ha":886,"x_min":47,"x_max":839,"o":"m 733 847 q 812 694 785 786 q 839 476 839 602 q 812 257 839 350 q 733 104 785 165 q 609 13 682 43 q 443 -17 535 -17 q 228 37 318 -17 l 172 -52 l 56 -52 l 153 104 q 75 257 102 165 q 47 476 47 350 q 75 695 47 602 q 153 849 102 788 q 277 940 204 910 q 443 970 351 970 q 659 914 570 970 l 715 1004 l 832 1004 l 733 847 m 317 179 q 443 136 366 136 q 536 157 496 136 q 603 218 576 178 q 643 314 629 257 q 656 441 656 370 l 656 511 q 649 603 656 560 q 629 681 643 646 l 317 179 m 443 817 q 350 795 390 817 q 283 735 310 774 q 244 639 257 696 q 231 511 231 583 l 231 441 q 237 348 231 391 q 256 269 243 305 l 570 772 q 443 817 522 817 z "},"Ù":{"ha":822,"x_min":85,"x_max":739,"o":"m 507 1043 l 370 1043 l 220 1222 l 221 1226 l 387 1226 l 507 1043 m 85 953 l 262 953 l 262 304 q 301 179 262 222 q 411 136 340 136 q 522 179 482 136 q 561 304 561 222 l 561 953 l 739 953 l 739 298 q 716 162 739 221 q 651 63 694 103 q 548 3 609 24 q 411 -17 488 -17 q 274 3 334 -17 q 172 63 214 24 q 107 162 130 103 q 85 298 85 221 l 85 953 z "},"Ú":{"ha":822,"x_min":85,"x_max":739,"o":"m 603 1222 l 453 1043 l 315 1043 l 435 1226 l 602 1226 l 603 1222 m 85 953 l 262 953 l 262 304 q 301 179 262 222 q 411 136 340 136 q 522 179 482 136 q 561 304 561 222 l 561 953 l 739 953 l 739 298 q 716 162 739 221 q 651 63 694 103 q 548 3 609 24 q 411 -17 488 -17 q 274 3 334 -17 q 172 63 214 24 q 107 162 130 103 q 85 298 85 221 l 85 953 z "},"Û":{"ha":822,"x_min":85,"x_max":739,"o":"m 599 1039 l 473 1039 l 411 1135 l 349 1039 l 225 1039 l 345 1226 l 481 1226 l 599 1039 m 85 953 l 262 953 l 262 304 q 301 179 262 222 q 411 136 340 136 q 522 179 482 136 q 561 304 561 222 l 561 953 l 739 953 l 739 298 q 716 162 739 221 q 651 63 694 103 q 548 3 609 24 q 411 -17 488 -17 q 274 3 334 -17 q 172 63 214 24 q 107 162 130 103 q 85 298 85 221 l 85 953 z "},"Ü":{"ha":822,"x_min":85,"x_max":739,"o":"m 359 1075 l 221 1075 l 221 1226 l 359 1226 l 359 1075 m 603 1075 l 463 1075 l 463 1226 l 603 1226 l 603 1075 m 85 953 l 262 953 l 262 304 q 301 179 262 222 q 411 136 340 136 q 522 179 482 136 q 561 304 561 222 l 561 953 l 739 953 l 739 298 q 716 162 739 221 q 651 63 694 103 q 548 3 609 24 q 411 -17 488 -17 q 274 3 334 -17 q 172 63 214 24 q 107 162 130 103 q 85 298 85 221 l 85 953 z "},"Ý":{"ha":760,"x_min":0,"x_max":760,"o":"m 469 359 l 469 0 l 292 0 l 292 359 l 0 953 l 187 953 l 382 534 l 387 534 l 581 953 l 760 953 l 469 359 m 572 1223 l 422 1043 l 284 1043 l 404 1227 l 570 1227 l 572 1223 z "},"Þ":{"ha":760,"x_min":83,"x_max":722,"o":"m 261 200 l 261 0 l 83 0 l 83 953 l 261 953 l 261 783 l 424 783 q 553 762 498 783 q 647 702 609 741 q 703 611 684 664 q 722 497 722 559 q 701 375 722 430 q 640 281 680 320 q 546 221 601 243 q 424 200 491 200 l 261 200 m 261 625 l 261 357 l 406 357 q 505 394 471 357 q 539 497 539 431 q 504 591 539 556 q 406 625 469 625 l 261 625 z "},"ß":{"ha":696,"x_min":56,"x_max":657,"o":"m 353 1021 q 463 1003 412 1021 q 550 952 513 985 q 607 870 587 918 q 628 761 628 822 q 618 693 628 726 q 591 632 608 661 q 549 582 574 604 q 496 549 525 560 l 496 543 q 561 505 531 530 q 612 447 591 480 q 645 376 633 414 q 657 297 657 337 q 635 175 657 230 q 576 81 614 120 q 488 21 538 43 q 379 0 437 0 l 289 0 l 289 142 l 361 142 q 411 154 387 142 q 451 188 434 167 q 479 238 469 210 q 489 298 489 267 q 479 357 489 330 q 451 406 469 385 q 411 438 434 427 q 361 450 387 450 l 289 450 l 289 607 l 357 607 q 397 619 378 607 q 430 651 416 631 q 452 699 444 671 q 460 757 460 726 q 453 807 460 784 q 431 846 446 829 q 396 871 417 862 q 346 880 374 880 q 256 843 290 880 q 222 733 222 805 l 222 0 l 56 0 l 56 722 q 79 858 56 802 q 142 951 102 915 q 236 1004 182 987 q 353 1021 290 1021 z "},"à":{"ha":633,"x_min":20,"x_max":623,"o":"m 301 747 q 489 691 428 747 q 550 532 550 634 l 550 172 q 562 135 550 146 q 589 123 574 123 l 623 123 l 623 5 q 585 -9 609 -2 q 524 -17 562 -17 q 440 10 473 -17 q 395 79 407 37 l 387 79 q 355 40 372 58 q 316 9 338 22 q 267 -10 294 -3 q 203 -17 239 -17 q 145 -8 177 -17 q 86 23 114 0 q 39 85 58 45 q 20 189 20 125 q 46 312 20 263 q 121 390 73 361 q 236 432 169 420 q 382 444 302 444 l 382 521 q 379 556 382 540 q 368 585 376 572 q 345 604 359 597 q 306 611 330 611 q 263 604 280 611 q 236 586 246 597 q 222 561 227 575 q 218 534 218 547 l 218 514 l 56 514 q 54 528 54 520 l 54 545 q 72 628 54 590 q 122 692 90 665 q 199 733 154 718 q 301 747 245 747 m 382 323 q 311 318 345 323 q 250 299 277 313 q 207 262 223 286 q 191 204 191 239 q 210 144 191 166 q 272 122 229 122 q 322 135 302 122 q 356 170 343 148 q 376 221 370 192 q 382 282 382 250 l 382 323 m 397 821 l 259 821 l 109 1000 l 111 1004 l 277 1004 l 397 821 z "},"á":{"ha":633,"x_min":20,"x_max":623,"o":"m 301 747 q 489 691 428 747 q 550 532 550 634 l 550 172 q 562 135 550 146 q 589 123 574 123 l 623 123 l 623 5 q 585 -9 609 -2 q 524 -17 562 -17 q 440 10 473 -17 q 395 79 407 37 l 387 79 q 355 40 372 58 q 316 9 338 22 q 267 -10 294 -3 q 203 -17 239 -17 q 145 -8 177 -17 q 86 23 114 0 q 39 85 58 45 q 20 189 20 125 q 46 312 20 263 q 121 390 73 361 q 236 432 169 420 q 382 444 302 444 l 382 521 q 379 556 382 540 q 368 585 376 572 q 345 604 359 597 q 306 611 330 611 q 263 604 280 611 q 236 586 246 597 q 222 561 227 575 q 218 534 218 547 l 218 514 l 56 514 q 54 528 54 520 l 54 545 q 72 628 54 590 q 122 692 90 665 q 199 733 154 718 q 301 747 245 747 m 382 323 q 311 318 345 323 q 250 299 277 313 q 207 262 223 286 q 191 204 191 239 q 210 144 191 166 q 272 122 229 122 q 322 135 302 122 q 356 170 343 148 q 376 221 370 192 q 382 282 382 250 l 382 323 m 493 1000 l 343 821 l 205 821 l 325 1004 l 492 1004 l 493 1000 z "},"â":{"ha":633,"x_min":20,"x_max":623,"o":"m 301 747 q 489 691 428 747 q 550 532 550 634 l 550 172 q 562 135 550 146 q 589 123 574 123 l 623 123 l 623 5 q 585 -9 609 -2 q 524 -17 562 -17 q 440 10 473 -17 q 395 79 407 37 l 387 79 q 355 40 372 58 q 316 9 338 22 q 267 -10 294 -3 q 203 -17 239 -17 q 145 -8 177 -17 q 86 23 114 0 q 39 85 58 45 q 20 189 20 125 q 46 312 20 263 q 121 390 73 361 q 236 432 169 420 q 382 444 302 444 l 382 521 q 379 556 382 540 q 368 585 376 572 q 345 604 359 597 q 306 611 330 611 q 263 604 280 611 q 236 586 246 597 q 222 561 227 575 q 218 534 218 547 l 218 514 l 56 514 q 54 528 54 520 l 54 545 q 72 628 54 590 q 122 692 90 665 q 199 733 154 718 q 301 747 245 747 m 488 817 l 363 817 l 302 913 l 239 817 l 115 817 l 234 1004 l 370 1004 l 488 817 m 382 323 q 311 318 345 323 q 250 299 277 313 q 207 262 223 286 q 191 204 191 239 q 210 144 191 166 q 272 122 229 122 q 322 135 302 122 q 356 170 343 148 q 376 221 370 192 q 382 282 382 250 l 382 323 z "},"ã":{"ha":633,"x_min":20,"x_max":623,"o":"m 301 747 q 489 691 428 747 q 550 532 550 634 l 550 172 q 562 135 550 146 q 589 123 574 123 l 623 123 l 623 5 q 585 -9 609 -2 q 524 -17 562 -17 q 440 10 473 -17 q 395 79 407 37 l 387 79 q 355 40 372 58 q 316 9 338 22 q 267 -10 294 -3 q 203 -17 239 -17 q 145 -8 177 -17 q 86 23 114 0 q 39 85 58 45 q 20 189 20 125 q 46 312 20 263 q 121 390 73 361 q 236 432 169 420 q 382 444 302 444 l 382 521 q 379 556 382 540 q 368 585 376 572 q 345 604 359 597 q 306 611 330 611 q 263 604 280 611 q 236 586 246 597 q 222 561 227 575 q 218 534 218 547 l 218 514 l 56 514 q 54 528 54 520 l 54 545 q 72 628 54 590 q 122 692 90 665 q 199 733 154 718 q 301 747 245 747 m 535 1004 q 527 946 535 976 q 503 891 519 916 q 460 850 486 866 q 397 835 434 835 q 350 843 372 835 q 304 861 327 851 q 260 878 282 870 q 214 886 237 886 q 178 875 192 886 q 160 835 164 863 l 68 835 q 76 893 68 863 q 100 948 83 924 q 142 988 116 972 q 204 1004 168 1004 q 253 996 230 1004 q 298 979 276 988 q 343 961 321 969 q 389 953 366 953 q 425 964 411 953 q 443 1004 439 975 l 535 1004 m 382 323 q 311 318 345 323 q 250 299 277 313 q 207 262 223 286 q 191 204 191 239 q 210 144 191 166 q 272 122 229 122 q 322 135 302 122 q 356 170 343 148 q 376 221 370 192 q 382 282 382 250 l 382 323 z "},"ä":{"ha":633,"x_min":20,"x_max":623,"o":"m 301 747 q 489 691 428 747 q 550 532 550 634 l 550 172 q 562 135 550 146 q 589 123 574 123 l 623 123 l 623 5 q 585 -9 609 -2 q 524 -17 562 -17 q 440 10 473 -17 q 395 79 407 37 l 387 79 q 355 40 372 58 q 316 9 338 22 q 267 -10 294 -3 q 203 -17 239 -17 q 145 -8 177 -17 q 86 23 114 0 q 39 85 58 45 q 20 189 20 125 q 46 312 20 263 q 121 390 73 361 q 236 432 169 420 q 382 444 302 444 l 382 521 q 379 556 382 540 q 368 585 376 572 q 345 604 359 597 q 306 611 330 611 q 263 604 280 611 q 236 586 246 597 q 222 561 227 575 q 218 534 218 547 l 218 514 l 56 514 q 54 528 54 520 l 54 545 q 72 628 54 590 q 122 692 90 665 q 199 733 154 718 q 301 747 245 747 m 382 323 q 311 318 345 323 q 250 299 277 313 q 207 262 223 286 q 191 204 191 239 q 210 144 191 166 q 272 122 229 122 q 322 135 302 122 q 356 170 343 148 q 376 221 370 192 q 382 282 382 250 l 382 323 m 250 852 l 111 852 l 111 1004 l 250 1004 l 250 852 m 492 852 l 353 852 l 353 1004 l 492 1004 l 492 852 z "},"å":{"ha":633,"x_min":20,"x_max":623,"o":"m 301 747 q 489 691 428 747 q 550 532 550 634 l 550 172 q 562 135 550 146 q 589 123 574 123 l 623 123 l 623 5 q 585 -9 609 -2 q 524 -17 562 -17 q 440 10 473 -17 q 395 79 407 37 l 387 79 q 355 40 372 58 q 316 9 338 22 q 267 -10 294 -3 q 203 -17 239 -17 q 145 -8 177 -17 q 86 23 114 0 q 39 85 58 45 q 20 189 20 125 q 46 312 20 263 q 121 390 73 361 q 236 432 169 420 q 382 444 302 444 l 382 521 q 379 556 382 540 q 368 585 376 572 q 345 604 359 597 q 306 611 330 611 q 263 604 280 611 q 236 586 246 597 q 222 561 227 575 q 218 534 218 547 l 218 514 l 56 514 q 54 528 54 520 l 54 545 q 72 628 54 590 q 122 692 90 665 q 199 733 154 718 q 301 747 245 747 m 302 1046 q 354 1035 330 1046 q 396 1006 378 1025 q 425 964 414 988 q 435 913 435 940 q 424 861 435 885 q 396 818 414 836 q 353 790 378 800 q 302 779 329 779 q 250 789 275 779 q 208 818 226 800 q 179 860 189 836 q 168 913 168 884 q 179 964 168 940 q 207 1007 189 989 q 250 1035 225 1025 q 302 1046 274 1046 m 382 323 q 311 318 345 323 q 250 299 277 313 q 207 262 223 286 q 191 204 191 239 q 210 144 191 166 q 272 122 229 122 q 322 135 302 122 q 356 170 343 148 q 376 221 370 192 q 382 282 382 250 l 382 323 m 302 977 q 256 958 274 977 q 237 913 237 940 q 256 867 237 885 q 302 848 274 848 q 326 853 315 848 q 347 867 338 858 q 360 887 355 876 q 366 913 366 899 q 360 938 366 926 q 347 958 355 949 q 326 972 338 967 q 302 977 315 977 z "},"æ":{"ha":1013,"x_min":52,"x_max":958,"o":"m 694 747 q 892 655 827 747 q 958 366 958 562 l 958 323 l 587 323 q 594 237 588 275 q 613 173 600 199 q 648 133 627 146 q 700 119 669 119 q 768 156 743 119 q 793 258 793 193 l 958 258 q 939 136 958 188 q 885 50 920 84 q 803 0 850 16 q 700 -17 755 -17 q 572 7 627 -17 q 482 82 517 32 q 440 42 463 60 q 391 11 417 24 q 332 -10 364 -3 q 262 -17 300 -17 q 196 -8 233 -17 q 127 23 159 0 q 73 85 95 45 q 52 189 52 125 q 78 312 52 263 q 153 390 105 361 q 268 432 201 420 q 414 444 334 444 l 414 521 q 411 556 414 540 q 399 585 408 572 q 376 604 391 597 q 338 611 361 611 q 295 604 312 611 q 268 586 278 597 q 254 561 258 575 q 250 534 250 547 l 250 514 l 87 514 q 86 528 86 520 l 86 545 q 104 628 86 590 q 154 692 121 665 q 232 733 186 718 q 334 747 277 747 q 443 729 396 747 q 521 677 490 711 q 598 730 555 713 q 694 747 642 747 m 414 323 q 343 318 377 323 q 282 299 309 313 q 239 262 255 286 q 222 204 222 239 q 242 144 222 166 q 304 122 262 122 q 355 135 334 122 q 389 170 376 148 q 408 221 401 192 q 414 282 414 250 l 414 323 m 694 611 q 617 568 642 611 q 589 444 593 524 l 783 444 q 762 568 783 524 q 694 611 741 611 z "},"ç":{"ha":633,"x_min":57,"x_max":583,"o":"m 361 -46 q 404 -54 384 -47 q 439 -71 424 -60 q 463 -99 454 -82 q 471 -140 471 -117 q 456 -197 471 -175 q 418 -232 441 -219 q 369 -249 395 -244 q 320 -253 342 -253 q 259 -250 290 -253 q 203 -241 229 -247 l 203 -174 l 302 -174 q 338 -167 325 -174 q 352 -140 352 -160 q 342 -115 352 -123 q 304 -107 332 -107 l 259 -107 l 271 -12 q 210 5 237 -6 q 124 76 158 28 q 73 195 90 123 q 57 366 57 267 q 124 655 57 562 q 328 747 192 747 q 433 730 386 747 q 514 678 481 713 q 565 587 547 642 q 583 456 583 532 l 412 456 q 391 570 412 533 q 328 607 370 607 q 253 552 275 607 q 231 392 231 497 l 231 339 q 254 179 231 234 q 334 123 277 123 q 398 161 378 123 q 418 275 418 199 l 583 275 q 566 143 583 199 q 515 53 548 88 q 437 0 483 17 q 365 -16 404 -12 l 361 -46 z "},"è":{"ha":633,"x_min":43,"x_max":587,"o":"m 323 747 q 522 655 456 747 q 587 366 587 562 l 587 323 l 216 323 q 223 237 217 275 q 243 173 230 199 q 277 133 256 146 q 329 119 298 119 q 397 156 372 119 q 422 258 422 193 l 587 258 q 568 136 587 188 q 514 50 549 84 q 432 0 479 16 q 329 -17 385 -17 q 116 76 189 -17 q 43 366 43 169 q 115 655 43 562 q 323 747 188 747 m 323 611 q 247 568 271 611 q 218 444 222 524 l 412 444 q 391 568 412 524 q 323 611 370 611 m 412 821 l 275 821 l 125 1000 l 126 1004 l 293 1004 l 412 821 z "},"é":{"ha":633,"x_min":43,"x_max":587,"o":"m 323 747 q 522 655 456 747 q 587 366 587 562 l 587 323 l 216 323 q 223 237 217 275 q 243 173 230 199 q 277 133 256 146 q 329 119 298 119 q 397 156 372 119 q 422 258 422 193 l 587 258 q 568 136 587 188 q 514 50 549 84 q 432 0 479 16 q 329 -17 385 -17 q 116 76 189 -17 q 43 366 43 169 q 115 655 43 562 q 323 747 188 747 m 323 611 q 247 568 271 611 q 218 444 222 524 l 412 444 q 391 568 412 524 q 323 611 370 611 m 509 1000 l 359 821 l 221 821 l 340 1004 l 507 1004 l 509 1000 z "},"ê":{"ha":633,"x_min":43,"x_max":587,"o":"m 323 747 q 522 655 456 747 q 587 366 587 562 l 587 323 l 216 323 q 223 237 217 275 q 243 173 230 199 q 277 133 256 146 q 329 119 298 119 q 397 156 372 119 q 422 258 422 193 l 587 258 q 568 136 587 188 q 514 50 549 84 q 432 0 479 16 q 329 -17 385 -17 q 116 76 189 -17 q 43 366 43 169 q 115 655 43 562 q 323 747 188 747 m 323 611 q 247 568 271 611 q 218 444 222 524 l 412 444 q 391 568 412 524 q 323 611 370 611 m 504 817 l 379 817 l 317 913 l 255 817 l 130 817 l 250 1004 l 386 1004 l 504 817 z "},"ë":{"ha":633,"x_min":43,"x_max":587,"o":"m 323 747 q 522 655 456 747 q 587 366 587 562 l 587 323 l 216 323 q 223 237 217 275 q 243 173 230 199 q 277 133 256 146 q 329 119 298 119 q 397 156 372 119 q 422 258 422 193 l 587 258 q 568 136 587 188 q 514 50 549 84 q 432 0 479 16 q 329 -17 385 -17 q 116 76 189 -17 q 43 366 43 169 q 115 655 43 562 q 323 747 188 747 m 323 611 q 247 568 271 611 q 218 444 222 524 l 412 444 q 391 568 412 524 q 323 611 370 611 m 265 852 l 126 852 l 126 1004 l 265 1004 l 265 852 m 508 852 l 369 852 l 369 1004 l 508 1004 l 508 852 z "},"ì":{"ha":317,"x_min":-33,"x_max":254,"o":"m 241 0 l 75 0 l 75 730 l 241 730 l 241 0 m 254 821 l 117 821 l -33 1000 l -32 1004 l 135 1004 l 254 821 z "},"í":{"ha":317,"x_min":63,"x_max":351,"o":"m 241 0 l 75 0 l 75 730 l 241 730 l 241 0 m 351 1000 l 201 821 l 63 821 l 182 1004 l 349 1004 l 351 1000 z "},"î":{"ha":317,"x_min":-28,"x_max":346,"o":"m 241 0 l 75 0 l 75 730 l 241 730 l 241 0 m 346 817 l 221 817 l 159 913 l 97 817 l -28 817 l 92 1004 l 228 1004 l 346 817 z "},"ï":{"ha":317,"x_min":-33,"x_max":350,"o":"m 241 0 l 75 0 l 75 730 l 241 730 l 241 0 m 107 852 l -33 852 l -33 1004 l 107 1004 l 107 852 m 350 852 l 211 852 l 211 1004 l 350 1004 l 350 852 z "},"ð":{"ha":696,"x_min":57,"x_max":640,"o":"m 358 1004 q 391 975 373 991 q 428 937 408 958 l 608 954 l 608 852 l 504 843 q 556 754 531 803 q 599 647 581 706 q 629 518 618 588 q 640 366 640 448 q 567 76 640 169 q 349 -17 494 -17 q 130 76 203 -17 q 57 366 57 169 q 75 531 57 460 q 125 650 92 602 q 205 723 158 699 q 310 747 252 747 q 344 744 326 747 q 378 736 362 741 l 382 742 q 358 784 372 762 q 329 827 344 806 l 150 811 l 150 913 l 254 922 q 214 966 233 946 l 180 999 l 183 1004 l 358 1004 m 349 607 q 257 552 284 607 q 231 392 231 496 l 231 339 q 257 179 231 234 q 349 123 284 123 q 440 179 413 123 q 467 339 467 234 l 467 392 q 440 552 467 496 q 349 607 413 607 z "},"ñ":{"ha":696,"x_min":77,"x_max":619,"o":"m 425 747 q 503 735 467 747 q 564 694 538 722 q 605 622 590 667 q 619 513 619 577 l 619 0 l 453 0 l 453 467 q 427 567 453 537 q 357 596 401 596 q 311 585 332 596 q 275 554 290 574 q 251 507 260 534 q 243 450 243 481 l 243 0 l 77 0 l 77 730 l 215 730 l 232 640 l 240 640 q 273 681 254 661 q 314 715 291 701 q 365 739 337 730 q 425 747 393 747 m 582 1004 q 574 946 582 976 q 550 891 566 916 q 507 850 533 866 q 444 835 481 835 q 396 843 419 835 q 351 861 374 851 q 307 878 329 870 q 261 886 284 886 q 225 875 239 886 q 207 835 211 863 l 115 835 q 122 893 115 863 q 146 948 130 924 q 189 988 163 972 q 251 1004 214 1004 q 300 996 277 1004 q 345 979 323 988 q 390 961 368 969 q 436 953 412 953 q 472 964 458 953 q 490 1004 486 975 l 582 1004 z "},"ò":{"ha":696,"x_min":57,"x_max":640,"o":"m 349 747 q 567 655 494 747 q 640 366 640 562 q 567 76 640 169 q 349 -17 494 -17 q 130 76 203 -17 q 57 366 57 169 q 130 655 57 562 q 349 747 203 747 m 349 607 q 257 552 284 607 q 231 392 231 496 l 231 339 q 257 179 231 234 q 349 123 284 123 q 440 179 413 123 q 467 339 467 234 l 467 392 q 440 552 467 496 q 349 607 413 607 m 444 821 l 306 821 l 156 1000 l 157 1004 l 324 1004 l 444 821 z "},"ó":{"ha":696,"x_min":57,"x_max":640,"o":"m 349 747 q 567 655 494 747 q 640 366 640 562 q 567 76 640 169 q 349 -17 494 -17 q 130 76 203 -17 q 57 366 57 169 q 130 655 57 562 q 349 747 203 747 m 349 607 q 257 552 284 607 q 231 392 231 496 l 231 339 q 257 179 231 234 q 349 123 284 123 q 440 179 413 123 q 467 339 467 234 l 467 392 q 440 552 467 496 q 349 607 413 607 m 540 1000 l 390 821 l 252 821 l 372 1004 l 538 1004 l 540 1000 z "},"ô":{"ha":696,"x_min":57,"x_max":640,"o":"m 349 747 q 567 655 494 747 q 640 366 640 562 q 567 76 640 169 q 349 -17 494 -17 q 130 76 203 -17 q 57 366 57 169 q 130 655 57 562 q 349 747 203 747 m 349 607 q 257 552 284 607 q 231 392 231 496 l 231 339 q 257 179 231 234 q 349 123 284 123 q 440 179 413 123 q 467 339 467 234 l 467 392 q 440 552 467 496 q 349 607 413 607 m 535 817 l 410 817 l 349 913 l 286 817 l 161 817 l 281 1004 l 417 1004 l 535 817 z "},"õ":{"ha":696,"x_min":57,"x_max":640,"o":"m 349 747 q 567 655 494 747 q 640 366 640 562 q 567 76 640 169 q 349 -17 494 -17 q 130 76 203 -17 q 57 366 57 169 q 130 655 57 562 q 349 747 203 747 m 349 607 q 257 552 284 607 q 231 392 231 496 l 231 339 q 257 179 231 234 q 349 123 284 123 q 440 179 413 123 q 467 339 467 234 l 467 392 q 440 552 467 496 q 349 607 413 607 m 582 1004 q 574 946 582 976 q 550 891 566 916 q 507 850 533 866 q 444 835 481 835 q 396 843 419 835 q 351 861 374 851 q 307 878 329 870 q 261 886 284 886 q 225 875 239 886 q 207 835 211 863 l 115 835 q 122 893 115 863 q 146 948 130 924 q 189 988 163 972 q 251 1004 214 1004 q 300 996 277 1004 q 345 979 323 988 q 390 961 368 969 q 436 953 412 953 q 472 964 458 953 q 490 1004 486 975 l 582 1004 z "},"ö":{"ha":696,"x_min":57,"x_max":640,"o":"m 349 747 q 567 655 494 747 q 640 366 640 562 q 567 76 640 169 q 349 -17 494 -17 q 130 76 203 -17 q 57 366 57 169 q 130 655 57 562 q 349 747 203 747 m 349 607 q 257 552 284 607 q 231 392 231 496 l 231 339 q 257 179 231 234 q 349 123 284 123 q 440 179 413 123 q 467 339 467 234 l 467 392 q 440 552 467 496 q 349 607 413 607 m 296 852 l 157 852 l 157 1004 l 296 1004 l 296 852 m 539 852 l 400 852 l 400 1004 l 539 1004 l 539 852 z "},"÷":{"ha":762,"x_min":46,"x_max":715,"o":"m 715 282 l 46 282 l 46 427 l 715 427 l 715 282 m 453 57 l 309 57 l 309 210 l 453 210 l 453 57 m 453 498 l 309 498 l 309 653 l 453 653 l 453 498 z "},"ø":{"ha":696,"x_min":57,"x_max":640,"o":"m 561 663 q 640 366 640 569 q 567 76 640 169 q 349 -17 494 -17 q 272 -9 307 -17 q 207 12 237 -2 l 176 -45 l 72 -45 l 135 69 q 77 190 96 117 q 57 366 57 262 q 130 655 57 562 q 349 747 203 747 q 424 740 389 747 q 488 718 458 732 l 518 775 l 623 775 l 561 663 m 281 147 q 349 123 309 123 q 440 179 413 123 q 467 339 467 234 l 467 392 q 465 438 467 416 q 461 479 463 460 l 281 147 m 349 607 q 257 552 284 607 q 231 392 231 496 l 231 339 q 235 254 231 292 l 414 585 q 349 607 388 607 z "},"ù":{"ha":696,"x_min":77,"x_max":619,"o":"m 619 0 l 481 0 l 464 90 l 456 90 q 423 49 441 68 q 382 15 405 30 q 331 -8 359 1 q 271 -17 303 -17 q 193 -4 229 -17 q 132 36 157 8 q 91 109 106 64 q 77 218 77 154 l 77 730 l 243 730 l 243 264 q 268 164 243 193 q 339 135 292 135 q 384 146 363 135 q 420 176 405 157 q 444 221 435 195 q 453 278 453 248 l 453 730 l 619 730 l 619 0 m 444 821 l 306 821 l 156 1000 l 157 1004 l 324 1004 l 444 821 z "},"ú":{"ha":696,"x_min":77,"x_max":619,"o":"m 619 0 l 481 0 l 464 90 l 456 90 q 423 49 441 68 q 382 15 405 30 q 331 -8 359 1 q 271 -17 303 -17 q 193 -4 229 -17 q 132 36 157 8 q 91 109 106 64 q 77 218 77 154 l 77 730 l 243 730 l 243 264 q 268 164 243 193 q 339 135 292 135 q 384 146 363 135 q 420 176 405 157 q 444 221 435 195 q 453 278 453 248 l 453 730 l 619 730 l 619 0 m 540 1000 l 390 821 l 252 821 l 372 1004 l 538 1004 l 540 1000 z "},"û":{"ha":696,"x_min":77,"x_max":619,"o":"m 619 0 l 481 0 l 464 90 l 456 90 q 423 49 441 68 q 382 15 405 30 q 331 -8 359 1 q 271 -17 303 -17 q 193 -4 229 -17 q 132 36 157 8 q 91 109 106 64 q 77 218 77 154 l 77 730 l 243 730 l 243 264 q 268 164 243 193 q 339 135 292 135 q 384 146 363 135 q 420 176 405 157 q 444 221 435 195 q 453 278 453 248 l 453 730 l 619 730 l 619 0 m 535 817 l 410 817 l 349 913 l 286 817 l 161 817 l 281 1004 l 417 1004 l 535 817 z "},"ü":{"ha":696,"x_min":77,"x_max":619,"o":"m 619 0 l 481 0 l 464 90 l 456 90 q 423 49 441 68 q 382 15 405 30 q 331 -8 359 1 q 271 -17 303 -17 q 193 -4 229 -17 q 132 36 157 8 q 91 109 106 64 q 77 218 77 154 l 77 730 l 243 730 l 243 264 q 268 164 243 193 q 339 135 292 135 q 384 146 363 135 q 420 176 405 157 q 444 221 435 195 q 453 278 453 248 l 453 730 l 619 730 l 619 0 m 296 852 l 157 852 l 157 1004 l 296 1004 l 296 852 m 539 852 l 400 852 l 400 1004 l 539 1004 l 539 852 z "},"ý":{"ha":633,"x_min":5,"x_max":628,"o":"m 428 37 q 388 -75 410 -22 q 334 -167 365 -127 q 263 -230 303 -207 q 170 -253 222 -253 q 90 -247 119 -253 q 61 -240 61 -241 l 61 -113 l 136 -113 q 203 -86 172 -113 q 249 0 234 -60 l 5 730 l 182 730 l 292 387 q 306 334 298 366 q 318 271 313 302 q 330 197 325 235 l 336 197 q 347 268 341 233 q 358 330 353 298 q 371 386 364 362 l 461 730 l 628 730 l 428 37 m 509 1000 l 359 821 l 221 821 l 340 1004 l 507 1004 l 509 1000 z "},"þ":{"ha":696,"x_min":77,"x_max":639,"o":"m 77 1004 l 243 1004 l 243 647 q 312 723 271 698 q 404 747 354 747 q 502 725 458 747 q 576 655 545 702 q 623 536 606 608 q 639 364 639 464 q 622 193 639 264 q 574 74 604 121 q 503 5 544 27 q 412 -17 461 -17 q 314 7 357 -17 q 250 75 270 31 l 243 75 l 243 -240 l 77 -240 l 77 1004 m 243 342 q 268 189 243 243 q 354 135 294 135 q 440 188 414 135 q 465 339 465 240 l 465 392 q 440 543 465 490 q 354 596 414 596 q 268 543 294 596 q 243 392 243 490 l 243 342 z "},"ÿ":{"ha":633,"x_min":5,"x_max":628,"o":"m 428 37 q 388 -75 410 -22 q 334 -167 365 -127 q 263 -230 303 -207 q 170 -253 222 -253 q 90 -247 119 -253 q 61 -240 61 -241 l 61 -113 l 136 -113 q 203 -86 172 -113 q 249 0 234 -60 l 5 730 l 182 730 l 292 387 q 306 334 298 366 q 318 271 313 302 q 330 197 325 235 l 336 197 q 347 268 341 233 q 358 330 353 298 q 371 386 364 362 l 461 730 l 628 730 l 428 37 m 265 852 l 126 852 l 126 1004 l 265 1004 l 265 852 m 508 852 l 369 852 l 369 1004 l 508 1004 l 508 852 z "},"Ă":{"ha":822,"x_min":0,"x_max":821,"o":"m 821 0 l 639 0 l 581 187 l 229 187 l 172 0 l 0 0 l 307 953 l 514 953 l 821 0 m 403 793 q 394 745 399 768 q 385 703 390 725 q 375 664 380 680 l 278 346 l 532 346 l 436 664 q 425 705 431 683 q 416 747 420 728 q 408 793 412 770 l 403 793 m 597 1227 q 584 1174 597 1200 q 547 1126 571 1147 q 488 1092 523 1105 q 410 1078 454 1078 q 333 1092 368 1078 q 275 1126 299 1105 q 239 1174 252 1147 q 226 1227 226 1200 l 329 1227 q 337 1211 330 1219 q 354 1196 343 1203 q 379 1185 365 1190 q 410 1181 393 1181 q 443 1185 428 1181 q 469 1196 458 1190 q 486 1211 479 1203 q 494 1227 492 1219 l 597 1227 z "},"Ā":{"ha":822,"x_min":0,"x_max":821,"o":"m 821 0 l 639 0 l 581 187 l 229 187 l 172 0 l 0 0 l 307 953 l 514 953 l 821 0 m 403 793 q 394 745 399 768 q 385 703 390 725 q 375 664 380 680 l 278 346 l 532 346 l 436 664 q 425 705 431 683 q 416 747 420 728 q 408 793 412 770 l 403 793 m 589 1055 l 234 1055 l 234 1175 l 589 1175 l 589 1055 z "},"Ą":{"ha":822,"x_min":0,"x_max":872,"o":"m 821 0 q 807 -18 814 -7 q 794 -41 800 -28 q 783 -68 787 -54 q 779 -97 779 -83 q 783 -123 779 -111 q 793 -145 786 -136 q 812 -161 800 -155 q 842 -168 824 -168 l 872 -168 l 872 -244 q 826 -259 848 -254 q 781 -264 804 -264 q 732 -258 757 -264 q 688 -237 707 -252 q 655 -198 668 -222 q 643 -138 643 -174 q 648 -93 643 -113 q 663 -55 654 -72 q 684 -22 672 -37 q 703 0 694 -11 l 639 0 l 581 187 l 229 187 l 172 0 l 0 0 l 307 953 l 514 953 l 819 6 l 821 0 m 403 793 q 394 745 399 768 q 385 703 390 725 q 375 664 380 680 l 278 346 l 532 346 l 436 664 q 425 705 431 683 q 416 747 420 728 q 408 793 412 770 l 403 793 z "},"Ǻ":{"ha":848,"x_min":0,"x_max":821,"o":"m 412 1140 q 464 1129 439 1140 q 506 1101 488 1119 q 534 1060 524 1084 q 545 1011 545 1037 q 534 961 545 985 q 519 936 528 947 l 821 0 l 639 0 l 581 187 l 229 187 l 172 0 l 0 0 l 302 937 q 288 960 294 947 q 278 1011 278 984 q 289 1061 278 1038 q 317 1102 299 1084 q 359 1130 335 1120 q 412 1140 384 1140 m 403 793 q 394 745 399 768 q 385 703 390 725 q 375 664 380 680 l 278 346 l 532 346 l 436 664 q 425 705 431 683 q 416 747 420 728 q 408 793 412 770 l 403 793 m 617 1324 l 489 1178 l 351 1178 l 449 1329 l 616 1329 l 617 1324 m 412 1073 q 366 1055 384 1073 q 347 1011 347 1038 q 366 966 347 984 q 412 949 384 949 q 436 954 425 949 q 456 966 448 958 q 470 986 465 975 q 475 1011 475 998 q 470 1036 475 1024 q 456 1055 465 1047 q 436 1068 448 1063 q 412 1073 425 1073 z "},"Ć":{"ha":822,"x_min":47,"x_max":777,"o":"m 427 970 q 565 948 501 970 q 676 881 629 926 q 750 766 723 836 q 777 599 777 696 l 595 599 q 583 695 595 654 q 548 763 570 736 q 495 803 526 790 q 427 817 464 817 q 340 795 377 817 q 279 735 303 774 q 242 639 254 696 q 231 511 231 583 l 231 441 q 243 314 231 370 q 280 218 255 257 q 343 157 305 178 q 432 136 381 136 q 502 150 471 136 q 556 190 534 163 q 591 257 578 216 q 603 353 603 298 l 777 353 q 750 190 777 259 q 677 74 724 120 q 566 6 630 28 q 427 -17 502 -17 q 267 13 337 -17 q 147 104 196 43 q 73 257 98 165 q 47 476 47 350 q 73 695 47 602 q 147 849 98 788 q 267 940 196 910 q 427 970 337 970 m 618 1223 l 468 1043 l 330 1043 l 450 1227 l 616 1227 l 618 1223 z "},"Č":{"ha":822,"x_min":47,"x_max":777,"o":"m 427 970 q 565 948 501 970 q 676 881 629 926 q 750 766 723 836 q 777 599 777 696 l 595 599 q 583 695 595 654 q 548 763 570 736 q 495 803 526 790 q 427 817 464 817 q 340 795 377 817 q 279 735 303 774 q 242 639 254 696 q 231 511 231 583 l 231 441 q 243 314 231 370 q 280 218 255 257 q 343 157 305 178 q 432 136 381 136 q 502 150 471 136 q 556 190 534 163 q 591 257 578 216 q 603 353 603 298 l 777 353 q 750 190 777 259 q 677 74 724 120 q 566 6 630 28 q 427 -17 502 -17 q 267 13 337 -17 q 147 104 196 43 q 73 257 98 165 q 47 476 47 350 q 73 695 47 602 q 147 849 98 788 q 267 940 196 910 q 427 970 337 970 m 495 1039 l 359 1039 l 239 1227 l 364 1227 l 427 1131 l 488 1227 l 613 1227 l 495 1039 z "},"Ĉ":{"ha":822,"x_min":47,"x_max":777,"o":"m 427 970 q 565 948 501 970 q 676 881 629 926 q 750 766 723 836 q 777 599 777 696 l 595 599 q 583 695 595 654 q 548 763 570 736 q 495 803 526 790 q 427 817 464 817 q 340 795 377 817 q 279 735 303 774 q 242 639 254 696 q 231 511 231 583 l 231 441 q 243 314 231 370 q 280 218 255 257 q 343 157 305 178 q 432 136 381 136 q 502 150 471 136 q 556 190 534 163 q 591 257 578 216 q 603 353 603 298 l 777 353 q 750 190 777 259 q 677 74 724 120 q 566 6 630 28 q 427 -17 502 -17 q 267 13 337 -17 q 147 104 196 43 q 73 257 98 165 q 47 476 47 350 q 73 695 47 602 q 147 849 98 788 q 267 940 196 910 q 427 970 337 970 m 613 1039 l 488 1039 l 427 1135 l 364 1039 l 239 1039 l 359 1227 l 495 1227 l 613 1039 z "},"Ċ":{"ha":822,"x_min":47,"x_max":777,"o":"m 427 970 q 565 948 501 970 q 676 881 629 926 q 750 766 723 836 q 777 599 777 696 l 595 599 q 583 695 595 654 q 548 763 570 736 q 495 803 526 790 q 427 817 464 817 q 340 795 377 817 q 279 735 303 774 q 242 639 254 696 q 231 511 231 583 l 231 441 q 243 314 231 370 q 280 218 255 257 q 343 157 305 178 q 432 136 381 136 q 502 150 471 136 q 556 190 534 163 q 591 257 578 216 q 603 353 603 298 l 777 353 q 750 190 777 259 q 677 74 724 120 q 566 6 630 28 q 427 -17 502 -17 q 267 13 337 -17 q 147 104 196 43 q 73 257 98 165 q 47 476 47 350 q 73 695 47 602 q 147 849 98 788 q 267 940 196 910 q 427 970 337 970 m 500 1067 l 352 1067 l 352 1227 l 500 1227 l 500 1067 z "},"Ď":{"ha":822,"x_min":83,"x_max":775,"o":"m 421 1039 l 285 1039 l 165 1226 l 290 1226 l 353 1131 l 414 1226 l 539 1226 l 421 1039 m 83 0 l 83 953 l 393 953 q 553 924 482 953 q 673 837 624 895 q 749 692 722 779 q 775 490 775 606 q 749 276 775 368 q 673 123 722 184 q 553 31 624 62 q 393 0 482 0 l 83 0 m 261 794 l 261 158 l 376 158 q 466 177 426 158 q 533 232 505 195 q 576 325 562 269 q 591 456 591 381 l 591 525 q 576 643 591 592 q 533 727 562 693 q 466 777 505 760 q 376 794 426 794 l 261 794 z "},"Đ":{"ha":822,"x_min":14,"x_max":775,"o":"m 14 551 l 83 551 l 83 953 l 393 953 q 553 924 482 953 q 673 837 624 895 q 749 692 722 779 q 775 490 775 606 q 749 276 775 368 q 673 123 722 184 q 553 31 624 62 q 393 0 482 0 l 83 0 l 83 433 l 14 433 l 14 551 m 261 794 l 261 551 l 435 551 l 435 433 l 261 433 l 261 158 l 376 158 q 466 177 426 158 q 533 232 505 195 q 576 325 562 269 q 591 456 591 381 l 591 525 q 576 643 591 592 q 533 727 562 693 q 466 777 505 760 q 376 794 426 794 l 261 794 z "},"Ĕ":{"ha":760,"x_min":83,"x_max":699,"o":"m 566 1226 q 553 1174 566 1200 q 516 1126 540 1147 q 457 1091 492 1105 q 379 1078 422 1078 q 302 1091 336 1078 q 244 1126 268 1105 q 208 1174 220 1147 q 195 1226 195 1200 l 297 1226 q 305 1211 298 1219 q 322 1196 312 1203 q 348 1185 333 1190 q 379 1181 362 1181 q 412 1185 397 1181 q 437 1196 427 1190 q 455 1211 448 1203 q 463 1226 461 1219 l 566 1226 m 83 0 l 83 953 l 690 953 l 690 794 l 261 794 l 261 567 l 629 567 l 629 408 l 261 408 l 261 158 l 699 158 l 699 0 l 83 0 z "},"Ě":{"ha":760,"x_min":83,"x_max":699,"o":"m 449 1039 l 313 1039 l 193 1226 l 318 1226 l 380 1131 l 441 1226 l 567 1226 l 449 1039 m 83 0 l 83 953 l 690 953 l 690 794 l 261 794 l 261 567 l 629 567 l 629 408 l 261 408 l 261 158 l 699 158 l 699 0 l 83 0 z "},"Ė":{"ha":760,"x_min":83,"x_max":699,"o":"m 454 1067 l 306 1067 l 306 1226 l 454 1226 l 454 1067 m 83 0 l 83 953 l 690 953 l 690 794 l 261 794 l 261 567 l 629 567 l 629 408 l 261 408 l 261 158 l 699 158 l 699 0 l 83 0 z "},"Ē":{"ha":760,"x_min":83,"x_max":699,"o":"m 557 1054 l 203 1054 l 203 1175 l 557 1175 l 557 1054 m 83 0 l 83 953 l 690 953 l 690 794 l 261 794 l 261 567 l 629 567 l 629 408 l 261 408 l 261 158 l 699 158 l 699 0 l 83 0 z "},"Ŋ":{"ha":823,"x_min":83,"x_max":739,"o":"m 286 525 q 275 547 282 532 q 260 576 268 562 q 243 614 252 594 l 237 610 q 239 579 238 594 q 240 553 239 566 q 240 530 240 540 l 240 0 l 83 0 l 83 953 l 240 953 l 534 428 q 548 404 540 418 q 562 374 555 389 q 578 339 570 357 l 582 343 q 581 377 581 361 q 581 404 581 391 q 581 422 581 416 l 581 953 l 739 953 l 739 -57 q 731 -129 739 -94 q 704 -191 724 -163 q 652 -236 685 -219 q 570 -253 619 -253 q 537 -252 554 -253 q 504 -248 520 -250 q 474 -242 488 -245 q 449 -236 460 -239 l 449 -113 l 511 -113 q 560 -96 544 -113 q 576 -46 576 -79 l 576 0 l 286 525 z "},"Ę":{"ha":760,"x_min":83,"x_max":750,"o":"m 690 794 l 261 794 l 261 567 l 629 567 l 629 408 l 261 408 l 261 158 l 699 158 l 699 0 q 685 -18 692 -7 q 672 -41 678 -28 q 661 -68 665 -54 q 657 -97 657 -83 q 661 -123 657 -111 q 671 -146 664 -136 q 690 -162 678 -156 q 720 -168 702 -168 l 750 -168 l 750 -244 q 704 -259 726 -254 q 659 -264 682 -264 q 610 -258 635 -264 q 566 -237 585 -252 q 533 -199 546 -223 q 521 -139 521 -175 q 526 -95 521 -115 q 539 -58 530 -75 q 558 -27 547 -41 q 582 0 570 -13 l 83 0 l 83 953 l 690 953 l 690 794 z "},"Ğ":{"ha":886,"x_min":47,"x_max":815,"o":"m 452 970 q 589 947 524 970 q 705 880 655 924 q 785 770 755 836 q 815 619 815 705 l 633 619 q 618 705 633 668 q 578 766 604 741 q 518 804 553 791 q 446 817 484 817 q 349 795 390 817 q 282 735 309 774 q 243 639 256 696 q 231 511 231 583 l 231 441 q 243 312 231 369 q 283 216 256 255 q 351 157 310 177 q 447 136 391 136 q 522 153 488 136 q 581 199 556 169 q 620 271 606 229 q 633 366 633 313 l 419 366 l 419 518 l 815 518 l 815 0 l 700 0 l 669 106 q 557 14 623 45 q 415 -17 491 -17 q 259 13 328 -17 q 144 103 191 42 q 72 256 97 163 q 47 476 47 349 q 75 695 47 602 q 153 849 102 788 q 280 940 205 910 q 452 970 355 970 m 629 1227 q 616 1174 629 1200 q 579 1126 604 1147 q 521 1092 555 1105 q 443 1078 486 1078 q 366 1092 400 1078 q 308 1126 332 1105 q 271 1174 284 1147 q 258 1227 258 1200 l 361 1227 q 369 1211 363 1219 q 387 1196 376 1203 q 412 1185 397 1190 q 443 1181 426 1181 q 475 1185 460 1181 q 501 1196 490 1190 q 518 1211 512 1203 q 526 1227 525 1219 l 629 1227 z "},"Ĝ":{"ha":886,"x_min":47,"x_max":815,"o":"m 452 970 q 589 947 524 970 q 705 880 655 924 q 785 770 755 836 q 815 619 815 705 l 633 619 q 618 705 633 668 q 578 766 604 741 q 518 804 553 791 q 446 817 484 817 q 349 795 390 817 q 282 735 309 774 q 243 639 256 696 q 231 511 231 583 l 231 441 q 243 312 231 369 q 283 216 256 255 q 351 157 310 177 q 447 136 391 136 q 522 153 488 136 q 581 199 556 169 q 620 271 606 229 q 633 366 633 313 l 419 366 l 419 518 l 815 518 l 815 0 l 700 0 l 669 106 q 557 14 623 45 q 415 -17 491 -17 q 259 13 328 -17 q 144 103 191 42 q 72 256 97 163 q 47 476 47 349 q 75 695 47 602 q 153 849 102 788 q 280 940 205 910 q 452 970 355 970 m 631 1039 l 506 1039 l 444 1135 l 382 1039 l 257 1039 l 376 1227 l 513 1227 l 631 1039 z "},"Ģ":{"ha":886,"x_min":47,"x_max":815,"o":"m 452 970 q 589 947 524 970 q 705 880 655 924 q 785 770 755 836 q 815 619 815 705 l 633 619 q 618 705 633 668 q 578 766 604 741 q 518 804 553 791 q 446 817 484 817 q 349 795 390 817 q 282 735 309 774 q 243 639 256 696 q 231 511 231 583 l 231 441 q 243 312 231 369 q 283 216 256 255 q 351 157 310 177 q 447 136 391 136 q 522 153 488 136 q 581 199 556 169 q 620 271 606 229 q 633 366 633 313 l 419 366 l 419 518 l 815 518 l 815 0 l 700 0 l 669 106 q 557 14 623 45 q 415 -17 491 -17 q 259 13 328 -17 q 144 103 191 42 q 72 256 97 163 q 47 476 47 349 q 75 695 47 602 q 153 849 102 788 q 280 940 205 910 q 452 970 355 970 m 507 -232 l 444 -365 l 354 -365 l 404 -248 l 336 -248 l 336 -77 l 507 -77 l 507 -232 z "},"Ġ":{"ha":886,"x_min":47,"x_max":815,"o":"m 452 970 q 589 947 524 970 q 705 880 655 924 q 785 770 755 836 q 815 619 815 705 l 633 619 q 618 705 633 668 q 578 766 604 741 q 518 804 553 791 q 446 817 484 817 q 349 795 390 817 q 282 735 309 774 q 243 639 256 696 q 231 511 231 583 l 231 441 q 243 312 231 369 q 283 216 256 255 q 351 157 310 177 q 447 136 391 136 q 522 153 488 136 q 581 199 556 169 q 620 271 606 229 q 633 366 633 313 l 419 366 l 419 518 l 815 518 l 815 0 l 700 0 l 669 106 q 557 14 623 45 q 415 -17 491 -17 q 259 13 328 -17 q 144 103 191 42 q 72 256 97 163 q 47 476 47 349 q 75 695 47 602 q 153 849 102 788 q 280 940 205 910 q 452 970 355 970 m 518 1067 l 370 1067 l 370 1227 l 518 1227 l 518 1067 z "},"Ħ":{"ha":822,"x_min":14,"x_max":808,"o":"m 808 681 l 739 681 l 739 0 l 561 0 l 561 399 l 261 399 l 261 0 l 83 0 l 83 681 l 14 681 l 14 802 l 83 802 l 83 953 l 261 953 l 261 802 l 561 802 l 561 953 l 739 953 l 739 802 l 808 802 l 808 681 m 561 557 l 561 681 l 261 681 l 261 557 l 561 557 z "},"Ĥ":{"ha":822,"x_min":83,"x_max":739,"o":"m 599 1039 l 473 1039 l 411 1135 l 349 1039 l 225 1039 l 345 1226 l 481 1226 l 599 1039 m 561 408 l 261 408 l 261 0 l 83 0 l 83 953 l 261 953 l 261 567 l 561 567 l 561 953 l 739 953 l 739 0 l 561 0 l 561 408 z "},"Ĳ":{"ha":950,"x_min":69,"x_max":867,"o":"m 248 0 l 69 0 l 69 953 l 248 953 l 248 0 m 505 300 l 505 240 q 529 163 505 190 q 599 136 553 136 q 666 163 644 136 q 689 240 689 190 l 689 953 l 867 953 l 867 227 q 798 45 867 106 q 599 -17 729 -17 q 399 45 469 -17 q 329 227 329 107 l 329 300 l 505 300 z "},"Ĭ":{"ha":317,"x_min":-27,"x_max":345,"o":"m 248 0 l 69 0 l 69 953 l 248 953 l 248 0 m 345 1227 q 332 1174 345 1200 q 295 1126 319 1147 q 236 1092 271 1105 q 158 1078 201 1078 q 81 1092 115 1078 q 23 1126 47 1105 q -14 1174 -1 1147 q -27 1227 -27 1200 l 77 1227 q 84 1211 78 1219 q 102 1196 91 1203 q 127 1185 113 1190 q 158 1181 141 1181 q 191 1185 176 1181 q 216 1196 205 1190 q 234 1211 227 1203 q 241 1227 240 1219 l 345 1227 z "},"İ":{"ha":317,"x_min":69,"x_max":248,"o":"m 248 0 l 69 0 l 69 953 l 248 953 l 248 0 m 233 1067 l 85 1067 l 85 1227 l 233 1227 l 233 1067 z "},"Ī":{"ha":317,"x_min":-19,"x_max":336,"o":"m 248 0 l 69 0 l 69 953 l 248 953 l 248 0 m 336 1055 l -19 1055 l -19 1175 l 336 1175 l 336 1055 z "},"Į":{"ha":317,"x_min":69,"x_max":299,"o":"m 248 0 q 234 -18 241 -7 q 221 -41 227 -28 q 210 -68 214 -54 q 206 -97 206 -83 q 210 -123 206 -111 q 220 -145 213 -136 q 239 -161 227 -155 q 269 -168 251 -168 l 299 -168 l 299 -244 q 253 -259 275 -254 q 208 -264 231 -264 q 159 -258 184 -264 q 115 -237 134 -252 q 82 -198 95 -222 q 70 -138 70 -174 q 75 -93 70 -113 q 90 -55 81 -72 q 111 -22 99 -37 q 130 0 121 -11 l 69 0 l 69 953 l 248 953 l 248 0 z "},"Ĩ":{"ha":317,"x_min":-75,"x_max":393,"o":"m 248 0 l 69 0 l 69 953 l 248 953 l 248 0 m 393 1227 q 385 1168 393 1198 q 360 1113 377 1138 q 318 1073 344 1088 q 255 1057 292 1057 q 207 1065 230 1057 q 162 1083 184 1074 q 117 1101 140 1093 q 72 1109 95 1109 q 36 1097 50 1109 q 18 1057 22 1086 l -75 1057 q -67 1116 -75 1086 q -43 1171 -60 1146 q -1 1211 -27 1195 q 62 1227 25 1227 q 111 1219 87 1227 q 156 1201 134 1211 q 201 1183 178 1192 q 247 1175 223 1175 q 282 1186 269 1175 q 300 1227 296 1197 l 393 1227 z "},"Ĵ":{"ha":633,"x_min":12,"x_max":665,"o":"m 665 1039 l 542 1039 l 479 1135 l 416 1039 l 292 1039 l 411 1226 l 549 1226 l 665 1039 m 189 300 l 189 240 q 213 163 189 190 q 282 136 236 136 q 350 163 327 136 q 372 240 372 190 l 372 953 l 550 953 l 550 227 q 481 45 550 106 q 282 -17 412 -17 q 82 45 153 -17 q 12 227 12 107 l 12 300 l 189 300 z "},"Ķ":{"ha":822,"x_min":83,"x_max":818,"o":"m 497 -232 l 433 -366 l 345 -366 l 393 -248 l 325 -248 l 325 -77 l 497 -77 l 497 -232 m 262 465 l 611 953 l 810 953 l 528 566 l 818 0 l 618 0 l 411 425 l 262 243 l 262 0 l 83 0 l 83 953 l 262 953 l 262 465 z "},"Ĺ":{"ha":696,"x_min":81,"x_max":664,"o":"m 368 1222 l 218 1043 l 81 1043 l 200 1226 l 367 1226 l 368 1222 m 83 953 l 261 953 l 261 167 l 664 167 l 664 0 l 83 0 l 83 953 z "},"Ľ":{"ha":696,"x_min":83,"x_max":664,"o":"m 664 779 l 572 546 l 472 546 l 549 762 l 472 762 l 472 953 l 664 953 l 664 779 m 83 953 l 261 953 l 261 167 l 664 167 l 664 0 l 83 0 l 83 953 z "},"Ļ":{"ha":696,"x_min":83,"x_max":664,"o":"m 433 -232 l 371 -366 l 281 -366 l 330 -248 l 262 -248 l 262 -77 l 433 -77 l 433 -232 m 83 953 l 261 953 l 261 167 l 664 167 l 664 0 l 83 0 l 83 953 z "},"Ŀ":{"ha":696,"x_min":83,"x_max":664,"o":"m 583 568 l 435 568 l 435 728 l 583 728 l 583 568 m 83 953 l 261 953 l 261 167 l 664 167 l 664 0 l 83 0 l 83 953 z "},"Ł":{"ha":696,"x_min":0,"x_max":664,"o":"m 422 629 l 261 486 l 261 167 l 664 167 l 664 0 l 83 0 l 83 329 l 0 256 l 0 387 l 83 461 l 83 953 l 261 953 l 261 619 l 422 764 l 422 629 z "},"Ń":{"ha":822,"x_min":83,"x_max":739,"o":"m 603 1222 l 453 1043 l 315 1043 l 435 1226 l 602 1226 l 603 1222 m 581 0 l 286 525 q 275 547 282 532 q 260 576 268 562 q 243 614 252 594 l 237 610 q 239 579 238 594 q 240 553 239 566 q 240 530 240 540 l 240 0 l 83 0 l 83 953 l 240 953 l 534 428 q 548 404 540 418 q 562 374 555 389 q 578 339 570 357 l 582 343 q 581 377 581 361 q 581 404 581 391 q 581 422 581 416 l 581 953 l 739 953 l 739 0 l 581 0 z "},"Ň":{"ha":822,"x_min":83,"x_max":739,"o":"m 481 1039 l 345 1039 l 225 1226 l 349 1226 l 411 1131 l 473 1226 l 599 1226 l 481 1039 m 581 0 l 286 525 q 275 547 282 532 q 260 576 268 562 q 243 614 252 594 l 237 610 q 239 579 238 594 q 240 553 239 566 q 240 530 240 540 l 240 0 l 83 0 l 83 953 l 240 953 l 534 428 q 548 404 540 418 q 562 374 555 389 q 578 339 570 357 l 582 343 q 581 377 581 361 q 581 404 581 391 q 581 422 581 416 l 581 953 l 739 953 l 739 0 l 581 0 z "},"Ņ":{"ha":822,"x_min":83,"x_max":739,"o":"m 497 -232 l 433 -366 l 345 -366 l 393 -248 l 325 -248 l 325 -77 l 497 -77 l 497 -232 m 581 0 l 286 525 q 275 547 282 532 q 260 576 268 562 q 243 614 252 594 l 237 610 q 239 579 238 594 q 240 553 239 566 q 240 530 240 540 l 240 0 l 83 0 l 83 953 l 240 953 l 534 428 q 548 404 540 418 q 562 374 555 389 q 578 339 570 357 l 582 343 q 581 377 581 361 q 581 404 581 391 q 581 422 581 416 l 581 953 l 739 953 l 739 0 l 581 0 z "},"Ŏ":{"ha":886,"x_min":47,"x_max":839,"o":"m 443 970 q 609 940 535 970 q 733 849 682 910 q 812 695 785 788 q 839 476 839 602 q 812 257 839 350 q 733 104 785 165 q 609 13 682 43 q 443 -17 535 -17 q 277 13 351 -17 q 153 104 204 43 q 75 257 102 165 q 47 476 47 350 q 75 695 47 602 q 153 849 102 788 q 277 940 204 910 q 443 970 351 970 m 443 817 q 350 795 390 817 q 283 735 310 774 q 244 639 257 696 q 231 511 231 583 l 231 441 q 244 314 231 370 q 283 218 257 257 q 350 157 310 178 q 443 136 390 136 q 536 157 496 136 q 603 218 576 178 q 643 314 629 257 q 656 441 656 370 l 656 511 q 643 639 656 583 q 603 735 629 696 q 536 795 576 774 q 443 817 496 817 m 629 1227 q 616 1174 629 1200 q 579 1126 604 1147 q 521 1092 555 1105 q 443 1078 486 1078 q 366 1092 400 1078 q 308 1126 332 1105 q 271 1174 284 1147 q 258 1227 258 1200 l 361 1227 q 369 1211 363 1219 q 387 1196 376 1203 q 412 1185 397 1190 q 443 1181 426 1181 q 475 1185 460 1181 q 501 1196 490 1190 q 518 1211 512 1203 q 526 1227 525 1219 l 629 1227 z "},"Ő":{"ha":886,"x_min":47,"x_max":839,"o":"m 443 970 q 609 940 535 970 q 733 849 682 910 q 812 695 785 788 q 839 476 839 602 q 812 257 839 350 q 733 104 785 165 q 609 13 682 43 q 443 -17 535 -17 q 277 13 351 -17 q 153 104 204 43 q 75 257 102 165 q 47 476 47 350 q 75 695 47 602 q 153 849 102 788 q 277 940 204 910 q 443 970 351 970 m 443 817 q 350 795 390 817 q 283 735 310 774 q 244 639 257 696 q 231 511 231 583 l 231 441 q 244 314 231 370 q 283 218 257 257 q 350 157 310 178 q 443 136 390 136 q 536 157 496 136 q 603 218 576 178 q 643 314 629 257 q 656 441 656 370 l 656 511 q 643 639 656 583 q 603 735 629 696 q 536 795 576 774 q 443 817 496 817 m 513 1223 l 397 1043 l 287 1043 l 373 1227 l 512 1227 l 513 1223 m 708 1223 l 591 1043 l 481 1043 l 568 1227 l 707 1227 l 708 1223 z "},"Ō":{"ha":886,"x_min":47,"x_max":839,"o":"m 443 970 q 609 940 535 970 q 733 849 682 910 q 812 695 785 788 q 839 476 839 602 q 812 257 839 350 q 733 104 785 165 q 609 13 682 43 q 443 -17 535 -17 q 277 13 351 -17 q 153 104 204 43 q 75 257 102 165 q 47 476 47 350 q 75 695 47 602 q 153 849 102 788 q 277 940 204 910 q 443 970 351 970 m 443 817 q 350 795 390 817 q 283 735 310 774 q 244 639 257 696 q 231 511 231 583 l 231 441 q 244 314 231 370 q 283 218 257 257 q 350 157 310 178 q 443 136 390 136 q 536 157 496 136 q 603 218 576 178 q 643 314 629 257 q 656 441 656 370 l 656 511 q 643 639 656 583 q 603 735 629 696 q 536 795 576 774 q 443 817 496 817 m 621 1055 l 267 1055 l 267 1175 l 621 1175 l 621 1055 z "},"Ǿ":{"ha":886,"x_min":47,"x_max":839,"o":"m 733 847 q 812 694 785 786 q 839 476 839 602 q 812 257 839 350 q 733 104 785 165 q 609 13 682 43 q 443 -17 535 -17 q 228 37 318 -17 l 172 -52 l 56 -52 l 153 104 q 75 257 102 165 q 47 476 47 350 q 75 695 47 602 q 153 849 102 788 q 277 940 204 910 q 443 970 351 970 q 659 914 570 970 l 715 1004 l 832 1004 l 733 847 m 317 179 q 443 136 366 136 q 536 157 496 136 q 603 218 576 178 q 643 314 629 257 q 656 441 656 370 l 656 511 q 649 603 656 560 q 629 681 643 646 l 317 179 m 443 817 q 350 795 390 817 q 283 735 310 774 q 244 639 257 696 q 231 511 231 583 l 231 441 q 237 348 231 391 q 256 269 243 305 l 570 772 q 443 817 522 817 m 635 1223 l 486 1043 l 348 1043 l 467 1227 l 634 1227 l 635 1223 z "},"Ŕ":{"ha":822,"x_min":83,"x_max":798,"o":"m 603 1222 l 453 1043 l 315 1043 l 435 1226 l 602 1226 l 603 1222 m 261 397 l 261 0 l 83 0 l 83 953 l 482 953 q 609 932 554 953 q 700 876 663 912 q 755 790 736 840 q 774 681 774 740 q 763 600 774 637 q 731 530 751 562 q 681 475 710 499 q 614 436 651 451 l 798 0 l 604 0 l 446 397 l 261 397 m 261 794 l 261 554 l 457 554 q 552 588 522 554 q 582 681 582 621 q 554 764 582 733 q 464 794 526 794 l 261 794 z "},"Ř":{"ha":822,"x_min":83,"x_max":798,"o":"m 481 1039 l 345 1039 l 225 1226 l 349 1226 l 411 1131 l 473 1226 l 599 1226 l 481 1039 m 261 397 l 261 0 l 83 0 l 83 953 l 482 953 q 609 932 554 953 q 700 876 663 912 q 755 790 736 840 q 774 681 774 740 q 763 600 774 637 q 731 530 751 562 q 681 475 710 499 q 614 436 651 451 l 798 0 l 604 0 l 446 397 l 261 397 m 261 794 l 261 554 l 457 554 q 552 588 522 554 q 582 681 582 621 q 554 764 582 733 q 464 794 526 794 l 261 794 z "},"Ŗ":{"ha":822,"x_min":83,"x_max":798,"o":"m 497 -232 l 433 -366 l 345 -366 l 393 -248 l 325 -248 l 325 -77 l 497 -77 l 497 -232 m 261 397 l 261 0 l 83 0 l 83 953 l 482 953 q 609 932 554 953 q 700 876 663 912 q 755 790 736 840 q 774 681 774 740 q 763 600 774 637 q 731 530 751 562 q 681 475 710 499 q 614 436 651 451 l 798 0 l 604 0 l 446 397 l 261 397 m 261 794 l 261 554 l 457 554 q 552 588 522 554 q 582 681 582 621 q 554 764 582 733 q 464 794 526 794 l 261 794 z "},"Ś":{"ha":760,"x_min":41,"x_max":707,"o":"m 379 970 q 499 954 443 970 q 597 903 555 937 q 664 815 640 869 q 689 689 689 762 l 689 672 l 507 672 l 507 685 q 473 781 507 745 q 378 817 439 817 q 278 788 313 817 q 244 715 244 760 q 264 656 244 680 q 317 616 284 633 q 391 587 349 600 q 475 559 432 574 q 560 525 519 545 q 634 474 602 505 q 687 397 667 443 q 707 286 707 352 q 682 146 707 204 q 613 53 657 89 q 507 0 568 16 q 371 -17 445 -17 q 245 2 305 -17 q 140 58 186 20 q 68 151 95 95 q 41 279 41 206 q 42 296 41 288 q 43 310 43 304 l 228 310 q 227 300 228 308 q 227 288 227 293 q 237 226 227 254 q 267 178 247 198 q 314 147 286 158 q 379 136 342 136 q 447 146 419 136 q 492 172 475 156 q 516 208 509 188 q 524 249 524 228 q 511 307 524 283 q 475 348 498 331 q 424 378 453 366 q 361 402 394 391 q 292 425 328 413 q 224 451 257 436 q 161 488 191 467 q 109 538 132 509 q 74 608 87 568 q 61 703 61 648 q 87 821 61 770 q 157 904 113 871 q 258 954 201 937 q 379 970 316 970 m 572 1223 l 422 1043 l 284 1043 l 404 1227 l 570 1227 l 572 1223 z "},"Ş":{"ha":760,"x_min":41,"x_max":707,"o":"m 404 -46 q 447 -54 427 -47 q 481 -71 467 -60 q 505 -99 496 -82 q 514 -140 514 -117 q 499 -197 514 -175 q 461 -232 484 -219 q 412 -249 438 -244 q 363 -253 385 -253 q 302 -250 333 -253 q 246 -241 271 -247 l 246 -174 l 345 -174 q 381 -167 368 -174 q 395 -140 395 -160 q 385 -115 395 -123 q 347 -107 374 -107 l 302 -107 l 313 -13 q 245 1 278 -8 q 140 58 186 20 q 68 151 95 95 q 41 279 41 206 q 42 296 41 288 q 43 310 43 304 l 228 310 q 227 300 228 308 q 227 288 227 293 q 237 226 227 254 q 267 178 247 198 q 314 147 286 158 q 379 136 342 136 q 447 146 419 136 q 492 172 475 156 q 516 208 509 188 q 524 249 524 228 q 511 307 524 283 q 475 348 498 331 q 424 378 453 366 q 361 402 394 391 q 292 425 328 413 q 224 451 257 436 q 161 488 191 467 q 109 538 132 509 q 74 608 87 568 q 61 703 61 648 q 87 821 61 770 q 157 904 113 871 q 258 954 201 937 q 379 970 316 970 q 499 954 443 970 q 597 903 555 937 q 664 815 640 869 q 689 689 689 762 l 689 672 l 507 672 l 507 685 q 473 781 507 745 q 378 817 439 817 q 278 788 313 817 q 244 715 244 760 q 264 656 244 680 q 317 616 284 633 q 391 587 349 600 q 475 559 432 574 q 560 525 519 545 q 634 474 602 505 q 687 397 667 443 q 707 286 707 352 q 682 146 707 204 q 613 53 657 89 q 507 0 568 16 q 408 -16 460 -13 l 404 -46 z "},"Ŝ":{"ha":760,"x_min":41,"x_max":707,"o":"m 379 970 q 499 954 443 970 q 597 903 555 937 q 664 815 640 869 q 689 689 689 762 l 689 672 l 507 672 l 507 685 q 473 781 507 745 q 378 817 439 817 q 278 788 313 817 q 244 715 244 760 q 264 656 244 680 q 317 616 284 633 q 391 587 349 600 q 475 559 432 574 q 560 525 519 545 q 634 474 602 505 q 687 397 667 443 q 707 286 707 352 q 682 146 707 204 q 613 53 657 89 q 507 0 568 16 q 371 -17 445 -17 q 245 2 305 -17 q 140 58 186 20 q 68 151 95 95 q 41 279 41 206 q 42 296 41 288 q 43 310 43 304 l 228 310 q 227 300 228 308 q 227 288 227 293 q 237 226 227 254 q 267 178 247 198 q 314 147 286 158 q 379 136 342 136 q 447 146 419 136 q 492 172 475 156 q 516 208 509 188 q 524 249 524 228 q 511 307 524 283 q 475 348 498 331 q 424 378 453 366 q 361 402 394 391 q 292 425 328 413 q 224 451 257 436 q 161 488 191 467 q 109 538 132 509 q 74 608 87 568 q 61 703 61 648 q 87 821 61 770 q 157 904 113 871 q 258 954 201 937 q 379 970 316 970 m 567 1039 l 442 1039 l 380 1135 l 318 1039 l 193 1039 l 313 1227 l 449 1227 l 567 1039 z "},"Ŧ":{"ha":696,"x_min":24,"x_max":673,"o":"m 593 425 l 437 425 l 437 0 l 260 0 l 260 425 l 103 425 l 103 545 l 260 545 l 260 794 l 24 794 l 24 953 l 673 953 l 673 794 l 437 794 l 437 545 l 593 545 l 593 425 z "},"Ť":{"ha":696,"x_min":24,"x_max":673,"o":"m 673 794 l 437 794 l 437 0 l 260 0 l 260 794 l 24 794 l 24 953 l 673 953 l 673 794 m 417 1039 l 281 1039 l 161 1227 l 286 1227 l 349 1131 l 410 1227 l 535 1227 l 417 1039 z "},"Ţ":{"ha":696,"x_min":24,"x_max":673,"o":"m 673 794 l 437 794 l 437 0 l 260 0 l 260 794 l 24 794 l 24 953 l 673 953 l 673 794 m 434 -232 l 371 -365 l 281 -365 l 330 -248 l 262 -248 l 262 -77 l 434 -77 l 434 -232 z "},"Ŭ":{"ha":822,"x_min":85,"x_max":739,"o":"m 597 1226 q 584 1174 597 1200 q 547 1126 571 1147 q 488 1091 522 1105 q 410 1078 453 1078 q 333 1091 367 1078 q 275 1126 299 1105 q 239 1174 252 1147 q 227 1226 227 1200 l 329 1226 q 337 1211 331 1219 q 354 1196 344 1203 q 379 1185 365 1190 q 410 1181 393 1181 q 443 1185 428 1181 q 469 1196 458 1190 q 486 1211 480 1203 q 493 1226 492 1219 l 597 1226 m 85 953 l 262 953 l 262 304 q 301 179 262 222 q 411 136 340 136 q 522 179 482 136 q 561 304 561 222 l 561 953 l 739 953 l 739 298 q 716 162 739 221 q 651 63 694 103 q 548 3 609 24 q 411 -17 488 -17 q 274 3 334 -17 q 172 63 214 24 q 107 162 130 103 q 85 298 85 221 l 85 953 z "},"Ű":{"ha":822,"x_min":85,"x_max":739,"o":"m 481 1222 l 364 1043 l 254 1043 l 340 1226 l 479 1226 l 481 1222 m 675 1222 l 558 1043 l 449 1043 l 534 1226 l 673 1226 l 675 1222 m 85 953 l 262 953 l 262 304 q 301 179 262 222 q 411 136 340 136 q 522 179 482 136 q 561 304 561 222 l 561 953 l 739 953 l 739 298 q 716 162 739 221 q 651 63 694 103 q 548 3 609 24 q 411 -17 488 -17 q 274 3 334 -17 q 172 63 214 24 q 107 162 130 103 q 85 298 85 221 l 85 953 z "},"Ū":{"ha":822,"x_min":85,"x_max":739,"o":"m 589 1054 l 233 1054 l 233 1175 l 589 1175 l 589 1054 m 85 953 l 262 953 l 262 304 q 301 179 262 222 q 411 136 340 136 q 522 179 482 136 q 561 304 561 222 l 561 953 l 739 953 l 739 298 q 716 162 739 221 q 651 63 694 103 q 548 3 609 24 q 411 -17 488 -17 q 274 3 334 -17 q 172 63 214 24 q 107 162 130 103 q 85 298 85 221 l 85 953 z "},"Ų":{"ha":822,"x_min":85,"x_max":739,"o":"m 739 310 q 693 115 739 191 q 562 7 647 39 q 549 -11 556 -1 q 535 -34 542 -22 q 525 -61 529 -47 q 521 -90 521 -76 q 524 -117 521 -104 q 535 -139 528 -130 q 554 -155 543 -149 q 583 -161 566 -161 l 614 -161 l 614 -237 q 568 -252 590 -247 q 522 -257 545 -257 q 474 -251 498 -257 q 429 -231 449 -245 q 397 -192 410 -216 q 385 -132 385 -168 q 396 -66 385 -94 q 425 -17 408 -39 l 411 -17 q 274 4 334 -17 q 172 66 214 25 q 107 168 130 107 q 85 310 85 229 l 85 953 l 262 953 l 262 315 q 301 182 262 227 q 411 136 340 136 q 522 182 482 136 q 561 315 561 227 l 561 953 l 739 953 l 739 310 z "},"Ů":{"ha":822,"x_min":85,"x_max":739,"o":"m 411 1268 q 464 1258 439 1268 q 506 1229 488 1247 q 534 1186 524 1211 q 545 1135 545 1162 q 534 1083 545 1107 q 506 1041 524 1059 q 463 1012 488 1023 q 411 1002 439 1002 q 360 1012 384 1002 q 317 1040 336 1022 q 289 1082 299 1058 q 278 1135 278 1107 q 289 1187 278 1162 q 317 1229 299 1211 q 359 1258 335 1247 q 411 1268 383 1268 m 411 1198 q 366 1180 384 1198 q 347 1135 347 1162 q 366 1089 347 1107 q 411 1071 384 1071 q 435 1076 424 1071 q 456 1089 447 1080 q 470 1109 465 1098 q 475 1135 475 1121 q 470 1160 475 1148 q 456 1180 465 1171 q 435 1194 447 1189 q 411 1198 424 1198 m 85 953 l 262 953 l 262 304 q 301 179 262 222 q 411 136 340 136 q 522 179 482 136 q 561 304 561 222 l 561 953 l 739 953 l 739 298 q 716 162 739 221 q 651 63 694 103 q 548 3 609 24 q 411 -17 488 -17 q 274 3 334 -17 q 172 63 214 24 q 107 162 130 103 q 85 298 85 221 l 85 953 z "},"Ũ":{"ha":822,"x_min":85,"x_max":739,"o":"m 644 1226 q 637 1168 644 1198 q 613 1113 629 1138 q 570 1073 596 1088 q 507 1057 544 1057 q 459 1065 482 1057 q 414 1083 436 1073 q 369 1100 391 1093 q 323 1108 347 1108 q 288 1097 302 1108 q 269 1057 274 1086 l 178 1057 q 185 1116 178 1086 q 209 1170 193 1145 q 252 1211 226 1195 q 314 1226 277 1226 q 362 1218 339 1226 q 408 1201 386 1211 q 453 1183 431 1191 q 498 1175 475 1175 q 534 1186 520 1175 q 553 1226 549 1197 l 644 1226 m 85 953 l 262 953 l 262 304 q 301 179 262 222 q 411 136 340 136 q 522 179 482 136 q 561 304 561 222 l 561 953 l 739 953 l 739 298 q 716 162 739 221 q 651 63 694 103 q 548 3 609 24 q 411 -17 488 -17 q 274 3 334 -17 q 172 63 214 24 q 107 162 130 103 q 85 298 85 221 l 85 953 z "},"Ẃ":{"ha":1075,"x_min":0,"x_max":1074,"o":"m 867 0 l 688 0 l 558 607 q 551 648 554 625 q 545 692 547 671 q 539 742 542 717 l 533 742 q 526 690 529 715 q 520 645 523 668 q 514 607 517 622 l 386 0 l 207 0 l 0 953 l 176 953 l 290 367 q 297 328 294 351 q 302 284 300 305 q 309 233 305 259 l 314 233 q 319 285 317 260 q 325 329 322 307 q 332 367 328 351 l 447 953 l 648 953 l 762 367 q 768 330 765 353 q 774 286 772 307 q 781 233 777 260 l 786 233 l 791 282 q 797 326 794 302 q 804 367 800 349 l 921 953 l 1074 953 l 867 0 m 730 1223 l 580 1043 l 442 1043 l 562 1227 l 728 1227 l 730 1223 z "},"Ŵ":{"ha":1075,"x_min":0,"x_max":1074,"o":"m 867 0 l 688 0 l 558 607 q 551 648 554 625 q 545 692 547 671 q 539 742 542 717 l 533 742 q 526 690 529 715 q 520 645 523 668 q 514 607 517 622 l 386 0 l 207 0 l 0 953 l 176 953 l 290 367 q 297 328 294 351 q 302 284 300 305 q 309 233 305 259 l 314 233 q 319 285 317 260 q 325 329 322 307 q 332 367 328 351 l 447 953 l 648 953 l 762 367 q 768 330 765 353 q 774 286 772 307 q 781 233 777 260 l 786 233 l 791 282 q 797 326 794 302 q 804 367 800 349 l 921 953 l 1074 953 l 867 0 m 725 1039 l 600 1039 l 538 1135 l 476 1039 l 351 1039 l 471 1227 l 607 1227 l 725 1039 z "},"Ẅ":{"ha":1075,"x_min":0,"x_max":1074,"o":"m 867 0 l 688 0 l 558 607 q 551 648 554 625 q 545 692 547 671 q 539 742 542 717 l 533 742 q 526 690 529 715 q 520 645 523 668 q 514 607 517 622 l 386 0 l 207 0 l 0 953 l 176 953 l 290 367 q 297 328 294 351 q 302 284 300 305 q 309 233 305 259 l 314 233 q 319 285 317 260 q 325 329 322 307 q 332 367 328 351 l 447 953 l 648 953 l 762 367 q 768 330 765 353 q 774 286 772 307 q 781 233 777 260 l 786 233 l 791 282 q 797 326 794 302 q 804 367 800 349 l 921 953 l 1074 953 l 867 0 m 729 1075 l 590 1075 l 590 1227 l 729 1227 l 729 1075 m 486 1075 l 347 1075 l 347 1227 l 486 1227 l 486 1075 z "},"Ẁ":{"ha":1075,"x_min":0,"x_max":1074,"o":"m 867 0 l 688 0 l 558 607 q 551 648 554 625 q 545 692 547 671 q 539 742 542 717 l 533 742 q 526 690 529 715 q 520 645 523 668 q 514 607 517 622 l 386 0 l 207 0 l 0 953 l 176 953 l 290 367 q 297 328 294 351 q 302 284 300 305 q 309 233 305 259 l 314 233 q 319 285 317 260 q 325 329 322 307 q 332 367 328 351 l 447 953 l 648 953 l 762 367 q 768 330 765 353 q 774 286 772 307 q 781 233 777 260 l 786 233 l 791 282 q 797 326 794 302 q 804 367 800 349 l 921 953 l 1074 953 l 867 0 m 633 1043 l 496 1043 l 346 1223 l 347 1227 l 514 1227 l 633 1043 z "},"Ŷ":{"ha":760,"x_min":0,"x_max":760,"o":"m 469 359 l 469 0 l 292 0 l 292 359 l 0 953 l 187 953 l 382 534 l 387 534 l 581 953 l 760 953 l 469 359 m 567 1039 l 442 1039 l 380 1135 l 318 1039 l 193 1039 l 313 1227 l 449 1227 l 567 1039 z "},"Ỳ":{"ha":760,"x_min":0,"x_max":760,"o":"m 469 359 l 469 0 l 292 0 l 292 359 l 0 953 l 187 953 l 382 534 l 387 534 l 581 953 l 760 953 l 469 359 m 475 1043 l 338 1043 l 188 1223 l 189 1227 l 356 1227 l 475 1043 z "},"Ź":{"ha":696,"x_min":22,"x_max":667,"o":"m 657 884 l 265 158 l 667 158 l 667 0 l 22 0 l 22 68 l 414 794 l 52 794 l 52 953 l 657 953 l 657 884 m 540 1223 l 390 1043 l 252 1043 l 372 1227 l 538 1227 l 540 1223 z "},"Ż":{"ha":696,"x_min":22,"x_max":667,"o":"m 657 884 l 265 158 l 667 158 l 667 0 l 22 0 l 22 68 l 414 794 l 52 794 l 52 953 l 657 953 l 657 884 m 422 1067 l 274 1067 l 274 1227 l 422 1227 l 422 1067 z "},"ă":{"ha":633,"x_min":20,"x_max":623,"o":"m 301 747 q 489 691 428 747 q 550 532 550 634 l 550 172 q 562 135 550 146 q 589 123 574 123 l 623 123 l 623 5 q 585 -9 609 -2 q 524 -17 562 -17 q 440 10 473 -17 q 395 79 407 37 l 387 79 q 355 40 372 58 q 316 9 338 22 q 267 -10 294 -3 q 203 -17 239 -17 q 145 -8 177 -17 q 86 23 114 0 q 39 85 58 45 q 20 189 20 125 q 46 312 20 263 q 121 390 73 361 q 236 432 169 420 q 382 444 302 444 l 382 521 q 379 556 382 540 q 368 585 376 572 q 345 604 359 597 q 306 611 330 611 q 263 604 280 611 q 236 586 246 597 q 222 561 227 575 q 218 534 218 547 l 218 514 l 56 514 q 54 528 54 520 l 54 545 q 72 628 54 590 q 122 692 90 665 q 199 733 154 718 q 301 747 245 747 m 487 1004 q 474 951 487 978 q 437 904 461 925 q 378 869 413 882 q 300 856 344 856 q 223 869 258 856 q 165 904 189 882 q 129 951 142 925 q 116 1004 116 978 l 219 1004 q 227 989 220 997 q 244 974 233 981 q 269 963 255 967 q 300 958 283 958 q 333 963 318 958 q 359 974 348 967 q 376 989 370 981 q 384 1004 382 997 l 487 1004 m 382 323 q 311 318 345 323 q 250 299 277 313 q 207 262 223 286 q 191 204 191 239 q 210 144 191 166 q 272 122 229 122 q 322 135 302 122 q 356 170 343 148 q 376 221 370 192 q 382 282 382 250 l 382 323 z "},"ǽ":{"ha":1013,"x_min":52,"x_max":958,"o":"m 694 747 q 892 655 827 747 q 958 366 958 562 l 958 323 l 587 323 q 594 237 588 275 q 613 173 600 199 q 648 133 627 146 q 700 119 669 119 q 768 156 743 119 q 793 258 793 193 l 958 258 q 939 136 958 188 q 885 50 920 84 q 803 0 850 16 q 700 -17 755 -17 q 572 7 627 -17 q 482 82 517 32 q 440 42 463 60 q 391 11 417 24 q 332 -10 364 -3 q 262 -17 300 -17 q 196 -8 233 -17 q 127 23 159 0 q 73 85 95 45 q 52 189 52 125 q 78 312 52 263 q 153 390 105 361 q 268 432 201 420 q 414 444 334 444 l 414 521 q 411 556 414 540 q 399 585 408 572 q 376 604 391 597 q 338 611 361 611 q 295 604 312 611 q 268 586 278 597 q 254 561 258 575 q 250 534 250 547 l 250 514 l 87 514 q 86 528 86 520 l 86 545 q 104 628 86 590 q 154 692 121 665 q 232 733 186 718 q 334 747 277 747 q 443 729 396 747 q 521 677 490 711 q 598 730 555 713 q 694 747 642 747 m 414 323 q 343 318 377 323 q 282 299 309 313 q 239 262 255 286 q 222 204 222 239 q 242 144 222 166 q 304 122 262 122 q 355 135 334 122 q 389 170 376 148 q 408 221 401 192 q 414 282 414 250 l 414 323 m 699 1000 l 549 821 l 411 821 l 530 1004 l 697 1004 l 699 1000 m 694 611 q 617 568 642 611 q 589 444 593 524 l 783 444 q 762 568 783 524 q 694 611 741 611 z "},"ā":{"ha":633,"x_min":20,"x_max":623,"o":"m 301 747 q 489 691 428 747 q 550 532 550 634 l 550 172 q 562 135 550 146 q 589 123 574 123 l 623 123 l 623 5 q 585 -9 609 -2 q 524 -17 562 -17 q 440 10 473 -17 q 395 79 407 37 l 387 79 q 355 40 372 58 q 316 9 338 22 q 267 -10 294 -3 q 203 -17 239 -17 q 145 -8 177 -17 q 86 23 114 0 q 39 85 58 45 q 20 189 20 125 q 46 312 20 263 q 121 390 73 361 q 236 432 169 420 q 382 444 302 444 l 382 521 q 379 556 382 540 q 368 585 376 572 q 345 604 359 597 q 306 611 330 611 q 263 604 280 611 q 236 586 246 597 q 222 561 227 575 q 218 534 218 547 l 218 514 l 56 514 q 54 528 54 520 l 54 545 q 72 628 54 590 q 122 692 90 665 q 199 733 154 718 q 301 747 245 747 m 479 832 l 124 832 l 124 953 l 479 953 l 479 832 m 382 323 q 311 318 345 323 q 250 299 277 313 q 207 262 223 286 q 191 204 191 239 q 210 144 191 166 q 272 122 229 122 q 322 135 302 122 q 356 170 343 148 q 376 221 370 192 q 382 282 382 250 l 382 323 z "},"ą":{"ha":633,"x_min":20,"x_max":674,"o":"m 623 5 q 609 -13 616 -2 q 596 -36 602 -23 q 585 -63 589 -48 q 581 -92 581 -77 q 585 -118 581 -105 q 595 -140 588 -130 q 614 -156 602 -150 q 644 -162 626 -162 l 674 -162 l 674 -239 q 628 -253 650 -248 q 583 -258 606 -258 q 534 -252 559 -258 q 490 -232 509 -246 q 457 -193 470 -217 q 445 -133 445 -169 q 450 -87 445 -108 q 465 -49 456 -66 q 486 -17 474 -32 q 489 -13 488 -15 q 440 9 461 -7 q 395 79 407 37 l 387 79 q 355 40 372 58 q 316 9 338 22 q 267 -10 294 -3 q 203 -17 239 -17 q 145 -8 177 -17 q 86 23 114 0 q 39 85 58 45 q 20 189 20 125 q 46 312 20 263 q 121 390 73 361 q 236 432 169 420 q 382 444 302 444 l 382 521 q 379 556 382 540 q 368 585 376 572 q 345 604 359 597 q 306 611 330 611 q 263 604 280 611 q 236 586 246 597 q 222 561 227 575 q 218 534 218 547 l 218 514 l 56 514 q 54 528 54 520 l 54 545 q 72 628 54 590 q 122 692 90 665 q 199 733 154 718 q 301 747 245 747 q 489 691 428 747 q 550 532 550 634 l 550 172 q 562 135 550 146 q 589 123 574 123 l 623 123 l 623 5 m 382 323 q 311 318 345 323 q 250 299 277 313 q 207 262 223 286 q 191 204 191 239 q 210 144 191 166 q 272 122 229 122 q 322 135 302 122 q 356 170 343 148 q 376 221 370 192 q 382 282 382 250 l 382 323 z "},"ǻ":{"ha":694,"x_min":20,"x_max":623,"o":"m 301 747 q 489 691 428 747 q 550 532 550 634 l 550 172 q 562 135 550 146 q 589 123 574 123 l 623 123 l 623 5 q 585 -9 609 -2 q 524 -17 562 -17 q 440 10 473 -17 q 395 79 407 37 l 387 79 q 355 40 372 58 q 316 9 338 22 q 267 -10 294 -3 q 203 -17 239 -17 q 145 -8 177 -17 q 86 23 114 0 q 39 85 58 45 q 20 189 20 125 q 46 312 20 263 q 121 390 73 361 q 236 432 169 420 q 382 444 302 444 l 382 521 q 379 556 382 540 q 368 585 376 572 q 345 604 359 597 q 306 611 330 611 q 263 604 280 611 q 236 586 246 597 q 222 561 227 575 q 218 534 218 547 l 218 514 l 56 514 q 54 528 54 520 l 54 545 q 72 628 54 590 q 122 692 90 665 q 199 733 154 718 q 301 747 245 747 m 302 1037 q 354 1027 330 1037 q 396 999 378 1017 q 425 958 414 981 q 435 908 435 935 q 424 858 435 882 q 396 817 414 834 q 353 789 378 800 q 302 779 329 779 q 250 789 275 779 q 208 816 226 799 q 179 857 189 833 q 168 908 168 881 q 179 958 168 935 q 207 999 189 982 q 250 1027 225 1017 q 302 1037 274 1037 m 382 323 q 311 318 345 323 q 250 299 277 313 q 207 262 223 286 q 191 204 191 239 q 210 144 191 166 q 272 122 229 122 q 322 135 302 122 q 356 170 343 148 q 376 221 370 192 q 382 282 382 250 l 382 323 m 513 1223 l 379 1067 l 241 1067 l 345 1227 l 512 1227 l 513 1223 m 302 970 q 256 952 274 970 q 237 908 237 935 q 256 864 237 882 q 302 846 274 846 q 326 851 315 846 q 347 864 338 856 q 360 883 355 872 q 366 908 366 895 q 360 932 366 921 q 347 952 355 944 q 326 965 338 960 q 302 970 315 970 z "},"ć":{"ha":633,"x_min":57,"x_max":583,"o":"m 328 747 q 433 730 386 747 q 514 678 481 713 q 565 587 547 642 q 583 456 583 532 l 412 456 q 391 570 412 533 q 328 607 370 607 q 253 552 275 607 q 231 392 231 497 l 231 339 q 254 179 231 234 q 334 123 277 123 q 398 161 378 123 q 418 275 418 199 l 583 275 q 566 143 583 199 q 515 53 548 88 q 437 0 483 17 q 334 -17 391 -17 q 210 6 262 -17 q 124 76 158 28 q 73 195 90 123 q 57 366 57 267 q 124 655 57 562 q 328 747 192 747 m 522 1000 l 372 821 l 234 821 l 353 1004 l 520 1004 l 522 1000 z "},"č":{"ha":633,"x_min":57,"x_max":583,"o":"m 328 747 q 433 730 386 747 q 514 678 481 713 q 565 587 547 642 q 583 456 583 532 l 412 456 q 391 570 412 533 q 328 607 370 607 q 253 552 275 607 q 231 392 231 497 l 231 339 q 254 179 231 234 q 334 123 277 123 q 398 161 378 123 q 418 275 418 199 l 583 275 q 566 143 583 199 q 515 53 548 88 q 437 0 483 17 q 334 -17 391 -17 q 210 6 262 -17 q 124 76 158 28 q 73 195 90 123 q 57 366 57 267 q 124 655 57 562 q 328 747 192 747 m 399 817 l 262 817 l 143 1004 l 268 1004 l 330 908 l 392 1004 l 517 1004 l 399 817 z "},"ĉ":{"ha":633,"x_min":57,"x_max":583,"o":"m 328 747 q 433 730 386 747 q 514 678 481 713 q 565 587 547 642 q 583 456 583 532 l 412 456 q 391 570 412 533 q 328 607 370 607 q 253 552 275 607 q 231 392 231 497 l 231 339 q 254 179 231 234 q 334 123 277 123 q 398 161 378 123 q 418 275 418 199 l 583 275 q 566 143 583 199 q 515 53 548 88 q 437 0 483 17 q 334 -17 391 -17 q 210 6 262 -17 q 124 76 158 28 q 73 195 90 123 q 57 366 57 267 q 124 655 57 562 q 328 747 192 747 m 517 817 l 392 817 l 330 913 l 268 817 l 143 817 l 262 1004 l 399 1004 l 517 817 z "},"ċ":{"ha":633,"x_min":57,"x_max":583,"o":"m 328 747 q 433 730 386 747 q 514 678 481 713 q 565 587 547 642 q 583 456 583 532 l 412 456 q 391 570 412 533 q 328 607 370 607 q 253 552 275 607 q 231 392 231 497 l 231 339 q 254 179 231 234 q 334 123 277 123 q 398 161 378 123 q 418 275 418 199 l 583 275 q 566 143 583 199 q 515 53 548 88 q 437 0 483 17 q 334 -17 391 -17 q 210 6 262 -17 q 124 76 158 28 q 73 195 90 123 q 57 366 57 267 q 124 655 57 562 q 328 747 192 747 m 404 844 l 256 844 l 256 1004 l 404 1004 l 404 844 z "},"ď":{"ha":818,"x_min":57,"x_max":854,"o":"m 619 0 l 481 0 l 464 90 l 457 90 q 387 10 430 37 q 292 -17 344 -17 q 194 6 237 -17 q 120 76 151 28 q 73 195 90 123 q 57 367 57 267 q 74 538 57 467 q 122 657 92 610 q 193 725 152 703 q 283 747 235 747 q 382 724 338 747 q 446 656 426 700 l 453 656 l 453 1004 l 619 1004 l 619 0 m 342 596 q 256 543 281 596 q 231 392 231 490 l 231 339 q 256 188 231 240 q 342 135 281 135 q 428 188 402 135 q 453 339 453 240 l 453 389 q 447 477 453 438 q 428 542 441 515 q 393 582 414 568 q 342 596 372 596 m 854 779 l 762 546 l 662 546 l 739 762 l 662 762 l 662 953 l 854 953 l 854 779 z "},"đ":{"ha":700,"x_min":57,"x_max":695,"o":"m 695 810 l 619 810 l 619 0 l 481 0 l 464 90 l 457 90 q 387 10 430 37 q 292 -17 344 -17 q 194 6 237 -17 q 120 76 151 28 q 73 195 90 123 q 57 367 57 267 q 74 538 57 467 q 122 657 92 610 q 193 725 152 703 q 283 747 235 747 q 382 724 338 747 q 446 656 426 700 l 453 656 l 453 810 l 270 810 l 270 930 l 453 930 l 453 1004 l 619 1004 l 619 930 l 695 930 l 695 810 m 342 596 q 256 543 281 596 q 231 392 231 490 l 231 339 q 256 188 231 240 q 342 135 281 135 q 428 188 402 135 q 453 339 453 240 l 453 389 q 447 477 453 438 q 428 542 441 515 q 393 582 414 568 q 342 596 372 596 z "},"ı":{"ha":317,"x_min":75,"x_max":241,"o":"m 241 0 l 75 0 l 75 730 l 241 730 l 241 0 z "},"ĕ":{"ha":633,"x_min":43,"x_max":587,"o":"m 323 747 q 522 655 456 747 q 587 366 587 562 l 587 323 l 216 323 q 223 237 217 275 q 243 173 230 199 q 277 133 256 146 q 329 119 298 119 q 397 156 372 119 q 422 258 422 193 l 587 258 q 568 136 587 188 q 514 50 549 84 q 432 0 479 16 q 329 -17 385 -17 q 116 76 189 -17 q 43 366 43 169 q 115 655 43 562 q 323 747 188 747 m 323 611 q 247 568 271 611 q 218 444 222 524 l 412 444 q 391 568 412 524 q 323 611 370 611 m 503 1004 q 490 951 503 978 q 453 904 477 925 q 394 869 429 882 q 316 856 359 856 q 239 869 273 856 q 181 904 205 882 q 144 951 157 925 q 132 1004 132 978 l 235 1004 q 242 989 236 997 q 260 974 249 981 q 285 963 271 967 q 316 958 299 958 q 349 963 334 958 q 374 974 363 967 q 392 989 385 981 q 399 1004 398 997 l 503 1004 z "},"ě":{"ha":633,"x_min":43,"x_max":587,"o":"m 323 747 q 522 655 456 747 q 587 366 587 562 l 587 323 l 216 323 q 223 237 217 275 q 243 173 230 199 q 277 133 256 146 q 329 119 298 119 q 397 156 372 119 q 422 258 422 193 l 587 258 q 568 136 587 188 q 514 50 549 84 q 432 0 479 16 q 329 -17 385 -17 q 116 76 189 -17 q 43 366 43 169 q 115 655 43 562 q 323 747 188 747 m 323 611 q 247 568 271 611 q 218 444 222 524 l 412 444 q 391 568 412 524 q 323 611 370 611 m 386 817 l 250 817 l 130 1004 l 255 1004 l 317 908 l 379 1004 l 504 1004 l 386 817 z "},"ė":{"ha":633,"x_min":43,"x_max":587,"o":"m 323 747 q 522 655 456 747 q 587 366 587 562 l 587 323 l 216 323 q 223 237 217 275 q 243 173 230 199 q 277 133 256 146 q 329 119 298 119 q 397 156 372 119 q 422 258 422 193 l 587 258 q 568 136 587 188 q 514 50 549 84 q 432 0 479 16 q 329 -17 385 -17 q 116 76 189 -17 q 43 366 43 169 q 115 655 43 562 q 323 747 188 747 m 323 611 q 247 568 271 611 q 218 444 222 524 l 412 444 q 391 568 412 524 q 323 611 370 611 m 391 844 l 243 844 l 243 1004 l 391 1004 l 391 844 z "},"ē":{"ha":633,"x_min":43,"x_max":587,"o":"m 323 747 q 522 655 456 747 q 587 366 587 562 l 587 323 l 216 323 q 223 237 217 275 q 243 173 230 199 q 277 133 256 146 q 329 119 298 119 q 397 156 372 119 q 422 258 422 193 l 587 258 q 568 136 587 188 q 514 50 549 84 q 432 0 479 16 q 329 -17 385 -17 q 116 76 189 -17 q 43 366 43 169 q 115 655 43 562 q 323 747 188 747 m 323 611 q 247 568 271 611 q 218 444 222 524 l 412 444 q 391 568 412 524 q 323 611 370 611 m 494 832 l 140 832 l 140 953 l 494 953 l 494 832 z "},"ŋ":{"ha":696,"x_min":77,"x_max":619,"o":"m 425 747 q 503 735 467 747 q 564 694 538 722 q 605 622 590 667 q 619 513 619 577 l 619 -57 q 611 -129 619 -94 q 585 -191 604 -163 q 533 -236 566 -219 q 450 -253 500 -253 q 417 -252 435 -253 q 384 -248 400 -250 q 352 -242 367 -245 q 326 -236 337 -239 l 326 -113 l 387 -113 q 436 -96 420 -113 q 453 -46 453 -79 l 453 467 q 427 567 453 537 q 357 596 401 596 q 311 585 332 596 q 275 554 290 574 q 251 507 260 534 q 243 450 243 481 l 243 0 l 77 0 l 77 730 l 215 730 l 232 640 l 240 640 q 273 681 254 661 q 314 715 291 701 q 365 739 337 730 q 425 747 393 747 z "},"ę":{"ha":633,"x_min":43,"x_max":587,"o":"m 450 7 q 437 -11 444 -1 q 424 -34 430 -22 q 413 -61 417 -47 q 409 -90 409 -76 q 412 -116 409 -104 q 423 -139 416 -129 q 442 -155 430 -149 q 471 -161 454 -161 l 502 -161 l 502 -237 q 456 -252 478 -247 q 410 -257 433 -257 q 362 -251 387 -257 q 317 -230 337 -245 q 285 -192 298 -216 q 273 -132 273 -168 q 278 -86 273 -106 q 292 -47 283 -65 q 313 -16 301 -31 q 115 76 184 -12 q 43 366 43 169 q 115 655 43 562 q 323 747 188 747 q 522 655 456 747 q 587 366 587 562 l 587 323 l 216 323 q 223 237 217 275 q 243 173 230 199 q 277 133 256 146 q 329 119 298 119 q 397 156 372 119 q 422 258 422 193 l 587 258 q 568 136 587 188 q 514 50 549 84 q 450 7 486 23 m 323 611 q 247 568 271 611 q 218 444 222 524 l 412 444 q 391 568 412 524 q 323 611 370 611 z "},"ğ":{"ha":696,"x_min":22,"x_max":688,"o":"m 675 852 q 644 729 675 774 q 557 667 612 684 q 600 593 585 635 q 615 498 615 550 q 597 396 615 442 q 546 318 580 351 q 461 268 512 286 q 345 250 410 250 l 275 250 q 239 237 253 250 q 225 205 225 224 q 237 175 225 186 q 268 163 249 163 l 521 163 q 586 150 555 163 q 638 111 616 136 q 674 51 661 86 q 688 -28 688 16 q 669 -120 688 -79 q 618 -192 650 -162 q 544 -237 587 -221 q 452 -253 500 -253 l 183 -253 q 121 -241 150 -253 q 70 -206 92 -229 q 35 -153 47 -184 q 22 -85 22 -122 q 49 6 22 -31 q 115 64 75 42 q 73 108 88 81 q 57 174 57 136 q 65 217 57 197 q 89 254 74 237 q 123 282 103 270 q 164 301 142 294 q 98 384 120 334 q 75 498 75 433 q 93 601 75 555 q 144 679 110 646 q 229 729 178 711 q 345 747 279 747 q 410 742 379 747 q 467 726 441 737 q 501 759 488 741 q 523 795 515 777 q 534 828 531 812 q 538 852 538 843 l 675 852 m 257 8 q 231 3 243 8 q 210 -12 219 -3 q 196 -33 201 -21 q 191 -58 191 -45 q 210 -108 191 -90 q 257 -126 229 -126 l 444 -126 q 498 -108 476 -126 q 519 -58 519 -90 q 500 -9 519 -27 q 452 8 480 8 l 257 8 m 345 624 q 268 591 294 624 q 241 498 241 557 q 268 407 241 440 q 345 374 294 374 q 423 407 397 374 q 449 498 449 440 q 423 591 449 557 q 345 624 397 624 m 534 1004 q 521 951 534 978 q 484 904 508 925 q 425 869 460 882 q 347 856 391 856 q 270 869 304 856 q 212 904 236 882 q 176 951 189 925 q 163 1004 163 978 l 266 1004 q 274 989 267 997 q 291 974 280 981 q 316 963 302 967 q 347 958 330 958 q 380 963 365 958 q 406 974 395 967 q 423 989 416 981 q 431 1004 429 997 l 534 1004 z "},"ĝ":{"ha":696,"x_min":22,"x_max":688,"o":"m 675 852 q 644 729 675 774 q 557 667 612 684 q 600 593 585 635 q 615 498 615 550 q 597 396 615 442 q 546 318 580 351 q 461 268 512 286 q 345 250 410 250 l 275 250 q 239 237 253 250 q 225 205 225 224 q 237 175 225 186 q 268 163 249 163 l 521 163 q 586 150 555 163 q 638 111 616 136 q 674 51 661 86 q 688 -28 688 16 q 669 -120 688 -79 q 618 -192 650 -162 q 544 -237 587 -221 q 452 -253 500 -253 l 183 -253 q 121 -241 150 -253 q 70 -206 92 -229 q 35 -153 47 -184 q 22 -85 22 -122 q 49 6 22 -31 q 115 64 75 42 q 73 108 88 81 q 57 174 57 136 q 65 217 57 197 q 89 254 74 237 q 123 282 103 270 q 164 301 142 294 q 98 384 120 334 q 75 498 75 433 q 93 601 75 555 q 144 679 110 646 q 229 729 178 711 q 345 747 279 747 q 410 742 379 747 q 467 726 441 737 q 526 744 505 728 q 555 781 546 760 q 566 823 564 802 q 567 852 567 843 l 675 852 m 257 8 q 231 3 243 8 q 210 -12 219 -3 q 196 -33 201 -21 q 191 -58 191 -45 q 210 -108 191 -90 q 257 -126 229 -126 l 444 -126 q 498 -108 476 -126 q 519 -58 519 -90 q 500 -9 519 -27 q 452 8 480 8 l 257 8 m 345 624 q 268 591 294 624 q 241 498 241 557 q 268 407 241 440 q 345 374 294 374 q 423 407 397 374 q 449 498 449 440 q 423 591 449 557 q 345 624 397 624 m 535 817 l 410 817 l 349 913 l 286 817 l 161 817 l 281 1004 l 417 1004 l 535 817 z "},"ģ":{"ha":696,"x_min":22,"x_max":688,"o":"m 675 852 q 644 729 675 774 q 557 667 612 684 q 600 593 585 635 q 615 498 615 550 q 597 396 615 442 q 546 318 580 351 q 461 268 512 286 q 345 250 410 250 l 275 250 q 239 237 253 250 q 225 205 225 224 q 237 175 225 186 q 268 163 249 163 l 521 163 q 586 150 555 163 q 638 111 616 136 q 674 51 661 86 q 688 -28 688 16 q 669 -120 688 -79 q 618 -192 650 -162 q 544 -237 587 -221 q 452 -253 500 -253 l 183 -253 q 121 -241 150 -253 q 70 -206 92 -229 q 35 -153 47 -184 q 22 -85 22 -122 q 49 6 22 -31 q 115 64 75 42 q 73 108 88 81 q 57 174 57 136 q 65 217 57 197 q 89 254 74 237 q 123 282 103 270 q 164 301 142 294 q 98 384 120 334 q 75 498 75 433 q 93 601 75 555 q 144 679 110 646 q 229 729 178 711 q 345 747 279 747 q 410 742 379 747 q 467 726 441 737 q 501 759 488 741 q 523 795 515 777 q 534 828 531 812 q 538 852 538 843 l 675 852 m 257 8 q 231 3 243 8 q 210 -12 219 -3 q 196 -33 201 -21 q 191 -58 191 -45 q 210 -108 191 -90 q 257 -126 229 -126 l 444 -126 q 498 -108 476 -126 q 519 -58 519 -90 q 500 -9 519 -27 q 452 8 480 8 l 257 8 m 345 624 q 268 591 294 624 q 241 498 241 557 q 268 407 241 440 q 345 374 294 374 q 423 407 397 374 q 449 498 449 440 q 423 591 449 557 q 345 624 397 624 m 350 991 l 418 991 l 418 820 l 246 820 l 246 975 l 309 1108 l 399 1108 l 350 991 z "},"ġ":{"ha":696,"x_min":22,"x_max":688,"o":"m 675 852 q 644 729 675 774 q 557 667 612 684 q 600 593 585 635 q 615 498 615 550 q 597 396 615 442 q 546 318 580 351 q 461 268 512 286 q 345 250 410 250 l 275 250 q 239 237 253 250 q 225 205 225 224 q 237 175 225 186 q 268 163 249 163 l 521 163 q 586 150 555 163 q 638 111 616 136 q 674 51 661 86 q 688 -28 688 16 q 669 -120 688 -79 q 618 -192 650 -162 q 544 -237 587 -221 q 452 -253 500 -253 l 183 -253 q 121 -241 150 -253 q 70 -206 92 -229 q 35 -153 47 -184 q 22 -85 22 -122 q 49 6 22 -31 q 115 64 75 42 q 73 108 88 81 q 57 174 57 136 q 65 217 57 197 q 89 254 74 237 q 123 282 103 270 q 164 301 142 294 q 98 384 120 334 q 75 498 75 433 q 93 601 75 555 q 144 679 110 646 q 229 729 178 711 q 345 747 279 747 q 410 742 379 747 q 467 726 441 737 q 501 759 488 741 q 523 795 515 777 q 534 828 531 812 q 538 852 538 843 l 675 852 m 257 8 q 231 3 243 8 q 210 -12 219 -3 q 196 -33 201 -21 q 191 -58 191 -45 q 210 -108 191 -90 q 257 -126 229 -126 l 444 -126 q 498 -108 476 -126 q 519 -58 519 -90 q 500 -9 519 -27 q 452 8 480 8 l 257 8 m 345 624 q 268 591 294 624 q 241 498 241 557 q 268 407 241 440 q 345 374 294 374 q 423 407 397 374 q 449 498 449 440 q 423 591 449 557 q 345 624 397 624 m 422 844 l 274 844 l 274 1004 l 422 1004 l 422 844 z "},"ħ":{"ha":696,"x_min":0,"x_max":619,"o":"m 425 810 l 243 810 l 243 653 l 249 653 q 278 687 261 670 q 317 717 295 704 q 366 739 338 730 q 425 747 393 747 q 503 735 467 747 q 564 694 538 722 q 605 622 590 667 q 619 513 619 577 l 619 0 l 453 0 l 453 467 q 427 567 453 537 q 357 596 401 596 q 311 585 332 596 q 275 554 290 574 q 251 507 260 534 q 243 450 243 481 l 243 0 l 77 0 l 77 810 l 0 810 l 0 930 l 77 930 l 77 1004 l 243 1004 l 243 930 l 425 930 l 425 810 z "},"ĥ":{"ha":696,"x_min":-31,"x_max":619,"o":"m 243 653 l 249 653 q 278 687 261 670 q 317 717 295 704 q 366 739 338 730 q 425 747 393 747 q 503 735 467 747 q 564 694 538 722 q 605 622 590 667 q 619 513 619 577 l 619 0 l 453 0 l 453 467 q 427 567 453 537 q 357 596 401 596 q 311 585 332 596 q 275 554 290 574 q 251 507 260 534 q 243 450 243 481 l 243 0 l 77 0 l 77 1004 l 243 1004 l 243 653 m 343 1039 l 218 1039 l 157 1135 l 94 1039 l -31 1039 l 89 1227 l 225 1227 l 343 1039 z "},"ĭ":{"ha":317,"x_min":-27,"x_max":345,"o":"m 241 0 l 75 0 l 75 730 l 241 730 l 241 0 m 345 1004 q 332 951 345 978 q 295 904 319 925 q 236 869 271 882 q 158 856 201 856 q 81 869 115 856 q 23 904 47 882 q -14 951 -1 925 q -27 1004 -27 978 l 77 1004 q 84 989 78 997 q 102 974 91 981 q 127 963 113 967 q 158 958 141 958 q 191 963 176 958 q 216 974 205 967 q 234 989 227 981 q 241 1004 240 997 l 345 1004 z "},"ĳ":{"ha":633,"x_min":75,"x_max":558,"o":"m 558 -57 q 550 -129 558 -94 q 523 -191 543 -163 q 471 -236 504 -219 q 389 -253 439 -253 q 356 -252 373 -253 q 322 -248 339 -250 q 291 -242 306 -245 q 265 -236 276 -239 l 265 -113 l 326 -113 q 375 -96 359 -113 q 392 -46 392 -79 l 392 730 l 558 730 l 558 -57 m 241 0 l 75 0 l 75 730 l 241 730 l 241 0 m 241 852 l 75 852 l 75 1004 l 241 1004 l 241 852 m 558 852 l 392 852 l 392 1004 l 558 1004 l 558 852 z "},"ī":{"ha":317,"x_min":-19,"x_max":336,"o":"m 241 0 l 75 0 l 75 730 l 241 730 l 241 0 m 336 832 l -19 832 l -19 953 l 336 953 l 336 832 z "},"į":{"ha":317,"x_min":64,"x_max":293,"o":"m 241 0 q 228 -18 235 -7 q 215 -41 221 -28 q 204 -68 208 -54 q 200 -97 200 -83 q 203 -123 200 -111 q 214 -145 207 -136 q 233 -161 221 -155 q 262 -168 245 -168 l 293 -168 l 293 -244 q 247 -259 269 -254 q 201 -264 224 -264 q 153 -258 178 -264 q 109 -237 128 -252 q 76 -198 89 -222 q 64 -138 64 -174 q 69 -93 64 -113 q 84 -55 75 -72 q 105 -22 93 -37 q 124 0 115 -11 l 75 0 l 75 730 l 241 730 l 241 0 m 233 844 l 85 844 l 85 1004 l 233 1004 l 233 844 z "},"ĩ":{"ha":317,"x_min":-75,"x_max":393,"o":"m 241 0 l 75 0 l 75 730 l 241 730 l 241 0 m 393 1004 q 385 946 393 976 q 360 891 377 916 q 318 850 344 866 q 255 835 292 835 q 207 843 230 835 q 162 861 184 851 q 117 878 140 870 q 72 886 95 886 q 36 875 50 886 q 18 835 22 863 l -75 835 q -67 893 -75 863 q -43 948 -60 924 q -1 988 -27 972 q 62 1004 25 1004 q 111 996 87 1004 q 156 979 134 988 q 201 961 178 969 q 247 953 223 953 q 282 964 269 953 q 300 1004 296 975 l 393 1004 z "},"ĵ":{"ha":317,"x_min":-52,"x_max":348,"o":"m 241 -57 q 234 -129 241 -94 q 207 -191 226 -163 q 155 -236 187 -219 q 72 -253 122 -253 q 39 -252 56 -253 q 6 -248 22 -250 q -26 -242 -11 -245 q -52 -236 -41 -239 l -52 -113 l 9 -113 q 59 -96 42 -113 q 75 -46 75 -79 l 75 730 l 241 730 l 241 -57 m 348 817 l 223 817 l 161 913 l 99 817 l -26 817 l 94 1004 l 230 1004 l 348 817 z "},"ķ":{"ha":633,"x_min":75,"x_max":635,"o":"m 241 440 l 446 730 l 624 730 l 407 433 l 635 0 l 450 0 l 302 302 l 241 228 l 241 0 l 75 0 l 75 1004 l 241 1004 l 241 440 m 403 -232 l 340 -365 l 250 -365 l 299 -248 l 231 -248 l 231 -77 l 403 -77 l 403 -232 z "},"ĸ":{"ha":635,"x_min":75,"x_max":635,"o":"m 407 433 l 635 0 l 450 0 l 302 302 l 241 228 l 241 0 l 75 0 l 75 730 l 241 730 l 241 440 l 446 730 l 624 730 l 407 433 z "},"ĺ":{"ha":317,"x_min":63,"x_max":351,"o":"m 241 0 l 75 0 l 75 1004 l 241 1004 l 241 0 m 351 1223 l 201 1043 l 63 1043 l 182 1227 l 349 1227 l 351 1223 z "},"ľ":{"ha":439,"x_min":75,"x_max":505,"o":"m 241 0 l 75 0 l 75 1004 l 241 1004 l 241 0 m 505 779 l 414 546 l 313 546 l 390 762 l 313 762 l 313 953 l 505 953 l 505 779 z "},"ļ":{"ha":317,"x_min":73,"x_max":245,"o":"m 241 0 l 75 0 l 75 1004 l 241 1004 l 241 0 m 245 -232 l 182 -365 l 92 -365 l 141 -248 l 73 -248 l 73 -77 l 245 -77 l 245 -232 z "},"ŀ":{"ha":464,"x_min":75,"x_max":464,"o":"m 241 0 l 75 0 l 75 1004 l 241 1004 l 241 0 m 464 386 l 296 386 l 296 568 l 464 568 l 464 386 z "},"ſ":{"ha":317,"x_min":12,"x_max":379,"o":"m 258 1015 q 290 1014 273 1015 q 323 1010 307 1013 q 354 1005 339 1008 q 379 999 369 1002 l 379 875 l 311 875 q 253 815 253 875 l 253 0 l 86 0 l 86 590 l 12 590 l 12 730 l 86 730 l 86 819 q 94 891 86 856 q 122 954 102 926 q 175 998 142 981 q 258 1015 208 1015 z "},"ł":{"ha":317,"x_min":-20,"x_max":351,"o":"m 241 0 l 75 0 l 75 322 l -20 238 l -20 371 l 75 455 l 75 1004 l 241 1004 l 241 603 l 351 701 l 351 566 l 241 469 l 241 0 z "},"ń":{"ha":696,"x_min":77,"x_max":619,"o":"m 425 747 q 503 735 467 747 q 564 694 538 722 q 605 622 590 667 q 619 513 619 577 l 619 0 l 453 0 l 453 467 q 427 567 453 537 q 357 596 401 596 q 311 585 332 596 q 275 554 290 574 q 251 507 260 534 q 243 450 243 481 l 243 0 l 77 0 l 77 730 l 215 730 l 232 640 l 240 640 q 273 681 254 661 q 314 715 291 701 q 365 739 337 730 q 425 747 393 747 m 540 1000 l 390 821 l 252 821 l 372 1004 l 538 1004 l 540 1000 z "},"ŉ":{"ha":939,"x_min":94,"x_max":862,"o":"m 668 747 q 746 735 710 747 q 807 694 781 722 q 847 622 833 667 q 862 513 862 577 l 862 0 l 696 0 l 696 467 q 670 567 696 537 q 600 596 644 596 q 554 585 575 596 q 518 554 533 574 q 494 507 503 534 q 486 450 486 481 l 486 0 l 319 0 l 319 730 l 458 730 l 475 640 l 483 640 q 515 681 497 661 q 557 715 534 701 q 608 739 580 730 q 668 747 635 747 m 265 798 l 202 665 l 112 665 l 161 782 l 94 782 l 94 953 l 265 953 l 265 798 z "},"ň":{"ha":696,"x_min":77,"x_max":619,"o":"m 425 747 q 503 735 467 747 q 564 694 538 722 q 605 622 590 667 q 619 513 619 577 l 619 0 l 453 0 l 453 467 q 427 567 453 537 q 357 596 401 596 q 311 585 332 596 q 275 554 290 574 q 251 507 260 534 q 243 450 243 481 l 243 0 l 77 0 l 77 730 l 215 730 l 232 640 l 240 640 q 273 681 254 661 q 314 715 291 701 q 365 739 337 730 q 425 747 393 747 m 417 817 l 281 817 l 161 1004 l 286 1004 l 349 908 l 410 1004 l 535 1004 l 417 817 z "},"ņ":{"ha":696,"x_min":77,"x_max":619,"o":"m 425 747 q 503 735 467 747 q 564 694 538 722 q 605 622 590 667 q 619 513 619 577 l 619 0 l 453 0 l 453 467 q 427 567 453 537 q 357 596 401 596 q 311 585 332 596 q 275 554 290 574 q 251 507 260 534 q 243 450 243 481 l 243 0 l 77 0 l 77 730 l 215 730 l 232 640 l 240 640 q 273 681 254 661 q 314 715 291 701 q 365 739 337 730 q 425 747 393 747 m 434 -232 l 371 -365 l 281 -365 l 330 -248 l 262 -248 l 262 -77 l 434 -77 l 434 -232 z "},"ŏ":{"ha":696,"x_min":57,"x_max":640,"o":"m 349 747 q 567 655 494 747 q 640 366 640 562 q 567 76 640 169 q 349 -17 494 -17 q 130 76 203 -17 q 57 366 57 169 q 130 655 57 562 q 349 747 203 747 m 349 607 q 257 552 284 607 q 231 392 231 496 l 231 339 q 257 179 231 234 q 349 123 284 123 q 440 179 413 123 q 467 339 467 234 l 467 392 q 440 552 467 496 q 349 607 413 607 m 534 1004 q 521 951 534 978 q 484 904 508 925 q 425 869 460 882 q 347 856 391 856 q 270 869 304 856 q 212 904 236 882 q 176 951 189 925 q 163 1004 163 978 l 266 1004 q 274 989 267 997 q 291 974 280 981 q 316 963 302 967 q 347 958 330 958 q 380 963 365 958 q 406 974 395 967 q 423 989 416 981 q 431 1004 429 997 l 534 1004 z "},"ő":{"ha":696,"x_min":57,"x_max":640,"o":"m 349 747 q 567 655 494 747 q 640 366 640 562 q 567 76 640 169 q 349 -17 494 -17 q 130 76 203 -17 q 57 366 57 169 q 130 655 57 562 q 349 747 203 747 m 349 607 q 257 552 284 607 q 231 392 231 496 l 231 339 q 257 179 231 234 q 349 123 284 123 q 440 179 413 123 q 467 339 467 234 l 467 392 q 440 552 467 496 q 349 607 413 607 m 418 1000 l 301 821 l 191 821 l 277 1004 l 416 1004 l 418 1000 m 612 1000 l 496 821 l 386 821 l 472 1004 l 611 1004 l 612 1000 z "},"ō":{"ha":696,"x_min":57,"x_max":640,"o":"m 349 747 q 567 655 494 747 q 640 366 640 562 q 567 76 640 169 q 349 -17 494 -17 q 130 76 203 -17 q 57 366 57 169 q 130 655 57 562 q 349 747 203 747 m 349 607 q 257 552 284 607 q 231 392 231 496 l 231 339 q 257 179 231 234 q 349 123 284 123 q 440 179 413 123 q 467 339 467 234 l 467 392 q 440 552 467 496 q 349 607 413 607 m 526 832 l 171 832 l 171 953 l 526 953 l 526 832 z "},"ǿ":{"ha":696,"x_min":57,"x_max":640,"o":"m 561 663 q 640 366 640 569 q 567 76 640 169 q 349 -17 494 -17 q 272 -9 307 -17 q 207 12 237 -2 l 176 -45 l 72 -45 l 135 69 q 77 190 96 117 q 57 366 57 262 q 130 655 57 562 q 349 747 203 747 q 424 740 389 747 q 488 718 458 732 l 518 775 l 623 775 l 561 663 m 281 147 q 349 123 309 123 q 440 179 413 123 q 467 339 467 234 l 467 392 q 465 438 467 416 q 461 479 463 460 l 281 147 m 349 607 q 257 552 284 607 q 231 392 231 496 l 231 339 q 235 254 231 292 l 414 585 q 349 607 388 607 m 540 1000 l 390 821 l 252 821 l 372 1004 l 538 1004 l 540 1000 z "},"ŕ":{"ha":443,"x_min":59,"x_max":439,"o":"m 370 747 q 398 745 385 747 q 420 741 411 743 q 439 736 431 739 l 439 575 l 379 575 q 327 567 352 575 q 284 539 302 559 q 254 488 265 520 q 243 407 243 456 l 243 0 l 77 0 l 77 730 l 215 730 l 235 624 l 243 624 q 260 669 250 647 q 286 708 271 691 q 321 736 301 726 q 370 747 342 747 m 347 1000 l 197 821 l 59 821 l 178 1004 l 345 1004 l 347 1000 z "},"ř":{"ha":443,"x_min":-33,"x_max":439,"o":"m 370 747 q 398 745 385 747 q 420 741 411 743 q 439 736 431 739 l 439 575 l 379 575 q 327 567 352 575 q 284 539 302 559 q 254 488 265 520 q 243 407 243 456 l 243 0 l 77 0 l 77 730 l 215 730 l 235 624 l 243 624 q 260 669 250 647 q 286 708 271 691 q 321 736 301 726 q 370 747 342 747 m 224 817 l 87 817 l -33 1004 l 93 1004 l 155 908 l 217 1004 l 342 1004 l 224 817 z "},"ŗ":{"ha":443,"x_min":77,"x_max":439,"o":"m 370 747 q 398 745 385 747 q 420 741 411 743 q 439 736 431 739 l 439 575 l 379 575 q 327 567 352 575 q 284 539 302 559 q 254 488 265 520 q 243 407 243 456 l 243 0 l 77 0 l 77 730 l 215 730 l 235 624 l 243 624 q 260 669 250 647 q 286 708 271 691 q 321 736 301 726 q 370 747 342 747 m 254 -232 l 191 -365 l 100 -365 l 150 -248 l 82 -248 l 82 -77 l 254 -77 l 254 -232 z "},"ś":{"ha":633,"x_min":46,"x_max":583,"o":"m 318 747 q 415 734 370 747 q 494 695 460 720 q 547 632 528 669 q 566 549 566 595 q 565 528 566 537 q 564 517 564 518 l 395 517 q 373 588 395 566 q 313 611 351 611 q 250 592 274 611 q 227 539 227 572 q 242 497 227 513 q 282 470 257 481 q 339 452 307 460 q 405 434 372 444 q 470 410 438 425 q 528 372 503 396 q 568 311 553 347 q 583 220 583 274 q 563 107 583 153 q 506 35 542 62 q 419 -5 469 7 q 311 -17 370 -17 q 199 0 248 -17 q 116 47 150 16 q 64 120 81 77 q 46 215 46 163 l 46 220 q 47 227 46 224 q 47 232 47 229 l 216 232 l 216 222 q 226 174 217 193 q 250 142 235 154 q 281 124 264 130 q 317 119 299 119 q 350 123 333 119 q 382 137 368 127 q 405 161 396 146 q 414 199 414 176 q 398 245 414 228 q 358 275 383 263 q 301 295 333 287 q 235 314 269 304 q 170 338 202 324 q 113 376 138 353 q 72 436 87 400 q 57 525 57 472 q 77 622 57 581 q 133 692 98 664 q 216 733 168 720 q 318 747 263 747 m 509 1000 l 359 821 l 221 821 l 340 1004 l 507 1004 l 509 1000 z "},"ş":{"ha":633,"x_min":46,"x_max":583,"o":"m 341 -46 q 384 -54 363 -47 q 418 -71 404 -60 q 442 -99 433 -82 q 451 -140 451 -117 q 436 -197 451 -175 q 398 -232 420 -219 q 349 -249 375 -244 q 300 -253 322 -253 q 239 -250 270 -253 q 183 -241 208 -247 l 183 -174 l 281 -174 q 318 -167 304 -174 q 332 -140 332 -160 q 321 -115 332 -123 q 284 -107 311 -107 l 239 -107 l 250 -12 q 199 0 223 -8 q 116 47 150 16 q 64 120 81 77 q 46 215 46 163 l 46 220 q 47 227 46 224 q 47 232 47 229 l 216 232 l 216 222 q 226 174 217 193 q 250 142 235 154 q 281 124 264 130 q 317 119 299 119 q 350 123 333 119 q 382 137 368 127 q 405 161 396 146 q 414 199 414 176 q 398 245 414 228 q 358 275 383 263 q 301 295 333 287 q 235 314 269 304 q 170 338 202 324 q 113 376 138 353 q 72 436 87 400 q 57 525 57 472 q 77 622 57 581 q 133 692 98 664 q 216 733 168 720 q 318 747 263 747 q 415 734 370 747 q 494 695 460 720 q 547 632 528 669 q 566 549 566 595 q 565 528 566 537 q 564 517 564 518 l 395 517 q 373 588 395 566 q 313 611 351 611 q 250 592 274 611 q 227 539 227 572 q 242 497 227 513 q 282 470 257 481 q 339 452 307 460 q 405 434 372 444 q 470 410 438 425 q 528 372 503 396 q 568 311 553 347 q 583 220 583 274 q 563 107 583 153 q 506 35 542 62 q 419 -5 469 7 q 345 -16 384 -14 l 341 -46 z "},"ŝ":{"ha":633,"x_min":46,"x_max":583,"o":"m 318 747 q 415 734 370 747 q 494 695 460 720 q 547 632 528 669 q 566 549 566 595 q 565 528 566 537 q 564 517 564 518 l 395 517 q 373 588 395 566 q 313 611 351 611 q 250 592 274 611 q 227 539 227 572 q 242 497 227 513 q 282 470 257 481 q 339 452 307 460 q 405 434 372 444 q 470 410 438 425 q 528 372 503 396 q 568 311 553 347 q 583 220 583 274 q 563 107 583 153 q 506 35 542 62 q 419 -5 469 7 q 311 -17 370 -17 q 199 0 248 -17 q 116 47 150 16 q 64 120 81 77 q 46 215 46 163 l 46 220 q 47 227 46 224 q 47 232 47 229 l 216 232 l 216 222 q 226 174 217 193 q 250 142 235 154 q 281 124 264 130 q 317 119 299 119 q 350 123 333 119 q 382 137 368 127 q 405 161 396 146 q 414 199 414 176 q 398 245 414 228 q 358 275 383 263 q 301 295 333 287 q 235 314 269 304 q 170 338 202 324 q 113 376 138 353 q 72 436 87 400 q 57 525 57 472 q 77 622 57 581 q 133 692 98 664 q 216 733 168 720 q 318 747 263 747 m 504 817 l 379 817 l 317 913 l 255 817 l 130 817 l 250 1004 l 386 1004 l 504 817 z "},"ŧ":{"ha":379,"x_min":12,"x_max":358,"o":"m 353 364 l 253 364 l 253 183 q 311 123 253 123 l 358 123 l 358 0 q 337 -6 349 -3 q 311 -12 325 -9 q 284 -16 298 -14 q 258 -17 271 -17 q 175 0 208 -17 q 122 45 142 17 q 94 107 102 73 q 86 179 86 142 l 86 364 l 16 364 l 16 485 l 86 485 l 86 590 l 12 590 l 12 730 l 86 730 l 111 936 l 253 936 l 253 730 l 358 730 l 358 590 l 253 590 l 253 485 l 353 485 l 353 364 z "},"ť":{"ha":546,"x_min":12,"x_max":609,"o":"m 253 730 l 358 730 l 358 590 l 253 590 l 253 183 q 311 123 253 123 l 358 123 l 358 0 q 337 -6 349 -3 q 311 -12 325 -9 q 284 -16 298 -14 q 258 -17 271 -17 q 175 0 208 -17 q 122 45 142 17 q 94 107 102 73 q 86 179 86 142 l 86 590 l 12 590 l 12 730 l 86 730 l 111 936 l 253 936 l 253 730 m 609 779 l 533 591 l 433 591 l 494 762 l 417 762 l 417 953 l 609 953 l 609 779 z "},"ţ":{"ha":379,"x_min":12,"x_max":358,"o":"m 253 730 l 358 730 l 358 590 l 253 590 l 253 183 q 311 123 253 123 l 358 123 l 358 0 q 337 -6 349 -3 q 311 -12 325 -9 q 284 -16 298 -14 q 258 -17 271 -17 q 175 0 208 -17 q 122 45 142 17 q 94 107 102 73 q 86 179 86 142 l 86 590 l 12 590 l 12 730 l 86 730 l 111 936 l 253 936 l 253 730 m 276 -232 l 213 -365 l 123 -365 l 172 -248 l 104 -248 l 104 -77 l 276 -77 l 276 -232 z "},"ŭ":{"ha":696,"x_min":77,"x_max":619,"o":"m 619 0 l 481 0 l 464 90 l 456 90 q 423 49 441 68 q 382 15 405 30 q 331 -8 359 1 q 271 -17 303 -17 q 193 -4 229 -17 q 132 36 157 8 q 91 109 106 64 q 77 218 77 154 l 77 730 l 243 730 l 243 264 q 268 164 243 193 q 339 135 292 135 q 384 146 363 135 q 420 176 405 157 q 444 221 435 195 q 453 278 453 248 l 453 730 l 619 730 l 619 0 m 534 1004 q 521 951 534 978 q 484 904 508 925 q 425 869 460 882 q 347 856 391 856 q 270 869 304 856 q 212 904 236 882 q 176 951 189 925 q 163 1004 163 978 l 266 1004 q 274 989 267 997 q 291 974 280 981 q 316 963 302 967 q 347 958 330 958 q 380 963 365 958 q 406 974 395 967 q 423 989 416 981 q 431 1004 429 997 l 534 1004 z "},"ű":{"ha":696,"x_min":77,"x_max":619,"o":"m 619 0 l 481 0 l 464 90 l 456 90 q 423 49 441 68 q 382 15 405 30 q 331 -8 359 1 q 271 -17 303 -17 q 193 -4 229 -17 q 132 36 157 8 q 91 109 106 64 q 77 218 77 154 l 77 730 l 243 730 l 243 264 q 268 164 243 193 q 339 135 292 135 q 384 146 363 135 q 420 176 405 157 q 444 221 435 195 q 453 278 453 248 l 453 730 l 619 730 l 619 0 m 418 1000 l 301 821 l 191 821 l 277 1004 l 416 1004 l 418 1000 m 612 1000 l 496 821 l 386 821 l 472 1004 l 611 1004 l 612 1000 z "},"ū":{"ha":696,"x_min":77,"x_max":619,"o":"m 619 0 l 481 0 l 464 90 l 456 90 q 423 49 441 68 q 382 15 405 30 q 331 -8 359 1 q 271 -17 303 -17 q 193 -4 229 -17 q 132 36 157 8 q 91 109 106 64 q 77 218 77 154 l 77 730 l 243 730 l 243 264 q 268 164 243 193 q 339 135 292 135 q 384 146 363 135 q 420 176 405 157 q 444 221 435 195 q 453 278 453 248 l 453 730 l 619 730 l 619 0 m 526 832 l 171 832 l 171 953 l 526 953 l 526 832 z "},"ⁿ":{"ha":452,"x_min":43,"x_max":408,"o":"m 278 1019 q 330 1011 307 1019 q 371 984 354 1003 q 398 935 389 965 q 408 861 408 905 l 408 517 l 289 517 l 289 831 q 274 894 289 876 q 232 913 259 913 q 204 906 217 913 q 182 886 191 899 q 168 856 173 873 q 163 819 163 839 l 163 517 l 43 517 l 43 1008 l 143 1008 l 154 949 l 160 949 q 180 976 169 963 q 207 998 192 988 q 239 1014 221 1008 q 278 1019 256 1019 z "},"ų":{"ha":696,"x_min":77,"x_max":671,"o":"m 619 0 q 606 -18 613 -7 q 592 -41 599 -28 q 582 -68 586 -54 q 578 -97 578 -83 q 581 -123 578 -111 q 592 -145 585 -136 q 611 -161 599 -155 q 640 -168 623 -168 l 671 -168 l 671 -244 q 625 -259 647 -254 q 579 -264 602 -264 q 531 -258 555 -264 q 486 -237 506 -252 q 454 -198 467 -222 q 441 -138 441 -174 q 447 -93 441 -113 q 461 -55 452 -72 q 483 -22 471 -37 q 502 0 492 -11 l 481 0 l 464 90 l 456 90 q 423 49 441 68 q 382 15 405 30 q 331 -8 359 1 q 271 -17 303 -17 q 193 -4 229 -17 q 132 36 157 8 q 91 109 106 64 q 77 218 77 154 l 77 730 l 243 730 l 243 264 q 268 164 243 193 q 339 135 292 135 q 384 146 363 135 q 420 176 405 157 q 444 221 435 195 q 453 278 453 248 l 453 730 l 619 730 l 619 0 z "},"ů":{"ha":696,"x_min":77,"x_max":619,"o":"m 619 0 l 481 0 l 464 90 l 456 90 q 423 49 441 68 q 382 15 405 30 q 331 -8 359 1 q 271 -17 303 -17 q 193 -4 229 -17 q 132 36 157 8 q 91 109 106 64 q 77 218 77 154 l 77 730 l 243 730 l 243 264 q 268 164 243 193 q 339 135 292 135 q 384 146 363 135 q 420 176 405 157 q 444 221 435 195 q 453 278 453 248 l 453 730 l 619 730 l 619 0 m 349 1046 q 401 1035 376 1046 q 443 1006 425 1025 q 471 964 461 988 q 481 913 481 940 q 471 861 481 885 q 443 818 460 836 q 400 790 425 800 q 349 779 376 779 q 297 789 321 779 q 254 818 273 800 q 225 860 236 836 q 215 913 215 884 q 225 964 215 940 q 254 1007 236 989 q 296 1035 272 1025 q 349 1046 321 1046 m 349 977 q 302 958 321 977 q 284 913 284 940 q 302 867 284 885 q 349 848 321 848 q 373 853 361 848 q 393 867 385 858 q 407 887 402 876 q 412 913 412 899 q 407 938 412 926 q 393 958 402 949 q 373 972 385 967 q 349 977 361 977 z "},"ũ":{"ha":696,"x_min":77,"x_max":619,"o":"m 619 0 l 481 0 l 464 90 l 456 90 q 423 49 441 68 q 382 15 405 30 q 331 -8 359 1 q 271 -17 303 -17 q 193 -4 229 -17 q 132 36 157 8 q 91 109 106 64 q 77 218 77 154 l 77 730 l 243 730 l 243 264 q 268 164 243 193 q 339 135 292 135 q 384 146 363 135 q 420 176 405 157 q 444 221 435 195 q 453 278 453 248 l 453 730 l 619 730 l 619 0 m 582 1004 q 574 946 582 976 q 550 891 566 916 q 507 850 533 866 q 444 835 481 835 q 396 843 419 835 q 351 861 374 851 q 307 878 329 870 q 261 886 284 886 q 225 875 239 886 q 207 835 211 863 l 115 835 q 122 893 115 863 q 146 948 130 924 q 189 988 163 972 q 251 1004 214 1004 q 300 996 277 1004 q 345 979 323 988 q 390 961 368 969 q 436 953 412 953 q 472 964 458 953 q 490 1004 486 975 l 582 1004 z "},"ẃ":{"ha":886,"x_min":1,"x_max":885,"o":"m 708 0 l 541 0 l 468 349 q 458 408 463 376 q 452 467 454 439 q 447 529 449 498 l 439 529 q 434 468 437 499 q 427 410 431 441 q 418 350 423 378 l 347 0 l 179 0 l 1 730 l 168 730 l 237 431 q 251 353 245 393 q 260 279 257 313 q 267 201 264 239 l 272 201 q 279 276 275 237 q 289 350 283 309 q 302 429 295 390 l 366 730 l 532 730 l 595 428 q 606 362 600 401 q 616 288 611 324 q 625 201 621 246 l 631 201 q 642 284 636 243 q 654 358 648 319 q 667 428 660 397 l 730 730 l 885 730 l 708 0 m 635 1000 l 486 821 l 348 821 l 467 1004 l 634 1004 l 635 1000 z "},"ŵ":{"ha":886,"x_min":1,"x_max":885,"o":"m 708 0 l 541 0 l 468 349 q 458 408 463 376 q 452 467 454 439 q 447 529 449 498 l 439 529 q 434 468 437 499 q 427 410 431 441 q 418 350 423 378 l 347 0 l 179 0 l 1 730 l 168 730 l 237 431 q 251 353 245 393 q 260 279 257 313 q 267 201 264 239 l 272 201 q 279 276 275 237 q 289 350 283 309 q 302 429 295 390 l 366 730 l 532 730 l 595 428 q 606 362 600 401 q 616 288 611 324 q 625 201 621 246 l 631 201 q 642 284 636 243 q 654 358 648 319 q 667 428 660 397 l 730 730 l 885 730 l 708 0 m 631 817 l 506 817 l 444 913 l 382 817 l 257 817 l 376 1004 l 513 1004 l 631 817 z "},"ẅ":{"ha":886,"x_min":1,"x_max":885,"o":"m 708 0 l 541 0 l 468 349 q 458 408 463 376 q 452 467 454 439 q 447 529 449 498 l 439 529 q 434 468 437 499 q 427 410 431 441 q 418 350 423 378 l 347 0 l 179 0 l 1 730 l 168 730 l 237 431 q 251 353 245 393 q 260 279 257 313 q 267 201 264 239 l 272 201 q 279 276 275 237 q 289 350 283 309 q 302 429 295 390 l 366 730 l 532 730 l 595 428 q 606 362 600 401 q 616 288 611 324 q 625 201 621 246 l 631 201 q 642 284 636 243 q 654 358 648 319 q 667 428 660 397 l 730 730 l 885 730 l 708 0 m 392 852 l 253 852 l 253 1004 l 392 1004 l 392 852 m 635 852 l 496 852 l 496 1004 l 635 1004 l 635 852 z "},"ẁ":{"ha":886,"x_min":1,"x_max":885,"o":"m 708 0 l 541 0 l 468 349 q 458 408 463 376 q 452 467 454 439 q 447 529 449 498 l 439 529 q 434 468 437 499 q 427 410 431 441 q 418 350 423 378 l 347 0 l 179 0 l 1 730 l 168 730 l 237 431 q 251 353 245 393 q 260 279 257 313 q 267 201 264 239 l 272 201 q 279 276 275 237 q 289 350 283 309 q 302 429 295 390 l 366 730 l 532 730 l 595 428 q 606 362 600 401 q 616 288 611 324 q 625 201 621 246 l 631 201 q 642 284 636 243 q 654 358 648 319 q 667 428 660 397 l 730 730 l 885 730 l 708 0 m 539 821 l 401 821 l 252 1000 l 253 1004 l 420 1004 l 539 821 z "},"ŷ":{"ha":633,"x_min":5,"x_max":628,"o":"m 428 37 q 388 -75 410 -22 q 334 -167 365 -127 q 263 -230 303 -207 q 170 -253 222 -253 q 90 -247 119 -253 q 61 -240 61 -241 l 61 -113 l 136 -113 q 203 -86 172 -113 q 249 0 234 -60 l 5 730 l 182 730 l 292 387 q 306 334 298 366 q 318 271 313 302 q 330 197 325 235 l 336 197 q 347 268 341 233 q 358 330 353 298 q 371 386 364 362 l 461 730 l 628 730 l 428 37 m 504 817 l 379 817 l 317 913 l 255 817 l 130 817 l 250 1004 l 386 1004 l 504 817 z "},"ỳ":{"ha":633,"x_min":5,"x_max":628,"o":"m 428 37 q 388 -75 410 -22 q 334 -167 365 -127 q 263 -230 303 -207 q 170 -253 222 -253 q 90 -247 119 -253 q 61 -240 61 -241 l 61 -113 l 136 -113 q 203 -86 172 -113 q 249 0 234 -60 l 5 730 l 182 730 l 292 387 q 306 334 298 366 q 318 271 313 302 q 330 197 325 235 l 336 197 q 347 268 341 233 q 358 330 353 298 q 371 386 364 362 l 461 730 l 628 730 l 428 37 m 412 821 l 275 821 l 125 1000 l 126 1004 l 293 1004 l 412 821 z "},"ź":{"ha":570,"x_min":25,"x_max":545,"o":"m 534 661 l 250 140 l 545 140 l 545 0 l 25 0 l 25 71 l 309 590 l 41 590 l 41 730 l 534 730 l 534 661 m 477 1000 l 327 821 l 189 821 l 309 1004 l 475 1004 l 477 1000 z "},"ż":{"ha":570,"x_min":25,"x_max":545,"o":"m 534 661 l 250 140 l 545 140 l 545 0 l 25 0 l 25 71 l 309 590 l 41 590 l 41 730 l 534 730 l 534 661 m 359 844 l 211 844 l 211 1004 l 359 1004 l 359 844 z "},"ﬁ":{"ha":696,"x_min":12,"x_max":621,"o":"m 258 1015 q 290 1014 273 1015 q 323 1010 307 1013 q 354 1005 339 1008 q 379 999 369 1002 l 379 875 l 311 875 q 253 815 253 875 l 253 730 l 379 730 l 379 590 l 253 590 l 253 0 l 86 0 l 86 590 l 12 590 l 12 730 l 86 730 l 86 819 q 94 891 86 856 q 122 954 102 926 q 175 998 142 981 q 258 1015 208 1015 m 621 0 l 454 0 l 454 730 l 621 730 l 621 0 m 621 852 l 454 852 l 454 1004 l 621 1004 l 621 852 z "},"ﬂ":{"ha":696,"x_min":12,"x_max":621,"o":"m 258 1015 q 290 1014 273 1015 q 323 1010 307 1013 q 354 1005 339 1008 q 379 999 369 1002 l 379 875 l 311 875 q 253 815 253 875 l 253 730 l 379 730 l 379 590 l 253 590 l 253 0 l 86 0 l 86 590 l 12 590 l 12 730 l 86 730 l 86 819 q 94 891 86 856 q 122 954 102 926 q 175 998 142 981 q 258 1015 208 1015 m 621 0 l 454 0 l 454 1004 l 621 1004 l 621 0 z "},"∆":{"ha":818,"x_min":18,"x_max":789,"o":"m 789 77 l 789 0 l 18 0 l 18 77 l 300 953 l 507 953 l 789 77 m 396 751 l 214 158 l 583 158 l 401 751 l 396 751 z "},"Ω":{"ha":1067,"x_min":136,"x_max":927,"o":"m 532 970 q 697 940 624 970 q 822 849 770 910 q 900 695 873 788 q 927 476 927 602 q 889 276 927 359 q 789 139 851 192 q 819 144 804 141 q 847 150 833 147 q 873 156 861 153 q 892 158 884 158 l 927 158 l 927 0 l 585 0 l 585 113 q 704 211 665 134 q 744 411 744 289 l 744 511 q 731 639 744 583 q 691 735 718 696 q 625 795 665 774 q 532 817 585 817 q 439 795 479 817 q 372 735 399 774 q 332 639 345 696 q 319 511 319 583 l 319 411 q 359 213 319 290 q 479 114 399 136 l 479 0 l 136 0 l 136 158 l 170 158 q 190 156 178 158 q 214 150 201 153 q 243 144 228 147 q 273 139 258 141 q 173 276 211 192 q 136 476 136 359 q 163 695 136 602 q 241 849 190 788 q 366 940 292 910 q 532 970 439 970 z "},"π":{"ha":872,"x_min":28,"x_max":807,"o":"m 795 590 l 680 590 l 680 216 q 682 140 680 174 q 685 81 683 107 q 691 35 688 55 q 699 0 694 16 l 534 0 q 519 68 525 17 q 513 204 513 120 l 513 590 l 361 590 q 354 497 358 549 q 343 389 349 445 q 329 276 337 333 q 312 167 321 219 q 292 72 302 115 q 271 0 281 28 l 105 0 q 127 80 117 35 q 148 178 138 126 q 165 285 157 229 q 179 394 174 340 q 189 498 185 448 q 194 590 193 549 q 139 589 161 590 q 99 586 116 588 q 69 581 81 584 q 44 572 56 577 l 28 689 q 107 720 55 709 q 250 730 160 730 l 807 730 l 795 590 z "},"⁄":{"ha":191,"x_min":-231,"x_max":411,"o":"m -138 -17 l -231 -17 l 319 970 l 411 970 l -138 -17 z "},"⅛":{"ha":950,"x_min":45,"x_max":913,"o":"m 262 -17 l 170 -17 l 720 970 l 811 970 l 262 -17 m 260 489 l 351 489 l 351 393 l 46 393 l 46 489 l 149 489 l 149 812 l 45 812 l 45 890 q 81 898 60 892 q 123 912 101 904 q 165 931 144 920 q 204 953 186 941 l 260 953 l 260 489 m 746 235 q 707 214 721 235 q 693 155 693 194 q 707 96 693 116 q 746 77 721 77 q 799 155 799 77 q 785 214 799 194 q 746 235 772 235 m 746 568 q 813 555 785 568 q 862 521 842 543 q 891 470 882 499 q 901 407 901 440 q 887 337 901 369 q 847 283 873 304 q 897 228 881 262 q 913 150 913 193 q 903 84 913 115 q 873 31 894 54 q 822 -5 853 8 q 746 -18 790 -18 q 670 -5 702 -18 q 618 31 639 8 q 589 84 598 54 q 579 150 579 115 q 595 227 579 193 q 644 282 611 261 q 605 337 619 304 q 590 407 590 371 q 600 470 590 440 q 629 521 610 499 q 678 555 649 543 q 746 568 707 568 m 746 473 q 713 456 724 473 q 703 400 703 438 q 746 328 703 328 q 789 400 789 328 q 778 456 789 438 q 746 473 768 473 z "},"⅜":{"ha":950,"x_min":32,"x_max":913,"o":"m 257 -17 l 164 -17 l 714 970 l 806 970 l 257 -17 m 200 953 q 265 943 235 953 q 315 912 294 932 q 348 862 336 892 q 359 794 359 833 q 340 719 359 747 q 289 669 320 690 q 346 618 323 652 q 368 532 368 585 q 356 463 368 493 q 322 411 344 432 q 270 378 300 389 q 203 367 239 367 q 130 379 161 367 q 76 414 98 391 q 43 469 54 437 q 32 541 32 500 l 32 561 l 146 561 l 146 538 q 159 482 146 501 q 201 463 173 463 q 239 480 224 463 q 254 538 254 498 q 249 577 254 562 q 236 602 244 593 q 217 614 228 611 q 196 618 207 618 l 161 618 l 161 711 l 197 711 q 230 731 216 711 q 244 790 244 750 q 233 842 244 826 q 201 857 221 857 q 168 840 180 857 q 155 787 155 823 l 155 765 l 41 765 l 41 794 q 53 860 41 830 q 86 910 65 889 q 136 942 107 930 q 200 953 165 953 m 746 236 q 707 216 721 236 q 693 157 693 195 q 707 98 693 117 q 746 78 721 78 q 799 157 799 78 q 785 216 799 195 q 746 236 772 236 m 746 570 q 813 557 785 570 q 862 522 842 544 q 891 471 882 500 q 901 408 901 441 q 887 338 901 370 q 847 285 873 306 q 897 229 881 264 q 913 151 913 194 q 903 86 913 117 q 873 32 894 55 q 822 -4 853 9 q 746 -17 790 -17 q 670 -4 702 -17 q 618 32 639 9 q 589 86 598 55 q 579 151 579 117 q 595 228 579 194 q 644 283 611 262 q 605 339 619 305 q 590 408 590 372 q 600 471 590 441 q 629 522 610 500 q 678 557 649 544 q 746 570 707 570 m 746 475 q 713 457 724 475 q 703 401 703 439 q 746 329 703 329 q 789 401 789 329 q 778 457 789 439 q 746 475 768 475 z "},"⅝":{"ha":950,"x_min":35,"x_max":913,"o":"m 254 -17 l 161 -17 l 711 970 l 803 970 l 254 -17 m 350 848 l 167 848 l 161 734 q 191 750 172 742 q 232 758 210 758 q 288 747 262 758 q 333 713 314 736 q 364 655 353 690 q 375 574 375 621 q 363 490 375 527 q 329 429 351 454 q 275 391 307 404 q 205 378 244 378 q 135 390 167 378 q 81 426 104 402 q 47 483 59 449 q 35 558 35 516 l 150 558 q 164 494 150 518 q 205 471 178 471 q 244 496 229 471 q 260 574 260 522 q 246 643 260 618 q 211 668 232 668 q 177 654 190 668 q 155 618 164 640 l 52 635 l 69 953 l 350 953 l 350 848 m 746 235 q 707 214 721 235 q 693 155 693 194 q 707 96 693 116 q 746 77 721 77 q 799 155 799 77 q 785 214 799 194 q 746 235 772 235 m 746 568 q 813 555 785 568 q 862 521 842 543 q 891 470 882 499 q 901 407 901 440 q 887 337 901 369 q 847 283 873 304 q 897 228 881 262 q 913 150 913 193 q 903 84 913 115 q 873 31 894 54 q 822 -5 853 8 q 746 -18 790 -18 q 670 -5 702 -18 q 618 31 639 8 q 589 84 598 54 q 579 150 579 115 q 595 227 579 193 q 644 282 611 261 q 605 337 619 304 q 590 407 590 371 q 600 470 590 440 q 629 521 610 499 q 678 555 649 543 q 746 568 707 568 m 746 473 q 713 456 724 473 q 703 400 703 438 q 746 328 703 328 q 789 400 789 328 q 778 456 789 438 q 746 473 768 473 z "},"⅞":{"ha":950,"x_min":60,"x_max":913,"o":"m 220 -17 l 126 -17 l 676 970 l 768 970 l 220 -17 m 746 235 q 707 214 721 235 q 693 155 693 194 q 707 96 693 116 q 746 77 721 77 q 799 155 799 77 q 785 214 799 194 q 746 235 772 235 m 403 879 q 347 788 376 838 q 294 682 318 738 q 255 565 271 626 q 240 440 240 504 l 240 393 l 121 393 l 121 400 q 134 526 121 464 q 169 646 146 588 q 219 754 191 703 q 278 848 248 806 l 60 848 l 60 953 l 403 953 l 403 879 m 746 568 q 813 555 785 568 q 862 521 842 543 q 891 470 882 499 q 901 407 901 440 q 887 337 901 369 q 847 283 873 304 q 897 228 881 262 q 913 150 913 193 q 903 84 913 115 q 873 31 894 54 q 822 -5 853 8 q 746 -18 790 -18 q 670 -5 702 -18 q 618 31 639 8 q 589 84 598 54 q 579 150 579 115 q 595 227 579 193 q 644 282 611 261 q 605 337 619 304 q 590 407 590 371 q 600 470 590 440 q 629 521 610 499 q 678 555 649 543 q 746 568 707 568 m 746 473 q 713 456 724 473 q 703 400 703 438 q 746 328 703 328 q 789 400 789 328 q 778 456 789 438 q 746 473 768 473 z "},"‼":{"ha":758,"x_min":83,"x_max":675,"o":"m 625 273 l 511 273 l 463 953 l 675 953 l 625 273 m 286 0 l 94 0 l 94 191 l 286 191 l 286 0 m 665 0 l 473 0 l 473 191 l 665 191 l 665 0 m 245 273 l 132 273 l 83 953 l 296 953 l 245 273 z "},"′":{"ha":271,"x_min":32,"x_max":221,"o":"m 221 949 l 155 703 l 32 703 l 66 953 l 220 953 l 221 949 z "},"″":{"ha":541,"x_min":32,"x_max":431,"o":"m 431 949 l 366 703 l 241 703 l 277 953 l 429 953 l 431 949 m 221 949 l 155 703 l 32 703 l 66 953 l 220 953 l 221 949 z "},"‗":{"ha":694,"x_min":0,"x_max":694,"o":"m 694 -193 l 0 -193 l 0 -122 l 694 -122 l 694 -193 m 694 -314 l 0 -314 l 0 -243 l 694 -243 l 694 -314 z "},"‾":{"ha":694,"x_min":0,"x_max":694,"o":"m 694 1099 l 0 1099 l 0 1194 l 694 1194 l 694 1099 z "},"‛":{"ha":317,"x_min":62,"x_max":254,"o":"m 254 762 l 178 762 l 254 546 l 154 546 l 62 779 l 62 953 l 254 953 l 254 762 z "},"₣":{"ha":700,"x_min":56,"x_max":693,"o":"m 693 507 l 675 507 q 623 499 648 507 q 580 472 599 491 q 550 420 562 452 q 539 339 539 387 l 539 0 l 372 0 l 372 396 l 233 396 l 233 0 l 56 0 l 56 953 l 546 953 l 546 794 l 233 794 l 233 554 l 372 554 l 372 663 l 511 663 l 530 555 l 539 555 q 554 601 545 578 q 577 640 564 623 q 609 668 590 657 q 652 679 627 679 q 669 677 661 679 q 682 673 677 675 q 693 668 688 671 l 693 507 z "},"₤":{"ha":633,"x_min":12,"x_max":602,"o":"m 350 970 q 453 953 407 970 q 533 902 500 936 q 584 818 566 868 q 602 700 602 767 l 602 693 l 436 693 l 436 718 q 413 801 436 773 q 350 829 390 829 q 289 805 311 829 q 267 729 267 780 l 267 603 l 425 603 l 425 485 l 267 485 l 267 428 l 425 428 l 425 310 l 265 310 l 250 150 l 591 150 l 591 0 l 28 0 l 28 150 l 98 150 l 98 310 l 12 310 l 12 428 l 98 428 l 98 485 l 12 485 l 12 603 l 98 603 l 98 693 q 116 814 98 762 q 165 901 133 866 q 244 952 198 935 q 350 970 291 970 z "},"₧":{"ha":1334,"x_min":69,"x_max":1296,"o":"m 286 953 q 400 937 350 953 q 488 891 451 920 q 547 820 524 861 q 579 730 570 779 l 606 730 l 646 936 l 766 936 l 766 730 l 966 730 q 1012 743 987 738 q 1065 747 1037 747 q 1161 730 1120 747 q 1227 684 1201 712 q 1267 623 1254 656 q 1280 557 1280 589 q 1280 545 1280 552 q 1280 532 1280 538 q 1279 517 1279 525 l 1118 517 l 1118 534 q 1103 590 1117 569 q 1060 611 1088 611 q 1030 605 1042 611 q 1011 591 1019 600 q 1000 571 1004 582 q 997 550 997 560 q 1010 505 997 523 q 1044 472 1023 486 q 1092 446 1065 458 q 1146 422 1118 435 q 1201 392 1175 409 q 1249 352 1228 376 q 1283 295 1270 328 q 1296 216 1296 262 q 1237 42 1296 100 q 1068 -17 1177 -17 q 872 60 937 -17 l 872 0 q 828 -12 855 -6 q 778 -17 801 -17 q 694 0 728 -17 q 642 45 661 17 q 614 107 622 73 q 606 179 606 142 l 606 590 l 576 590 q 540 498 566 539 q 477 429 515 458 q 391 385 439 400 q 286 370 343 370 l 248 370 l 248 0 l 69 0 l 69 953 l 286 953 m 248 794 l 248 526 l 268 526 q 367 564 333 526 q 401 667 401 601 q 367 760 401 726 q 268 794 332 794 l 248 794 m 766 590 l 766 183 q 782 139 766 154 q 825 123 797 123 l 836 123 q 828 161 831 141 q 825 203 825 181 q 826 214 825 209 q 827 223 826 220 q 828 231 827 227 l 989 231 l 989 208 q 1008 144 989 170 q 1063 119 1027 119 q 1113 138 1094 119 q 1132 187 1132 156 q 1119 236 1132 216 q 1085 269 1106 255 q 1038 295 1065 283 q 983 319 1011 307 q 929 349 956 332 q 881 390 902 366 q 848 450 861 414 q 835 534 835 485 q 837 562 835 548 q 842 590 838 576 l 766 590 z "},"≈":{"ha":762,"x_min":37,"x_max":722,"o":"m 722 431 q 673 380 702 402 q 610 345 648 360 q 524 329 573 329 q 450 342 485 329 q 381 371 416 355 q 311 400 347 387 q 236 414 275 414 q 156 398 192 414 q 93 363 119 382 q 37 313 62 340 l 37 479 q 87 530 58 507 q 150 565 113 549 q 236 581 186 581 q 310 567 275 581 q 379 538 345 554 q 448 509 413 522 q 524 496 484 496 q 604 511 568 496 q 667 547 640 527 q 722 597 698 569 l 722 431 m 722 138 q 673 87 702 109 q 610 52 648 67 q 524 36 573 36 q 450 49 485 36 q 381 78 416 62 q 311 107 347 94 q 236 121 275 121 q 156 105 192 121 q 93 70 119 89 q 37 20 62 47 l 37 186 q 87 237 58 214 q 150 272 113 256 q 236 288 186 288 q 310 274 275 288 q 379 245 345 261 q 448 216 413 229 q 524 203 484 203 q 604 218 568 203 q 667 254 640 234 q 722 304 698 276 l 722 138 z "},"≡":{"ha":664,"x_min":46,"x_max":618,"o":"m 618 614 l 46 614 l 46 758 l 618 758 l 618 614 m 618 24 l 46 24 l 46 167 l 618 167 l 618 24 m 618 318 l 46 318 l 46 463 l 618 463 l 618 318 z "},"≥":{"ha":762,"x_min":96,"x_max":668,"o":"m 668 663 l 668 486 l 96 200 l 96 364 l 528 575 l 96 786 l 96 950 l 668 663 m 668 0 l 96 0 l 96 143 l 668 143 l 668 0 z "},"∞":{"ha":990,"x_min":65,"x_max":922,"o":"m 711 635 q 792 620 754 635 q 860 578 831 606 q 905 510 888 550 q 922 419 922 470 q 905 323 922 365 q 858 252 887 281 q 790 207 828 222 q 711 192 752 192 q 664 196 690 192 q 610 214 639 200 q 552 253 582 227 q 492 322 522 279 q 444 269 468 293 q 394 228 420 245 q 337 201 368 211 q 272 192 307 192 q 194 207 231 192 q 128 251 157 222 q 82 320 100 279 q 65 411 65 361 q 82 502 65 461 q 128 573 98 543 q 197 618 157 602 q 283 635 237 635 q 406 603 353 635 q 503 510 458 572 q 537 548 518 526 q 582 589 557 570 q 639 622 607 608 q 711 635 671 635 m 286 521 q 252 514 268 521 q 223 493 235 507 q 203 459 210 479 q 196 412 196 439 q 203 372 196 391 q 223 338 210 353 q 253 316 235 324 q 290 307 270 307 q 332 316 312 307 q 369 339 352 325 q 402 371 387 353 q 429 407 417 389 l 425 414 q 395 456 410 437 q 365 490 380 476 q 330 513 349 505 q 286 521 311 521 m 699 521 q 660 512 677 521 q 626 490 642 504 q 594 457 610 475 q 564 419 579 439 l 559 414 q 604 359 584 380 q 640 327 623 338 q 673 311 657 315 q 705 307 688 307 q 742 317 726 307 q 769 343 758 328 q 786 376 780 358 q 791 411 791 395 q 785 454 791 434 q 766 489 779 475 q 737 512 754 504 q 699 521 720 521 z "},"∫":{"ha":380,"x_min":32,"x_max":359,"o":"m 359 1097 q 318 1093 337 1097 q 284 1080 298 1089 q 261 1056 269 1071 q 253 1018 253 1040 q 272 566 264 777 q 279 385 275 477 q 286 212 283 294 q 290 65 288 131 q 292 -40 292 -1 q 271 -120 292 -90 q 215 -168 250 -151 q 132 -190 179 -184 q 32 -196 85 -196 l 32 -98 q 73 -94 54 -98 q 106 -81 92 -90 q 129 -57 121 -72 q 136 -18 136 -41 q 117 431 125 222 q 113 552 115 491 q 108 671 111 612 q 104 785 106 730 q 101 887 102 840 q 99 973 100 935 q 98 1038 98 1011 q 119 1117 98 1086 q 176 1164 140 1147 q 260 1187 212 1181 q 359 1193 307 1193 l 359 1097 z "},"∩":{"ha":1003,"x_min":110,"x_max":890,"o":"m 498 952 q 650 923 580 952 q 773 843 721 895 q 856 722 826 792 q 887 570 886 652 l 890 0 l 724 0 l 724 570 q 707 665 724 622 q 659 739 689 708 q 587 787 628 770 q 500 804 546 804 q 413 787 454 804 q 342 739 372 770 q 294 665 311 708 q 276 570 276 622 l 276 0 l 110 0 l 110 570 q 140 722 110 652 q 223 843 171 792 q 347 923 276 895 q 498 952 418 952 z "},"≤":{"ha":762,"x_min":96,"x_max":668,"o":"m 668 786 l 236 575 l 668 364 l 668 200 l 96 486 l 96 663 l 668 950 l 668 786 m 668 0 l 96 0 l 96 143 l 668 143 l 668 0 z "},"−":{"ha":665,"x_min":46,"x_max":618,"o":"m 618 282 l 46 282 l 46 427 l 618 427 l 618 282 z "},"≠":{"ha":762,"x_min":100,"x_max":672,"o":"m 553 572 l 672 572 l 672 428 l 481 428 l 403 277 l 672 277 l 672 134 l 330 134 l 281 35 l 168 35 l 218 134 l 100 134 l 100 277 l 290 277 l 368 428 l 100 428 l 100 572 l 440 572 l 492 672 l 604 672 l 553 572 z "},"∟":{"ha":1360,"x_min":218,"x_max":1114,"o":"m 382 153 l 1114 153 l 1114 0 l 218 0 l 218 868 l 382 868 l 382 153 z "},"∂":{"ha":686,"x_min":50,"x_max":633,"o":"m 309 1021 q 428 993 370 1021 q 532 906 487 966 q 606 754 578 847 q 633 532 633 662 q 611 301 633 404 q 547 129 589 199 q 443 21 505 58 q 301 -17 381 -17 q 192 7 239 -17 q 114 73 145 31 q 66 169 82 114 q 50 283 50 223 q 72 426 50 363 q 130 533 94 489 q 214 601 167 577 q 313 624 262 624 q 368 614 343 624 q 411 591 392 605 q 442 562 429 577 q 461 533 455 546 l 467 533 q 468 543 467 536 q 468 555 468 549 l 468 581 q 454 700 468 644 q 414 796 439 755 q 355 860 389 837 q 281 884 321 884 q 193 869 230 884 q 131 836 157 855 l 131 981 q 207 1009 163 998 q 309 1021 250 1021 m 345 489 q 297 472 319 489 q 258 427 275 456 q 233 360 242 398 q 224 279 224 322 q 230 216 224 245 q 247 168 235 188 q 274 136 258 147 q 311 125 290 125 q 367 147 342 125 q 411 205 393 169 q 441 290 430 242 q 457 387 453 337 q 443 422 452 404 q 419 455 433 441 q 386 479 405 470 q 345 489 368 489 z "},"∏":{"ha":1143,"x_min":134,"x_max":1010,"o":"m 1010 863 l 895 863 l 895 -178 l 726 -178 l 726 863 l 415 863 l 415 -178 l 248 -178 l 248 863 l 134 863 l 134 1004 l 1010 1004 l 1010 863 z "},"√":{"ha":762,"x_min":28,"x_max":775,"o":"m 550 -205 l 397 -205 q 279 101 338 -52 q 163 407 221 253 l 56 366 l 28 449 l 267 543 q 354 302 309 421 q 443 61 399 183 q 460 6 454 32 l 472 -41 l 663 1190 l 775 1190 l 550 -205 z "},"∑":{"ha":990,"x_min":107,"x_max":933,"o":"m 909 868 l 370 868 l 370 863 l 705 437 l 354 -8 l 354 -14 l 933 -14 l 933 -178 l 107 -178 l 107 -90 l 510 415 l 119 911 l 119 1004 l 909 1004 l 909 868 z "},"∙":{"ha":379,"x_min":102,"x_max":275,"o":"m 275 383 l 102 383 l 102 571 l 275 571 l 275 383 z "},"↔":{"ha":1389,"x_min":58,"x_max":1333,"o":"m 1333 366 l 1333 336 l 1060 96 l 987 96 l 1061 275 l 331 275 l 404 96 l 332 96 l 58 336 l 58 366 l 332 606 l 404 606 l 331 426 l 1061 426 l 987 606 l 1060 606 l 1333 366 z "},"↓":{"ha":694,"x_min":95,"x_max":605,"o":"m 425 -15 l 605 58 l 605 -14 l 364 -288 l 335 -288 l 95 -14 l 95 58 l 275 -15 l 275 987 l 425 987 l 425 -15 z "},"←":{"ha":1389,"x_min":58,"x_max":1333,"o":"m 331 425 l 1333 425 l 1333 275 l 331 275 l 404 95 l 332 95 l 58 336 l 58 365 l 332 605 l 404 605 l 331 425 z "},"→":{"ha":1389,"x_min":58,"x_max":1333,"o":"m 1333 364 l 1333 335 l 1060 95 l 987 95 l 1061 275 l 58 275 l 58 425 l 1061 425 l 987 605 l 1060 605 l 1333 364 z "},"↑":{"ha":694,"x_min":94,"x_max":604,"o":"m 604 714 l 604 642 l 425 715 l 425 -288 l 274 -288 l 274 715 l 94 642 l 94 714 l 335 987 l 364 987 l 604 714 z "},"↕":{"ha":694,"x_min":91,"x_max":601,"o":"m 601 714 l 601 642 l 421 715 l 421 -16 l 601 58 l 601 -14 l 361 -288 l 332 -288 l 91 -14 l 91 58 l 271 -16 l 271 715 l 91 642 l 91 714 l 332 987 l 361 987 l 601 714 z "},"℮":{"ha":833,"x_min":62,"x_max":777,"o":"m 419 747 q 568 718 502 747 q 681 635 634 688 q 752 510 727 583 q 777 351 777 437 l 777 345 l 212 345 l 212 115 q 303 60 251 79 q 419 41 355 41 q 580 82 512 41 q 684 193 648 123 l 730 164 q 677 89 709 122 q 607 32 646 56 q 520 -4 568 8 q 419 -17 473 -17 q 270 12 336 -17 q 157 92 203 41 q 87 213 111 142 q 62 366 62 283 q 87 518 62 448 q 157 639 111 588 q 270 719 203 690 q 419 747 336 747 m 419 689 q 303 669 355 689 q 212 614 251 650 l 212 403 l 627 403 l 627 612 q 535 669 587 649 q 419 689 483 689 z "},"":{"ha":379,"x_min":102,"x_max":273,"o":"m 273 -232 l 210 -365 l 120 -365 l 170 -248 l 102 -248 l 102 -77 l 273 -77 l 273 -232 z "},"ˉ":{"ha":694,"x_min":0,"x_max":694,"o":"m 694 1099 l 0 1099 l 0 1194 l 694 1194 l 694 1099 z "},"˘":{"ha":379,"x_min":1,"x_max":372,"o":"m 372 1004 q 359 951 372 978 q 322 904 347 925 q 264 869 298 882 q 186 856 229 856 q 109 869 143 856 q 51 904 75 882 q 14 951 27 925 q 1 1004 1 978 l 104 1004 q 112 989 106 997 q 130 974 119 981 q 155 963 140 967 q 186 958 169 958 q 218 963 203 958 q 244 974 233 967 q 261 989 255 981 q 269 1004 268 997 l 372 1004 z "},"ˇ":{"ha":379,"x_min":0,"x_max":374,"o":"m 256 817 l 119 817 l 0 1004 l 125 1004 l 187 908 l 249 1004 l 374 1004 l 256 817 z "},"˙":{"ha":379,"x_min":115,"x_max":264,"o":"m 264 844 l 115 844 l 115 1004 l 264 1004 l 264 844 z "},"˝":{"ha":379,"x_min":5,"x_max":427,"o":"m 427 1000 l 310 821 l 200 821 l 286 1004 l 425 1004 l 427 1000 m 232 1000 l 115 821 l 5 821 l 92 1004 l 231 1004 l 232 1000 z "},"˛":{"ha":379,"x_min":86,"x_max":315,"o":"m 264 11 q 251 -7 258 3 q 237 -30 243 -18 q 227 -57 231 -43 q 222 -86 222 -72 q 226 -112 222 -100 q 236 -135 229 -125 q 255 -151 243 -144 q 285 -157 267 -157 l 315 -157 l 315 -233 q 269 -248 292 -243 q 224 -253 247 -253 q 175 -247 200 -253 q 131 -226 151 -241 q 99 -188 111 -212 q 86 -127 86 -163 q 92 -82 86 -102 q 106 -44 97 -61 q 127 -12 115 -26 q 153 17 140 3 l 262 17 l 264 11 z "},"˚":{"ha":379,"x_min":60,"x_max":326,"o":"m 193 1046 q 245 1035 221 1046 q 288 1006 270 1025 q 316 964 306 988 q 326 913 326 940 q 316 861 326 885 q 287 818 305 836 q 245 790 269 800 q 193 779 220 779 q 142 789 166 779 q 99 818 117 800 q 70 860 81 836 q 60 913 60 884 q 70 964 60 940 q 99 1007 81 989 q 141 1035 117 1025 q 193 1046 165 1046 m 193 977 q 147 958 165 977 q 129 913 129 940 q 147 867 129 885 q 193 848 165 848 q 218 853 206 848 q 238 867 229 858 q 252 887 247 876 q 257 913 257 899 q 252 938 257 926 q 238 958 247 949 q 218 972 229 967 q 193 977 206 977 z "},"Ǽ":{"ha":1139,"x_min":-11,"x_max":1079,"o":"m 761 1222 l 611 1043 l 473 1043 l 593 1226 l 760 1226 l 761 1222 m 621 0 l 575 187 l 224 187 l 154 0 l -11 0 l 354 953 l 1071 953 l 1071 794 l 608 794 l 664 567 l 1010 567 l 1010 408 l 703 408 l 764 158 l 1079 158 l 1079 0 l 621 0 m 282 346 l 538 346 l 440 758 l 435 758 l 282 346 z "},"―":{"ha":1139,"x_min":142,"x_max":993,"o":"m 993 310 l 142 310 l 142 441 l 993 441 l 993 310 z "},"℅":{"ha":1097,"x_min":54,"x_max":1006,"o":"m 282 -17 l 175 -17 l 753 970 l 859 970 l 282 -17 m 245 970 q 320 958 287 970 q 377 921 353 946 q 413 857 400 896 q 425 764 425 818 l 306 764 q 245 871 306 871 q 192 832 208 871 q 176 718 176 793 l 176 682 q 193 568 176 606 q 249 529 209 529 q 295 556 281 529 q 309 636 309 583 l 425 636 q 413 543 425 582 q 377 479 400 504 q 322 443 355 454 q 249 431 290 431 q 101 496 149 431 q 54 700 54 562 q 102 904 54 839 q 245 970 150 970 m 800 521 q 954 455 903 521 q 1006 252 1006 390 q 954 47 1006 113 q 800 -18 903 -18 q 646 47 697 -18 q 595 252 595 113 q 646 455 595 390 q 800 521 697 521 m 800 422 q 735 384 754 422 q 717 269 717 345 l 717 233 q 735 119 717 158 q 800 81 754 81 q 865 119 846 81 q 884 233 884 158 l 884 269 q 865 384 884 345 q 800 422 846 422 z "},"ℓ":{"ha":681,"x_min":77,"x_max":582,"o":"m 382 1021 q 529 967 476 1021 q 582 808 582 913 q 562 708 582 761 q 506 600 542 655 q 422 488 471 545 q 317 378 374 432 l 317 275 q 325 204 317 233 q 348 156 334 174 q 382 129 363 138 q 424 121 402 121 q 498 132 465 121 q 561 163 532 144 l 561 20 q 489 -7 526 2 q 406 -17 452 -17 q 289 3 337 -17 q 210 57 241 22 q 164 137 178 91 q 150 236 150 183 q 113 209 131 222 q 77 183 96 196 l 77 307 q 112 334 93 319 q 150 366 130 349 l 150 705 q 169 855 150 795 q 221 952 189 916 q 295 1005 254 989 q 382 1021 337 1021 m 400 904 q 370 894 385 904 q 343 861 355 884 q 324 799 332 838 q 317 705 317 761 l 317 529 q 372 599 347 564 q 417 671 398 635 q 448 742 437 707 q 458 810 458 777 q 445 879 458 854 q 400 904 431 904 z "},"№":{"ha":1270,"x_min":83,"x_max":1207,"o":"m 1079 714 q 1063 821 1079 784 q 1013 859 1047 859 q 962 821 979 859 q 946 714 946 784 l 946 677 q 962 570 946 608 q 1013 533 979 533 q 1063 570 1047 533 q 1079 677 1079 608 l 1079 714 m 1207 696 q 1157 488 1207 554 q 1013 422 1107 422 q 868 488 918 422 q 818 696 818 554 q 868 904 818 838 q 1013 970 918 970 q 1157 904 1107 970 q 1207 696 1207 838 m 842 367 l 1185 367 l 1185 250 l 842 250 l 842 367 m 581 0 l 286 525 q 275 547 282 532 q 260 576 268 562 q 243 614 252 594 l 237 610 q 239 579 238 594 q 240 553 239 566 q 240 530 240 540 l 240 0 l 83 0 l 83 953 l 240 953 l 534 428 q 548 404 540 418 q 562 374 555 389 q 578 339 570 357 l 582 343 q 581 377 581 361 q 581 404 581 391 q 581 422 581 416 l 581 953 l 739 953 l 739 0 l 581 0 z "},"↨":{"ha":694,"x_min":91,"x_max":602,"o":"m 601 714 l 601 642 l 421 715 l 421 134 l 601 208 l 601 135 l 361 -138 l 332 -138 l 91 135 l 91 208 l 271 134 l 271 715 l 91 642 l 91 714 l 332 987 l 361 987 l 601 714 m 602 -323 l 92 -323 l 92 -205 l 602 -205 l 602 -323 z "},"⌂":{"ha":833,"x_min":104,"x_max":729,"o":"m 729 431 l 729 0 l 104 0 l 104 431 l 416 782 l 729 431 m 233 385 l 233 124 l 601 124 l 601 385 l 416 595 l 233 385 z "},"⌡":{"ha":839,"x_min":245,"x_max":507,"o":"m 488 1193 q 492 886 490 1040 q 497 587 495 732 q 501 313 499 442 q 505 81 503 184 q 507 -93 506 -22 q 507 -192 507 -164 q 486 -271 507 -241 q 429 -318 465 -302 q 346 -341 393 -335 q 245 -347 298 -347 l 245 -252 q 288 -248 268 -252 q 322 -234 307 -243 q 345 -210 336 -225 q 353 -172 353 -195 q 345 265 349 37 q 341 474 343 363 q 337 704 339 585 q 333 946 335 823 q 329 1193 331 1070 l 488 1193 z "},"⌠":{"ha":839,"x_min":332,"x_max":593,"o":"m 593 1097 q 551 1093 570 1097 q 517 1080 532 1089 q 494 1056 503 1071 q 486 1018 486 1040 q 494 581 490 809 q 497 372 496 483 q 501 142 499 261 q 506 -101 503 23 q 510 -347 508 -224 l 351 -347 q 346 -40 349 -195 q 342 259 344 114 q 338 533 340 404 q 334 765 336 662 q 332 939 333 868 q 332 1038 332 1010 q 353 1117 332 1086 q 410 1164 374 1147 q 493 1187 446 1181 q 593 1193 541 1193 l 593 1097 z "},"⌐":{"ha":665,"x_min":47,"x_max":625,"o":"m 625 486 l 192 486 l 192 260 l 47 260 l 47 643 l 625 643 l 625 486 z "},"∕":{"ha":191,"x_min":-231,"x_max":411,"o":"m -138 -17 l -231 -17 l 319 970 l 411 970 l -138 -17 z "}}}
